%TF.GenerationSoftware,KiCad,Pcbnew,(6.0.4)*%
%TF.CreationDate,2022-06-07T22:17:41+02:00*%
%TF.ProjectId,vestmannaeyjar,76657374-6d61-46e6-9e61-65796a61722e,rev?*%
%TF.SameCoordinates,Original*%
%TF.FileFunction,Profile,NP*%
%FSLAX46Y46*%
G04 Gerber Fmt 4.6, Leading zero omitted, Abs format (unit mm)*
G04 Created by KiCad (PCBNEW (6.0.4)) date 2022-06-07 22:17:41*
%MOMM*%
%LPD*%
G01*
G04 APERTURE LIST*
%TA.AperFunction,Profile*%
%ADD10C,0.100000*%
%TD*%
G04 APERTURE END LIST*
D10*
X33000000Y-45495000D02*
G75*
G03*
X34500000Y-46995000I1500000J0D01*
G01*
X33000000Y-45495000D02*
X33000000Y-27995000D01*
X119500000Y-46995000D02*
X119500000Y-19995000D01*
X113500000Y-77995000D02*
G75*
G03*
X114500000Y-77995000I500000J0D01*
G01*
X108000000Y-45495000D02*
X108000000Y-27995000D01*
X119500000Y-119650000D02*
X49000000Y-119650000D01*
X110000000Y-77995000D02*
X113500000Y-77995000D01*
X45500000Y-55495000D02*
G75*
G03*
X44500000Y-55495000I-500000J0D01*
G01*
X109000000Y-109995000D02*
G75*
G03*
X110000000Y-109995000I500000J0D01*
G01*
X20500000Y-47995000D02*
X23000000Y-47995000D01*
X48000000Y-86995000D02*
X48000000Y-112995000D01*
X66000000Y-74495000D02*
X69500000Y-74495000D01*
X33000000Y-47995000D02*
X33000000Y-49495000D01*
X72000000Y-47995000D02*
G75*
G03*
X72000000Y-46995000I0J500000D01*
G01*
X66000000Y-73495000D02*
G75*
G03*
X66000000Y-74495000I0J-500000D01*
G01*
X92500000Y-70495000D02*
G75*
G03*
X91500000Y-70495000I-500000J0D01*
G01*
X32000000Y-21995000D02*
G75*
G03*
X33000000Y-21995000I500000J0D01*
G01*
X23000000Y-46995000D02*
X22000000Y-46995000D01*
X58000000Y-55495000D02*
G75*
G03*
X57000000Y-55495000I-500000J0D01*
G01*
X42500000Y-73495000D02*
G75*
G03*
X42500000Y-74495000I0J-500000D01*
G01*
X69500000Y-21995000D02*
X69500000Y-19995000D01*
X22500000Y-73495000D02*
X20500000Y-73495000D01*
X48000000Y-80995000D02*
X48000000Y-77995000D01*
X45500000Y-45495000D02*
X45500000Y-27995000D01*
X78430000Y-85495000D02*
X78430000Y-101895000D01*
X83000000Y-45495000D02*
X83000000Y-27995000D01*
X112000000Y-61995000D02*
G75*
G03*
X113500000Y-60495000I0J1500000D01*
G01*
X44500000Y-21995000D02*
G75*
G03*
X45500000Y-21995000I500000J0D01*
G01*
X36500000Y-74495000D02*
G75*
G03*
X36500000Y-73495000I0J500000D01*
G01*
X45500000Y-73495000D02*
X49000000Y-73495000D01*
X48000000Y-80995000D02*
G75*
G03*
X49000000Y-80995000I500000J0D01*
G01*
X28500000Y-73495000D02*
G75*
G03*
X28500000Y-74495000I0J-500000D01*
G01*
X92500000Y-64495000D02*
X92500000Y-62995000D01*
X113500000Y-51495000D02*
X113500000Y-47995000D01*
X108000000Y-19995000D02*
X108000000Y-21995000D01*
X84500000Y-47995000D02*
G75*
G03*
X84500000Y-46995000I0J500000D01*
G01*
X32000000Y-19995000D02*
X20500000Y-19995000D01*
X79430000Y-79495000D02*
X79430000Y-77995000D01*
X110000000Y-90995000D02*
G75*
G03*
X109000000Y-90995000I-500000J0D01*
G01*
X30500000Y-47995000D02*
X29000000Y-47995000D01*
X97500000Y-109995000D02*
X108500000Y-109995000D01*
X69500000Y-19995000D02*
X58000000Y-19995000D01*
X91500000Y-46995000D02*
X90500000Y-46995000D01*
X94500000Y-21995000D02*
X94500000Y-19995000D01*
X57000000Y-46995000D02*
X57000000Y-27995000D01*
X70500000Y-19995000D02*
X70500000Y-21995000D01*
X54000000Y-46995000D02*
X57000000Y-46995000D01*
X70500000Y-45495000D02*
X70500000Y-27995000D01*
X119500000Y-47995000D02*
X119500000Y-119650000D01*
X78000000Y-61995000D02*
X70500000Y-61995000D01*
X48000000Y-112995000D02*
G75*
G03*
X49000000Y-112995000I500000J0D01*
G01*
X69500000Y-74495000D02*
X69500000Y-76995000D01*
X92500000Y-61995000D02*
X93500000Y-61995000D01*
X33000000Y-19995000D02*
X33000000Y-21995000D01*
X99500000Y-61995000D02*
G75*
G03*
X99500000Y-62995000I0J-500000D01*
G01*
X33000000Y-55495000D02*
G75*
G03*
X32000000Y-55495000I-500000J0D01*
G01*
X92500000Y-62995000D02*
X93500000Y-62995000D01*
X82000000Y-19995000D02*
X70500000Y-19995000D01*
X58000000Y-45495000D02*
X58000000Y-27995000D01*
X92500000Y-55495000D02*
G75*
G03*
X91500000Y-55495000I-500000J0D01*
G01*
X44500000Y-49495000D02*
G75*
G03*
X45500000Y-49495000I500000J0D01*
G01*
X103000000Y-46995000D02*
G75*
G03*
X103000000Y-47995000I0J-500000D01*
G01*
X84500000Y-47995000D02*
X78000000Y-47995000D01*
X83000000Y-19995000D02*
X83000000Y-21995000D01*
X60000000Y-77995000D02*
X71000000Y-77995000D01*
X78430056Y-79495000D02*
G75*
G03*
X77000000Y-77995000I-1491956J9300D01*
G01*
X114500000Y-72995000D02*
G75*
G03*
X113500000Y-72995000I-500000J0D01*
G01*
X49000000Y-77995000D02*
X49000000Y-80995000D01*
X109000000Y-90995000D02*
X109000000Y-108995000D01*
X29000000Y-46995000D02*
X32000000Y-46995000D01*
X44500000Y-21995000D02*
X44500000Y-19995000D01*
X92500000Y-61995000D02*
X92500000Y-55495000D01*
X107000000Y-21995000D02*
G75*
G03*
X108000000Y-21995000I500000J0D01*
G01*
X94500000Y-19995000D02*
X83000000Y-19995000D01*
X83000000Y-27995000D02*
G75*
G03*
X82000000Y-27995000I-500000J0D01*
G01*
X79430000Y-85495000D02*
X79430000Y-101895000D01*
X108500000Y-109995000D02*
X109000000Y-109995000D01*
X91500000Y-64495000D02*
G75*
G03*
X92500000Y-64495000I500000J0D01*
G01*
X70500000Y-76995000D02*
X70500000Y-62995000D01*
X60000000Y-73495000D02*
X58000000Y-73495000D01*
X44500000Y-73495000D02*
X42500000Y-73495000D01*
X57000000Y-21995000D02*
X57000000Y-19995000D01*
X113500000Y-66995000D02*
X113500000Y-62995000D01*
X113500000Y-66995000D02*
G75*
G03*
X114500000Y-66995000I500000J0D01*
G01*
X48000000Y-46995000D02*
X47000000Y-46995000D01*
X91500000Y-109995000D02*
X66000000Y-109995000D01*
X91500000Y-49495000D02*
X91500000Y-47995000D01*
X113500000Y-51495000D02*
G75*
G03*
X114500000Y-51495000I500000J0D01*
G01*
X82000000Y-21995000D02*
X82000000Y-19995000D01*
X35500000Y-47995000D02*
G75*
G03*
X35500000Y-46995000I0J500000D01*
G01*
X35500000Y-46995000D02*
X34500000Y-46995000D01*
X71000000Y-77995000D02*
G75*
G03*
X71000000Y-76995000I0J500000D01*
G01*
X49000000Y-118995000D02*
G75*
G03*
X48000000Y-118995000I-500000J0D01*
G01*
X57000000Y-21995000D02*
G75*
G03*
X58000000Y-21995000I500000J0D01*
G01*
X95500000Y-45495000D02*
X95500000Y-27995000D01*
X48500000Y-76995000D02*
X54000000Y-76995000D01*
X66000000Y-108995000D02*
X78430000Y-108995000D01*
X32000000Y-46995000D02*
X32000000Y-27995000D01*
X109000000Y-79495000D02*
X109000000Y-84995000D01*
X69500000Y-49495000D02*
G75*
G03*
X68000000Y-47995000I-1500000J0D01*
G01*
X45500000Y-19995000D02*
X45500000Y-21995000D01*
X82000000Y-46995000D02*
X82000000Y-27995000D01*
X69500000Y-76995000D02*
X60000000Y-76995000D01*
X60000000Y-109995000D02*
X49000000Y-109995000D01*
X108000000Y-27995000D02*
G75*
G03*
X107000000Y-27995000I-500000J0D01*
G01*
X49000000Y-112995000D02*
X49000000Y-109995000D01*
X112100000Y-76995000D02*
X104000000Y-76995000D01*
X79430000Y-108995000D02*
X79430000Y-107895000D01*
X90000000Y-76995000D02*
X77000000Y-76995000D01*
X48500000Y-76995000D02*
X48500000Y-74495000D01*
X66500000Y-46995000D02*
G75*
G03*
X66500000Y-47995000I0J-500000D01*
G01*
X113500000Y-75495000D02*
X113500000Y-72995000D01*
X91500000Y-108995000D02*
X79430000Y-108995000D01*
X60000000Y-74495000D02*
G75*
G03*
X60000000Y-73495000I0J500000D01*
G01*
X58000000Y-27995000D02*
G75*
G03*
X57000000Y-27995000I-500000J0D01*
G01*
X112100000Y-76995036D02*
G75*
G03*
X113500000Y-75495000I0J1403336D01*
G01*
X58000000Y-45495000D02*
G75*
G03*
X59500000Y-46995000I1500000J0D01*
G01*
X44500000Y-55495000D02*
X44500000Y-73495000D01*
X92500000Y-47995000D02*
X92500000Y-49495000D01*
X72000000Y-47995000D02*
X70500000Y-47995000D01*
X36500000Y-73495000D02*
X33000000Y-73495000D01*
X107000000Y-19995000D02*
X95500000Y-19995000D01*
X44500000Y-46995000D02*
X44500000Y-27995000D01*
X45500000Y-45495000D02*
G75*
G03*
X47000000Y-46995000I1500000J0D01*
G01*
X78000000Y-62995000D02*
G75*
G03*
X78000000Y-61995000I0J500000D01*
G01*
X68000000Y-47995000D02*
X66500000Y-47995000D01*
X92500000Y-76995000D02*
X92500000Y-70495000D01*
X58000000Y-19995000D02*
X58000000Y-21995000D01*
X91500000Y-49495000D02*
G75*
G03*
X92500000Y-49495000I500000J0D01*
G01*
X69500000Y-73495000D02*
X66000000Y-73495000D01*
X55500000Y-47995000D02*
X54000000Y-47995000D01*
X94500000Y-46995000D02*
X94500000Y-27995000D01*
X91500000Y-109995000D02*
G75*
G03*
X91500000Y-108995000I0J500000D01*
G01*
X32000000Y-21995000D02*
X32000000Y-19995000D01*
X107000000Y-21995000D02*
X107000000Y-19995000D01*
X60500000Y-47995000D02*
X58000000Y-47995000D01*
X54000000Y-46995000D02*
G75*
G03*
X54000000Y-47995000I0J-500000D01*
G01*
X45500000Y-73495000D02*
X45500000Y-55495000D01*
X119500000Y-46995000D02*
G75*
G03*
X119500000Y-47995000I0J-500000D01*
G01*
X44500000Y-49495000D02*
G75*
G03*
X43000000Y-47995000I-1500000J0D01*
G01*
X44500000Y-74495000D02*
X48000000Y-77995000D01*
X98000000Y-77995000D02*
G75*
G03*
X98000000Y-76995000I0J500000D01*
G01*
X22500000Y-74495000D02*
G75*
G03*
X22500000Y-73495000I0J500000D01*
G01*
X110000000Y-84995000D02*
X110000000Y-77995000D01*
X97500000Y-108995000D02*
X109000000Y-108995000D01*
X94500000Y-21995000D02*
G75*
G03*
X95500000Y-21995000I500000J0D01*
G01*
X45500000Y-47995000D02*
X45500000Y-49495000D01*
X57000000Y-19995000D02*
X45500000Y-19995000D01*
X91500000Y-62995000D02*
X91500000Y-64495000D01*
X58000000Y-49495000D02*
X58000000Y-47995000D01*
X57000000Y-55495000D02*
X57000000Y-73495000D01*
X69500000Y-46995000D02*
X69500000Y-27995000D01*
X20500000Y-73495000D02*
X20500000Y-47995000D01*
X48000000Y-119650000D02*
X20500000Y-119650000D01*
X99500000Y-62995000D02*
X113500000Y-62995000D01*
X54000000Y-77995000D02*
X49000000Y-77995000D01*
X90500000Y-47995000D02*
X91500000Y-47995000D01*
X90000000Y-61995000D02*
G75*
G03*
X91500000Y-60495000I0J1500000D01*
G01*
X70500000Y-45495000D02*
G75*
G03*
X72000000Y-46995000I1500000J0D01*
G01*
X48500000Y-74495000D02*
X49000000Y-74495000D01*
X95500000Y-19995000D02*
X95500000Y-21995000D01*
X60500000Y-46995000D02*
X59500000Y-46995000D01*
X20500000Y-74495000D02*
X22500000Y-74495000D01*
X44500000Y-19995000D02*
X33000000Y-19995000D01*
X78430000Y-107895000D02*
X78430000Y-108995000D01*
X114500000Y-57495000D02*
G75*
G03*
X113500000Y-57495000I-500000J0D01*
G01*
X49000000Y-91995000D02*
X49000000Y-86995000D01*
X79430000Y-77995000D02*
X98000000Y-77995000D01*
X108000000Y-45495000D02*
G75*
G03*
X109500000Y-46995000I1500000J0D01*
G01*
X114500000Y-72995000D02*
X114500000Y-77995000D01*
X32000000Y-49495000D02*
G75*
G03*
X33000000Y-49495000I500000J0D01*
G01*
X48000000Y-118995000D02*
X48000000Y-119650000D01*
X70500000Y-55495000D02*
G75*
G03*
X69500000Y-55495000I-500000J0D01*
G01*
X107000000Y-46995000D02*
X107000000Y-27995000D01*
X28500000Y-74495000D02*
X36500000Y-74495000D01*
X41500000Y-46995000D02*
X44500000Y-46995000D01*
X114500000Y-46995000D02*
X109500000Y-46995000D01*
X84000000Y-61995000D02*
G75*
G03*
X84000000Y-62995000I0J-500000D01*
G01*
X69500000Y-21995000D02*
G75*
G03*
X70500000Y-21995000I500000J0D01*
G01*
X79000000Y-46995000D02*
X82000000Y-46995000D01*
X91500000Y-55495000D02*
X91500000Y-60495000D01*
X112000000Y-61995000D02*
X99500000Y-61995000D01*
X95500000Y-45495000D02*
G75*
G03*
X97000000Y-46995000I1500000J0D01*
G01*
X32000000Y-55495000D02*
X32000000Y-73495000D01*
X55000000Y-73495000D02*
G75*
G03*
X55000000Y-74495000I0J-500000D01*
G01*
X104000000Y-76995000D02*
G75*
G03*
X104000000Y-77995000I0J-500000D01*
G01*
X60500000Y-47995000D02*
G75*
G03*
X60500000Y-46995000I0J500000D01*
G01*
X90500000Y-46995000D02*
G75*
G03*
X90500000Y-47995000I0J-500000D01*
G01*
X23000000Y-47995000D02*
G75*
G03*
X23000000Y-46995000I0J500000D01*
G01*
X78430000Y-79495000D02*
G75*
G03*
X79430000Y-79495000I500000J0D01*
G01*
X114500000Y-47995000D02*
X114500000Y-51495000D01*
X66000000Y-108995000D02*
G75*
G03*
X66000000Y-109995000I0J-500000D01*
G01*
X54000000Y-77995000D02*
G75*
G03*
X54000000Y-76995000I0J500000D01*
G01*
X82000000Y-21995000D02*
G75*
G03*
X83000000Y-21995000I500000J0D01*
G01*
X42500000Y-74495000D02*
X44500000Y-74495000D01*
X109000000Y-79495000D02*
G75*
G03*
X107500000Y-77995000I-1500000J0D01*
G01*
X32000000Y-73495000D02*
X28500000Y-73495000D01*
X57000000Y-73495000D02*
X55000000Y-73495000D01*
X33000000Y-47995000D02*
X35500000Y-47995000D01*
X20500000Y-45495000D02*
G75*
G03*
X22000000Y-46995000I1500000J0D01*
G01*
X78430000Y-101895000D02*
G75*
G03*
X79430000Y-101895000I500000J0D01*
G01*
X49000000Y-86995000D02*
G75*
G03*
X48000000Y-86995000I-500000J0D01*
G01*
X103000000Y-47995000D02*
X113500000Y-47995000D01*
X60000000Y-108995000D02*
X49000000Y-108995000D01*
X20500000Y-45495000D02*
X20500000Y-19995000D01*
X69500000Y-49495000D02*
G75*
G03*
X70500000Y-49495000I500000J0D01*
G01*
X103000000Y-46995000D02*
X107000000Y-46995000D01*
X109000000Y-84995000D02*
G75*
G03*
X110000000Y-84995000I500000J0D01*
G01*
X97500000Y-108995000D02*
G75*
G03*
X97500000Y-109995000I0J-500000D01*
G01*
X79430000Y-107895000D02*
G75*
G03*
X78430000Y-107895000I-500000J0D01*
G01*
X70500000Y-49495000D02*
X70500000Y-47995000D01*
X70500000Y-61995000D02*
X70500000Y-55495000D01*
X49000000Y-118995000D02*
X49000000Y-119650000D01*
X110000000Y-90995000D02*
X110000000Y-109995000D01*
X91500000Y-46995000D02*
X94500000Y-46995000D01*
X83000000Y-45495000D02*
G75*
G03*
X84500000Y-46995000I1500000J0D01*
G01*
X93500000Y-62995000D02*
G75*
G03*
X93500000Y-61995000I0J500000D01*
G01*
X20500000Y-119650000D02*
X20500000Y-74495000D01*
X29000000Y-46995000D02*
G75*
G03*
X29000000Y-47995000I0J-500000D01*
G01*
X79430000Y-85495000D02*
G75*
G03*
X78430000Y-85495000I-500000J0D01*
G01*
X91500000Y-70495000D02*
X91500000Y-75495000D01*
X70500000Y-27995000D02*
G75*
G03*
X69500000Y-27995000I-500000J0D01*
G01*
X45500000Y-27995000D02*
G75*
G03*
X44500000Y-27995000I-500000J0D01*
G01*
X95500000Y-27995000D02*
G75*
G03*
X94500000Y-27995000I-500000J0D01*
G01*
X113500000Y-57495000D02*
X113500000Y-60495000D01*
X92500000Y-47995000D02*
X97000000Y-47995000D01*
X114500000Y-57495000D02*
X114500000Y-66995000D01*
X49000000Y-74495000D02*
G75*
G03*
X49000000Y-73495000I0J500000D01*
G01*
X60000000Y-109995000D02*
G75*
G03*
X60000000Y-108995000I0J500000D01*
G01*
X119500000Y-19995000D02*
X108000000Y-19995000D01*
X41500000Y-46995000D02*
G75*
G03*
X41500000Y-47995000I0J-500000D01*
G01*
X69500000Y-55495000D02*
X69500000Y-73495000D01*
X114500000Y-47995000D02*
G75*
G03*
X114500000Y-46995000I0J500000D01*
G01*
X57000000Y-49495000D02*
G75*
G03*
X58000000Y-49495000I500000J0D01*
G01*
X98000000Y-76995000D02*
X92500000Y-76995000D01*
X90000000Y-76995000D02*
G75*
G03*
X91500000Y-75495000I0J1500000D01*
G01*
X32000000Y-49495000D02*
G75*
G03*
X30500000Y-47995000I-1500000J0D01*
G01*
X84000000Y-62995000D02*
X91500000Y-62995000D01*
X33000000Y-73495000D02*
X33000000Y-55495000D01*
X79000000Y-46995000D02*
X78000000Y-46995000D01*
X48000000Y-47995000D02*
G75*
G03*
X48000000Y-46995000I0J500000D01*
G01*
X33000000Y-27995000D02*
G75*
G03*
X32000000Y-27995000I-500000J0D01*
G01*
X43000000Y-47995000D02*
X41500000Y-47995000D01*
X60000000Y-74495000D02*
X55000000Y-74495000D01*
X70500000Y-62995000D02*
X78000000Y-62995000D01*
X97000000Y-47995000D02*
G75*
G03*
X97000000Y-46995000I0J500000D01*
G01*
X49000000Y-91995000D02*
X49000000Y-108995000D01*
X57000000Y-49495000D02*
G75*
G03*
X55500000Y-47995000I-1500000J0D01*
G01*
X77000000Y-76995000D02*
G75*
G03*
X77000000Y-77995000I0J-500000D01*
G01*
X66500000Y-46995000D02*
X69500000Y-46995000D01*
X58000000Y-73495000D02*
X58000000Y-55495000D01*
X84000000Y-61995000D02*
X90000000Y-61995000D01*
X104000000Y-77995000D02*
X107500000Y-77995000D01*
X48000000Y-47995000D02*
X45500000Y-47995000D01*
X70500000Y-76995000D02*
X71000000Y-76995000D01*
X78000000Y-46995000D02*
G75*
G03*
X78000000Y-47995000I0J-500000D01*
G01*
X60000000Y-76995000D02*
G75*
G03*
X60000000Y-77995000I0J-500000D01*
G01*
M02*
