%TF.GenerationSoftware,KiCad,Pcbnew,(6.0.4)*%
%TF.CreationDate,2022-06-07T22:17:41+02:00*%
%TF.ProjectId,vestmannaeyjar,76657374-6d61-46e6-9e61-65796a61722e,rev?*%
%TF.SameCoordinates,Original*%
%TF.FileFunction,Legend,Top*%
%TF.FilePolarity,Positive*%
%FSLAX46Y46*%
G04 Gerber Fmt 4.6, Leading zero omitted, Abs format (unit mm)*
G04 Created by KiCad (PCBNEW (6.0.4)) date 2022-06-07 22:17:41*
%MOMM*%
%LPD*%
G01*
G04 APERTURE LIST*
%ADD10C,0.100000*%
%ADD11C,0.150000*%
%ADD12C,0.120000*%
G04 APERTURE END LIST*
D10*
%TO.C,D14*%
X84521428Y-37971428D02*
X84521428Y-37371428D01*
X84664285Y-37371428D01*
X84750000Y-37400000D01*
X84807142Y-37457142D01*
X84835714Y-37514285D01*
X84864285Y-37628571D01*
X84864285Y-37714285D01*
X84835714Y-37828571D01*
X84807142Y-37885714D01*
X84750000Y-37942857D01*
X84664285Y-37971428D01*
X84521428Y-37971428D01*
X85435714Y-37971428D02*
X85092857Y-37971428D01*
X85264285Y-37971428D02*
X85264285Y-37371428D01*
X85207142Y-37457142D01*
X85150000Y-37514285D01*
X85092857Y-37542857D01*
X85950000Y-37571428D02*
X85950000Y-37971428D01*
X85807142Y-37342857D02*
X85664285Y-37771428D01*
X86035714Y-37771428D01*
%TO.C,R18*%
X48571428Y-56907142D02*
X48571428Y-57250000D01*
X48571428Y-57078571D02*
X47971428Y-57078571D01*
X48057142Y-57135714D01*
X48114285Y-57192857D01*
X48142857Y-57250000D01*
X47971428Y-56535714D02*
X47971428Y-56478571D01*
X48000000Y-56421428D01*
X48028571Y-56392857D01*
X48085714Y-56364285D01*
X48200000Y-56335714D01*
X48342857Y-56335714D01*
X48457142Y-56364285D01*
X48514285Y-56392857D01*
X48542857Y-56421428D01*
X48571428Y-56478571D01*
X48571428Y-56535714D01*
X48542857Y-56592857D01*
X48514285Y-56621428D01*
X48457142Y-56650000D01*
X48342857Y-56678571D01*
X48200000Y-56678571D01*
X48085714Y-56650000D01*
X48028571Y-56621428D01*
X48000000Y-56592857D01*
X47971428Y-56535714D01*
X48571428Y-56078571D02*
X47971428Y-56078571D01*
X48342857Y-56021428D02*
X48571428Y-55850000D01*
X48171428Y-55850000D02*
X48400000Y-56078571D01*
%TO.C,U7*%
X53976190Y-57380952D02*
X54380952Y-57380952D01*
X54428571Y-57357142D01*
X54452380Y-57333333D01*
X54476190Y-57285714D01*
X54476190Y-57190476D01*
X54452380Y-57142857D01*
X54428571Y-57119047D01*
X54380952Y-57095238D01*
X53976190Y-57095238D01*
X53976190Y-56904761D02*
X53976190Y-56571428D01*
X54476190Y-56785714D01*
D11*
%TO.C,RV3*%
X53302380Y-105545238D02*
X52826190Y-105878571D01*
X53302380Y-106116666D02*
X52302380Y-106116666D01*
X52302380Y-105735714D01*
X52350000Y-105640476D01*
X52397619Y-105592857D01*
X52492857Y-105545238D01*
X52635714Y-105545238D01*
X52730952Y-105592857D01*
X52778571Y-105640476D01*
X52826190Y-105735714D01*
X52826190Y-106116666D01*
X52302380Y-105259523D02*
X53302380Y-104926190D01*
X52302380Y-104592857D01*
X52302380Y-104354761D02*
X52302380Y-103735714D01*
X52683333Y-104069047D01*
X52683333Y-103926190D01*
X52730952Y-103830952D01*
X52778571Y-103783333D01*
X52873809Y-103735714D01*
X53111904Y-103735714D01*
X53207142Y-103783333D01*
X53254761Y-103830952D01*
X53302380Y-103926190D01*
X53302380Y-104211904D01*
X53254761Y-104307142D01*
X53207142Y-104354761D01*
%TO.C,D23*%
X60632380Y-101606785D02*
X59632380Y-101606785D01*
X59632380Y-101368690D01*
X59680000Y-101225833D01*
X59775238Y-101130595D01*
X59870476Y-101082976D01*
X60060952Y-101035357D01*
X60203809Y-101035357D01*
X60394285Y-101082976D01*
X60489523Y-101130595D01*
X60584761Y-101225833D01*
X60632380Y-101368690D01*
X60632380Y-101606785D01*
X59727619Y-100654404D02*
X59680000Y-100606785D01*
X59632380Y-100511547D01*
X59632380Y-100273452D01*
X59680000Y-100178214D01*
X59727619Y-100130595D01*
X59822857Y-100082976D01*
X59918095Y-100082976D01*
X60060952Y-100130595D01*
X60632380Y-100702023D01*
X60632380Y-100082976D01*
X59632380Y-99749642D02*
X59632380Y-99130595D01*
X60013333Y-99463928D01*
X60013333Y-99321071D01*
X60060952Y-99225833D01*
X60108571Y-99178214D01*
X60203809Y-99130595D01*
X60441904Y-99130595D01*
X60537142Y-99178214D01*
X60584761Y-99225833D01*
X60632380Y-99321071D01*
X60632380Y-99606785D01*
X60584761Y-99702023D01*
X60537142Y-99749642D01*
X58732380Y-95956785D02*
X58732380Y-96528214D01*
X58732380Y-96242500D02*
X57732380Y-96242500D01*
X57875238Y-96337738D01*
X57970476Y-96432976D01*
X58018095Y-96528214D01*
%TO.C,J4*%
X50316666Y-80869880D02*
X50316666Y-81584166D01*
X50269047Y-81727023D01*
X50173809Y-81822261D01*
X50030952Y-81869880D01*
X49935714Y-81869880D01*
X51221428Y-81203214D02*
X51221428Y-81869880D01*
X50983333Y-80822261D02*
X50745238Y-81536547D01*
X51364285Y-81536547D01*
%TO.C,D24*%
X74632380Y-101606785D02*
X73632380Y-101606785D01*
X73632380Y-101368690D01*
X73680000Y-101225833D01*
X73775238Y-101130595D01*
X73870476Y-101082976D01*
X74060952Y-101035357D01*
X74203809Y-101035357D01*
X74394285Y-101082976D01*
X74489523Y-101130595D01*
X74584761Y-101225833D01*
X74632380Y-101368690D01*
X74632380Y-101606785D01*
X73727619Y-100654404D02*
X73680000Y-100606785D01*
X73632380Y-100511547D01*
X73632380Y-100273452D01*
X73680000Y-100178214D01*
X73727619Y-100130595D01*
X73822857Y-100082976D01*
X73918095Y-100082976D01*
X74060952Y-100130595D01*
X74632380Y-100702023D01*
X74632380Y-100082976D01*
X73965714Y-99225833D02*
X74632380Y-99225833D01*
X73584761Y-99463928D02*
X74299047Y-99702023D01*
X74299047Y-99082976D01*
X72732380Y-95956785D02*
X72732380Y-96528214D01*
X72732380Y-96242500D02*
X71732380Y-96242500D01*
X71875238Y-96337738D01*
X71970476Y-96432976D01*
X72018095Y-96528214D01*
D10*
%TO.C,R5*%
X62350000Y-91021428D02*
X62064285Y-91021428D01*
X62035714Y-91307142D01*
X62064285Y-91278571D01*
X62121428Y-91250000D01*
X62264285Y-91250000D01*
X62321428Y-91278571D01*
X62350000Y-91307142D01*
X62378571Y-91364285D01*
X62378571Y-91507142D01*
X62350000Y-91564285D01*
X62321428Y-91592857D01*
X62264285Y-91621428D01*
X62121428Y-91621428D01*
X62064285Y-91592857D01*
X62035714Y-91564285D01*
X62635714Y-91621428D02*
X62635714Y-91021428D01*
X62692857Y-91392857D02*
X62864285Y-91621428D01*
X62864285Y-91221428D02*
X62635714Y-91450000D01*
D11*
%TO.C,U2*%
X70638095Y-90852380D02*
X70638095Y-91661904D01*
X70685714Y-91757142D01*
X70733333Y-91804761D01*
X70828571Y-91852380D01*
X71019047Y-91852380D01*
X71114285Y-91804761D01*
X71161904Y-91757142D01*
X71209523Y-91661904D01*
X71209523Y-90852380D01*
X71638095Y-90947619D02*
X71685714Y-90900000D01*
X71780952Y-90852380D01*
X72019047Y-90852380D01*
X72114285Y-90900000D01*
X72161904Y-90947619D01*
X72209523Y-91042857D01*
X72209523Y-91138095D01*
X72161904Y-91280952D01*
X71590476Y-91852380D01*
X72209523Y-91852380D01*
D10*
%TO.C,R6*%
X63621428Y-86450000D02*
X63621428Y-86735714D01*
X63907142Y-86764285D01*
X63878571Y-86735714D01*
X63850000Y-86678571D01*
X63850000Y-86535714D01*
X63878571Y-86478571D01*
X63907142Y-86450000D01*
X63964285Y-86421428D01*
X64107142Y-86421428D01*
X64164285Y-86450000D01*
X64192857Y-86478571D01*
X64221428Y-86535714D01*
X64221428Y-86678571D01*
X64192857Y-86735714D01*
X64164285Y-86764285D01*
X64221428Y-86164285D02*
X63621428Y-86164285D01*
X63992857Y-86107142D02*
X64221428Y-85935714D01*
X63821428Y-85935714D02*
X64050000Y-86164285D01*
%TO.C,C2*%
X71580952Y-86847619D02*
X71580952Y-87076190D01*
X71580952Y-86961904D02*
X71180952Y-86961904D01*
X71238095Y-87000000D01*
X71276190Y-87038095D01*
X71295238Y-87076190D01*
X71180952Y-86600000D02*
X71180952Y-86561904D01*
X71200000Y-86523809D01*
X71219047Y-86504761D01*
X71257142Y-86485714D01*
X71333333Y-86466666D01*
X71428571Y-86466666D01*
X71504761Y-86485714D01*
X71542857Y-86504761D01*
X71561904Y-86523809D01*
X71580952Y-86561904D01*
X71580952Y-86600000D01*
X71561904Y-86638095D01*
X71542857Y-86657142D01*
X71504761Y-86676190D01*
X71428571Y-86695238D01*
X71333333Y-86695238D01*
X71257142Y-86676190D01*
X71219047Y-86657142D01*
X71200000Y-86638095D01*
X71180952Y-86600000D01*
X71180952Y-86219047D02*
X71180952Y-86180952D01*
X71200000Y-86142857D01*
X71219047Y-86123809D01*
X71257142Y-86104761D01*
X71333333Y-86085714D01*
X71428571Y-86085714D01*
X71504761Y-86104761D01*
X71542857Y-86123809D01*
X71561904Y-86142857D01*
X71580952Y-86180952D01*
X71580952Y-86219047D01*
X71561904Y-86257142D01*
X71542857Y-86276190D01*
X71504761Y-86295238D01*
X71428571Y-86314285D01*
X71333333Y-86314285D01*
X71257142Y-86295238D01*
X71219047Y-86276190D01*
X71200000Y-86257142D01*
X71180952Y-86219047D01*
X71314285Y-85914285D02*
X71580952Y-85914285D01*
X71352380Y-85914285D02*
X71333333Y-85895238D01*
X71314285Y-85857142D01*
X71314285Y-85800000D01*
X71333333Y-85761904D01*
X71371428Y-85742857D01*
X71580952Y-85742857D01*
D11*
%TO.C,RV4*%
X75152380Y-105495238D02*
X74676190Y-105828571D01*
X75152380Y-106066666D02*
X74152380Y-106066666D01*
X74152380Y-105685714D01*
X74200000Y-105590476D01*
X74247619Y-105542857D01*
X74342857Y-105495238D01*
X74485714Y-105495238D01*
X74580952Y-105542857D01*
X74628571Y-105590476D01*
X74676190Y-105685714D01*
X74676190Y-106066666D01*
X74152380Y-105209523D02*
X75152380Y-104876190D01*
X74152380Y-104542857D01*
X74485714Y-103780952D02*
X75152380Y-103780952D01*
X74104761Y-104019047D02*
X74819047Y-104257142D01*
X74819047Y-103638095D01*
D10*
%TO.C,R4*%
X65900000Y-91021428D02*
X65614285Y-91021428D01*
X65585714Y-91307142D01*
X65614285Y-91278571D01*
X65671428Y-91250000D01*
X65814285Y-91250000D01*
X65871428Y-91278571D01*
X65900000Y-91307142D01*
X65928571Y-91364285D01*
X65928571Y-91507142D01*
X65900000Y-91564285D01*
X65871428Y-91592857D01*
X65814285Y-91621428D01*
X65671428Y-91621428D01*
X65614285Y-91592857D01*
X65585714Y-91564285D01*
X66185714Y-91621428D02*
X66185714Y-91021428D01*
X66242857Y-91392857D02*
X66414285Y-91621428D01*
X66414285Y-91221428D02*
X66185714Y-91450000D01*
D11*
%TO.C,D22*%
X105132379Y-101354285D02*
X104132379Y-101354285D01*
X104132379Y-101116190D01*
X104179999Y-100973333D01*
X104275237Y-100878095D01*
X104370475Y-100830476D01*
X104560951Y-100782857D01*
X104703808Y-100782857D01*
X104894284Y-100830476D01*
X104989522Y-100878095D01*
X105084760Y-100973333D01*
X105132379Y-101116190D01*
X105132379Y-101354285D01*
X104227618Y-100401904D02*
X104179999Y-100354285D01*
X104132379Y-100259047D01*
X104132379Y-100020952D01*
X104179999Y-99925714D01*
X104227618Y-99878095D01*
X104322856Y-99830476D01*
X104418094Y-99830476D01*
X104560951Y-99878095D01*
X105132379Y-100449523D01*
X105132379Y-99830476D01*
X104227618Y-99449523D02*
X104179999Y-99401904D01*
X104132379Y-99306666D01*
X104132379Y-99068571D01*
X104179999Y-98973333D01*
X104227618Y-98925714D01*
X104322856Y-98878095D01*
X104418094Y-98878095D01*
X104560951Y-98925714D01*
X105132379Y-99497142D01*
X105132379Y-98878095D01*
X103232378Y-95704285D02*
X103232378Y-96275714D01*
X103232378Y-95990000D02*
X102232378Y-95990000D01*
X102375236Y-96085238D01*
X102470474Y-96180476D01*
X102518093Y-96275714D01*
%TO.C,J2*%
X80816666Y-80617379D02*
X80816666Y-81331665D01*
X80769047Y-81474522D01*
X80673809Y-81569760D01*
X80530952Y-81617379D01*
X80435714Y-81617379D01*
X81245238Y-80712618D02*
X81292857Y-80664999D01*
X81388095Y-80617379D01*
X81626190Y-80617379D01*
X81721428Y-80664999D01*
X81769047Y-80712618D01*
X81816666Y-80807856D01*
X81816666Y-80903094D01*
X81769047Y-81045951D01*
X81197619Y-81617379D01*
X81816666Y-81617379D01*
%TO.C,C1*%
X101763333Y-84647142D02*
X101715714Y-84694761D01*
X101572857Y-84742380D01*
X101477619Y-84742380D01*
X101334761Y-84694761D01*
X101239523Y-84599523D01*
X101191904Y-84504285D01*
X101144285Y-84313809D01*
X101144285Y-84170952D01*
X101191904Y-83980476D01*
X101239523Y-83885238D01*
X101334761Y-83790000D01*
X101477619Y-83742380D01*
X101572857Y-83742380D01*
X101715714Y-83790000D01*
X101763333Y-83837619D01*
X102715714Y-84742380D02*
X102144285Y-84742380D01*
X102430000Y-84742380D02*
X102430000Y-83742380D01*
X102334761Y-83885238D01*
X102239523Y-83980476D01*
X102144285Y-84028095D01*
%TO.C,U1*%
X101418094Y-87192380D02*
X101418094Y-88001904D01*
X101465713Y-88097142D01*
X101513332Y-88144761D01*
X101608570Y-88192380D01*
X101799046Y-88192380D01*
X101894284Y-88144761D01*
X101941903Y-88097142D01*
X101989522Y-88001904D01*
X101989522Y-87192380D01*
X102989522Y-88192380D02*
X102418094Y-88192380D01*
X102703808Y-88192380D02*
X102703808Y-87192380D01*
X102608570Y-87335238D01*
X102513332Y-87430476D01*
X102418094Y-87478095D01*
%TO.C,RV2*%
X94332379Y-101285239D02*
X93856189Y-101618572D01*
X94332379Y-101856667D02*
X93332379Y-101856667D01*
X93332379Y-101475715D01*
X93379999Y-101380477D01*
X93427618Y-101332858D01*
X93522856Y-101285239D01*
X93665713Y-101285239D01*
X93760951Y-101332858D01*
X93808570Y-101380477D01*
X93856189Y-101475715D01*
X93856189Y-101856667D01*
X93332379Y-100999524D02*
X94332379Y-100666191D01*
X93332379Y-100332858D01*
X93427618Y-100047143D02*
X93379999Y-99999524D01*
X93332379Y-99904286D01*
X93332379Y-99666191D01*
X93379999Y-99570953D01*
X93427618Y-99523334D01*
X93522856Y-99475715D01*
X93618094Y-99475715D01*
X93760951Y-99523334D01*
X94332379Y-100094762D01*
X94332379Y-99475715D01*
%TO.C,R2*%
X91562380Y-91306666D02*
X91086190Y-91640000D01*
X91562380Y-91878095D02*
X90562380Y-91878095D01*
X90562380Y-91497142D01*
X90610000Y-91401904D01*
X90657619Y-91354285D01*
X90752857Y-91306666D01*
X90895714Y-91306666D01*
X90990952Y-91354285D01*
X91038571Y-91401904D01*
X91086190Y-91497142D01*
X91086190Y-91878095D01*
X90657619Y-90925714D02*
X90610000Y-90878095D01*
X90562380Y-90782857D01*
X90562380Y-90544761D01*
X90610000Y-90449523D01*
X90657619Y-90401904D01*
X90752857Y-90354285D01*
X90848095Y-90354285D01*
X90990952Y-90401904D01*
X91562380Y-90973333D01*
X91562380Y-90354285D01*
%TO.C,D21*%
X91132380Y-101354285D02*
X90132380Y-101354285D01*
X90132380Y-101116190D01*
X90180000Y-100973333D01*
X90275238Y-100878095D01*
X90370476Y-100830476D01*
X90560952Y-100782857D01*
X90703809Y-100782857D01*
X90894285Y-100830476D01*
X90989523Y-100878095D01*
X91084761Y-100973333D01*
X91132380Y-101116190D01*
X91132380Y-101354285D01*
X90227619Y-100401904D02*
X90180000Y-100354285D01*
X90132380Y-100259047D01*
X90132380Y-100020952D01*
X90180000Y-99925714D01*
X90227619Y-99878095D01*
X90322857Y-99830476D01*
X90418095Y-99830476D01*
X90560952Y-99878095D01*
X91132380Y-100449523D01*
X91132380Y-99830476D01*
X91132380Y-98878095D02*
X91132380Y-99449523D01*
X91132380Y-99163809D02*
X90132380Y-99163809D01*
X90275238Y-99259047D01*
X90370476Y-99354285D01*
X90418095Y-99449523D01*
X89232379Y-95704285D02*
X89232379Y-96275714D01*
X89232379Y-95990000D02*
X88232379Y-95990000D01*
X88375237Y-96085238D01*
X88470475Y-96180476D01*
X88518094Y-96275714D01*
%TO.C,R3*%
X94263333Y-88412380D02*
X93930000Y-87936190D01*
X93691904Y-88412380D02*
X93691904Y-87412380D01*
X94072857Y-87412380D01*
X94168095Y-87460000D01*
X94215714Y-87507619D01*
X94263333Y-87602857D01*
X94263333Y-87745714D01*
X94215714Y-87840952D01*
X94168095Y-87888571D01*
X94072857Y-87936190D01*
X93691904Y-87936190D01*
X94596666Y-87412380D02*
X95215714Y-87412380D01*
X94882380Y-87793333D01*
X95025238Y-87793333D01*
X95120476Y-87840952D01*
X95168095Y-87888571D01*
X95215714Y-87983809D01*
X95215714Y-88221904D01*
X95168095Y-88317142D01*
X95120476Y-88364761D01*
X95025238Y-88412380D01*
X94739523Y-88412380D01*
X94644285Y-88364761D01*
X94596666Y-88317142D01*
%TO.C,RV1*%
X80332380Y-101285239D02*
X79856190Y-101618572D01*
X80332380Y-101856667D02*
X79332380Y-101856667D01*
X79332380Y-101475715D01*
X79380000Y-101380477D01*
X79427619Y-101332858D01*
X79522857Y-101285239D01*
X79665714Y-101285239D01*
X79760952Y-101332858D01*
X79808571Y-101380477D01*
X79856190Y-101475715D01*
X79856190Y-101856667D01*
X79332380Y-100999524D02*
X80332380Y-100666191D01*
X79332380Y-100332858D01*
X80332380Y-99475715D02*
X80332380Y-100047143D01*
X80332380Y-99761429D02*
X79332380Y-99761429D01*
X79475238Y-99856667D01*
X79570476Y-99951905D01*
X79618095Y-100047143D01*
%TO.C,R1*%
X98702379Y-91356666D02*
X98226189Y-91690000D01*
X98702379Y-91928095D02*
X97702379Y-91928095D01*
X97702379Y-91547142D01*
X97749999Y-91451904D01*
X97797618Y-91404285D01*
X97892856Y-91356666D01*
X98035713Y-91356666D01*
X98130951Y-91404285D01*
X98178570Y-91451904D01*
X98226189Y-91547142D01*
X98226189Y-91928095D01*
X98702379Y-90404285D02*
X98702379Y-90975714D01*
X98702379Y-90690000D02*
X97702379Y-90690000D01*
X97845237Y-90785238D01*
X97940475Y-90880476D01*
X97988094Y-90975714D01*
%TO.C,U3*%
X23038095Y-105697380D02*
X23038095Y-106506904D01*
X23085714Y-106602142D01*
X23133333Y-106649761D01*
X23228571Y-106697380D01*
X23419047Y-106697380D01*
X23514285Y-106649761D01*
X23561904Y-106602142D01*
X23609523Y-106506904D01*
X23609523Y-105697380D01*
X23990476Y-105697380D02*
X24609523Y-105697380D01*
X24276190Y-106078333D01*
X24419047Y-106078333D01*
X24514285Y-106125952D01*
X24561904Y-106173571D01*
X24609523Y-106268809D01*
X24609523Y-106506904D01*
X24561904Y-106602142D01*
X24514285Y-106649761D01*
X24419047Y-106697380D01*
X24133333Y-106697380D01*
X24038095Y-106649761D01*
X23990476Y-106602142D01*
D10*
%TO.C,R12*%
X29642857Y-37996428D02*
X29300000Y-37996428D01*
X29471428Y-37996428D02*
X29471428Y-37396428D01*
X29414285Y-37482142D01*
X29357142Y-37539285D01*
X29300000Y-37567857D01*
X30014285Y-37396428D02*
X30071428Y-37396428D01*
X30128571Y-37425000D01*
X30157142Y-37453571D01*
X30185714Y-37510714D01*
X30214285Y-37625000D01*
X30214285Y-37767857D01*
X30185714Y-37882142D01*
X30157142Y-37939285D01*
X30128571Y-37967857D01*
X30071428Y-37996428D01*
X30014285Y-37996428D01*
X29957142Y-37967857D01*
X29928571Y-37939285D01*
X29900000Y-37882142D01*
X29871428Y-37767857D01*
X29871428Y-37625000D01*
X29900000Y-37510714D01*
X29928571Y-37453571D01*
X29957142Y-37425000D01*
X30014285Y-37396428D01*
X30471428Y-37996428D02*
X30471428Y-37396428D01*
X30528571Y-37767857D02*
X30700000Y-37996428D01*
X30700000Y-37596428D02*
X30471428Y-37825000D01*
%TO.C,R14*%
X42142857Y-37996428D02*
X41800000Y-37996428D01*
X41971428Y-37996428D02*
X41971428Y-37396428D01*
X41914285Y-37482142D01*
X41857142Y-37539285D01*
X41800000Y-37567857D01*
X42514285Y-37396428D02*
X42571428Y-37396428D01*
X42628571Y-37425000D01*
X42657142Y-37453571D01*
X42685714Y-37510714D01*
X42714285Y-37625000D01*
X42714285Y-37767857D01*
X42685714Y-37882142D01*
X42657142Y-37939285D01*
X42628571Y-37967857D01*
X42571428Y-37996428D01*
X42514285Y-37996428D01*
X42457142Y-37967857D01*
X42428571Y-37939285D01*
X42400000Y-37882142D01*
X42371428Y-37767857D01*
X42371428Y-37625000D01*
X42400000Y-37510714D01*
X42428571Y-37453571D01*
X42457142Y-37425000D01*
X42514285Y-37396428D01*
X42971428Y-37996428D02*
X42971428Y-37396428D01*
X43028571Y-37767857D02*
X43200000Y-37996428D01*
X43200000Y-37596428D02*
X42971428Y-37825000D01*
%TO.C,U5*%
X66476190Y-57380952D02*
X66880952Y-57380952D01*
X66928571Y-57357142D01*
X66952380Y-57333333D01*
X66976190Y-57285714D01*
X66976190Y-57190476D01*
X66952380Y-57142857D01*
X66928571Y-57119047D01*
X66880952Y-57095238D01*
X66476190Y-57095238D01*
X66476190Y-56619047D02*
X66476190Y-56857142D01*
X66714285Y-56880952D01*
X66690476Y-56857142D01*
X66666666Y-56809523D01*
X66666666Y-56690476D01*
X66690476Y-56642857D01*
X66714285Y-56619047D01*
X66761904Y-56595238D01*
X66880952Y-56595238D01*
X66928571Y-56619047D01*
X66952380Y-56642857D01*
X66976190Y-56690476D01*
X66976190Y-56809523D01*
X66952380Y-56857142D01*
X66928571Y-56880952D01*
%TO.C,D10*%
X109521428Y-37971428D02*
X109521428Y-37371428D01*
X109664285Y-37371428D01*
X109750000Y-37400000D01*
X109807142Y-37457142D01*
X109835714Y-37514285D01*
X109864285Y-37628571D01*
X109864285Y-37714285D01*
X109835714Y-37828571D01*
X109807142Y-37885714D01*
X109750000Y-37942857D01*
X109664285Y-37971428D01*
X109521428Y-37971428D01*
X110435714Y-37971428D02*
X110092857Y-37971428D01*
X110264285Y-37971428D02*
X110264285Y-37371428D01*
X110207142Y-37457142D01*
X110150000Y-37514285D01*
X110092857Y-37542857D01*
X110807142Y-37371428D02*
X110864285Y-37371428D01*
X110921428Y-37400000D01*
X110950000Y-37428571D01*
X110978571Y-37485714D01*
X111007142Y-37600000D01*
X111007142Y-37742857D01*
X110978571Y-37857142D01*
X110950000Y-37914285D01*
X110921428Y-37942857D01*
X110864285Y-37971428D01*
X110807142Y-37971428D01*
X110750000Y-37942857D01*
X110721428Y-37914285D01*
X110692857Y-37857142D01*
X110664285Y-37742857D01*
X110664285Y-37600000D01*
X110692857Y-37485714D01*
X110721428Y-37428571D01*
X110750000Y-37400000D01*
X110807142Y-37371428D01*
%TO.C,D9*%
X113107142Y-37971428D02*
X113107142Y-37371428D01*
X113250000Y-37371428D01*
X113335714Y-37400000D01*
X113392857Y-37457142D01*
X113421428Y-37514285D01*
X113450000Y-37628571D01*
X113450000Y-37714285D01*
X113421428Y-37828571D01*
X113392857Y-37885714D01*
X113335714Y-37942857D01*
X113250000Y-37971428D01*
X113107142Y-37971428D01*
X113735714Y-37971428D02*
X113850000Y-37971428D01*
X113907142Y-37942857D01*
X113935714Y-37914285D01*
X113992857Y-37828571D01*
X114021428Y-37714285D01*
X114021428Y-37485714D01*
X113992857Y-37428571D01*
X113964285Y-37400000D01*
X113907142Y-37371428D01*
X113792857Y-37371428D01*
X113735714Y-37400000D01*
X113707142Y-37428571D01*
X113678571Y-37485714D01*
X113678571Y-37628571D01*
X113707142Y-37685714D01*
X113735714Y-37714285D01*
X113792857Y-37742857D01*
X113907142Y-37742857D01*
X113964285Y-37714285D01*
X113992857Y-37685714D01*
X114021428Y-37628571D01*
%TO.C,R9*%
X104642857Y-37996428D02*
X104300000Y-37996428D01*
X104471428Y-37996428D02*
X104471428Y-37396428D01*
X104414285Y-37482142D01*
X104357142Y-37539285D01*
X104300000Y-37567857D01*
X105014285Y-37396428D02*
X105071428Y-37396428D01*
X105128571Y-37425000D01*
X105157142Y-37453571D01*
X105185714Y-37510714D01*
X105214285Y-37625000D01*
X105214285Y-37767857D01*
X105185714Y-37882142D01*
X105157142Y-37939285D01*
X105128571Y-37967857D01*
X105071428Y-37996428D01*
X105014285Y-37996428D01*
X104957142Y-37967857D01*
X104928571Y-37939285D01*
X104900000Y-37882142D01*
X104871428Y-37767857D01*
X104871428Y-37625000D01*
X104900000Y-37510714D01*
X104928571Y-37453571D01*
X104957142Y-37425000D01*
X105014285Y-37396428D01*
X105471428Y-37996428D02*
X105471428Y-37396428D01*
X105528571Y-37767857D02*
X105700000Y-37996428D01*
X105700000Y-37596428D02*
X105471428Y-37825000D01*
%TO.C,U4*%
X41476190Y-57380952D02*
X41880952Y-57380952D01*
X41928571Y-57357142D01*
X41952380Y-57333333D01*
X41976190Y-57285714D01*
X41976190Y-57190476D01*
X41952380Y-57142857D01*
X41928571Y-57119047D01*
X41880952Y-57095238D01*
X41476190Y-57095238D01*
X41642857Y-56642857D02*
X41976190Y-56642857D01*
X41452380Y-56761904D02*
X41809523Y-56880952D01*
X41809523Y-56571428D01*
%TO.C,D19*%
X73964285Y-69621428D02*
X74107142Y-70221428D01*
X74221428Y-69792857D01*
X74335714Y-70221428D01*
X74478571Y-69621428D01*
X74678571Y-70192857D02*
X74764285Y-70221428D01*
X74907142Y-70221428D01*
X74964285Y-70192857D01*
X74992857Y-70164285D01*
X75021428Y-70107142D01*
X75021428Y-70050000D01*
X74992857Y-69992857D01*
X74964285Y-69964285D01*
X74907142Y-69935714D01*
X74792857Y-69907142D01*
X74735714Y-69878571D01*
X74707142Y-69850000D01*
X74678571Y-69792857D01*
X74678571Y-69735714D01*
X74707142Y-69678571D01*
X74735714Y-69650000D01*
X74792857Y-69621428D01*
X74935714Y-69621428D01*
X75021428Y-69650000D01*
X75250000Y-69678571D02*
X75278571Y-69650000D01*
X75335714Y-69621428D01*
X75478571Y-69621428D01*
X75535714Y-69650000D01*
X75564285Y-69678571D01*
X75592857Y-69735714D01*
X75592857Y-69792857D01*
X75564285Y-69878571D01*
X75221428Y-70221428D01*
X75592857Y-70221428D01*
X75935714Y-69878571D02*
X75878571Y-69850000D01*
X75850000Y-69821428D01*
X75821428Y-69764285D01*
X75821428Y-69735714D01*
X75850000Y-69678571D01*
X75878571Y-69650000D01*
X75935714Y-69621428D01*
X76050000Y-69621428D01*
X76107142Y-69650000D01*
X76135714Y-69678571D01*
X76164285Y-69735714D01*
X76164285Y-69764285D01*
X76135714Y-69821428D01*
X76107142Y-69850000D01*
X76050000Y-69878571D01*
X75935714Y-69878571D01*
X75878571Y-69907142D01*
X75850000Y-69935714D01*
X75821428Y-69992857D01*
X75821428Y-70107142D01*
X75850000Y-70164285D01*
X75878571Y-70192857D01*
X75935714Y-70221428D01*
X76050000Y-70221428D01*
X76107142Y-70192857D01*
X76135714Y-70164285D01*
X76164285Y-70107142D01*
X76164285Y-69992857D01*
X76135714Y-69935714D01*
X76107142Y-69907142D01*
X76050000Y-69878571D01*
X76735714Y-70221428D02*
X76392857Y-70221428D01*
X76564285Y-70221428D02*
X76564285Y-69621428D01*
X76507142Y-69707142D01*
X76450000Y-69764285D01*
X76392857Y-69792857D01*
X76964285Y-69678571D02*
X76992857Y-69650000D01*
X77050000Y-69621428D01*
X77192857Y-69621428D01*
X77250000Y-69650000D01*
X77278571Y-69678571D01*
X77307142Y-69735714D01*
X77307142Y-69792857D01*
X77278571Y-69878571D01*
X76935714Y-70221428D01*
X77307142Y-70221428D01*
X77764285Y-69907142D02*
X77850000Y-69935714D01*
X77878571Y-69964285D01*
X77907142Y-70021428D01*
X77907142Y-70107142D01*
X77878571Y-70164285D01*
X77850000Y-70192857D01*
X77792857Y-70221428D01*
X77564285Y-70221428D01*
X77564285Y-69621428D01*
X77764285Y-69621428D01*
X77821428Y-69650000D01*
X77850000Y-69678571D01*
X77878571Y-69735714D01*
X77878571Y-69792857D01*
X77850000Y-69850000D01*
X77821428Y-69878571D01*
X77764285Y-69907142D01*
X77564285Y-69907142D01*
D11*
X80425714Y-72072379D02*
X79854285Y-72072379D01*
X80140000Y-72072379D02*
X80140000Y-71072379D01*
X80044761Y-71215237D01*
X79949523Y-71310475D01*
X79854285Y-71358094D01*
D10*
%TO.C,R13*%
X92142857Y-37996428D02*
X91800000Y-37996428D01*
X91971428Y-37996428D02*
X91971428Y-37396428D01*
X91914285Y-37482142D01*
X91857142Y-37539285D01*
X91800000Y-37567857D01*
X92514285Y-37396428D02*
X92571428Y-37396428D01*
X92628571Y-37425000D01*
X92657142Y-37453571D01*
X92685714Y-37510714D01*
X92714285Y-37625000D01*
X92714285Y-37767857D01*
X92685714Y-37882142D01*
X92657142Y-37939285D01*
X92628571Y-37967857D01*
X92571428Y-37996428D01*
X92514285Y-37996428D01*
X92457142Y-37967857D01*
X92428571Y-37939285D01*
X92400000Y-37882142D01*
X92371428Y-37767857D01*
X92371428Y-37625000D01*
X92400000Y-37510714D01*
X92428571Y-37453571D01*
X92457142Y-37425000D01*
X92514285Y-37396428D01*
X92971428Y-37996428D02*
X92971428Y-37396428D01*
X93028571Y-37767857D02*
X93200000Y-37996428D01*
X93200000Y-37596428D02*
X92971428Y-37825000D01*
%TO.C,D7*%
X50607142Y-37971428D02*
X50607142Y-37371428D01*
X50750000Y-37371428D01*
X50835714Y-37400000D01*
X50892857Y-37457142D01*
X50921428Y-37514285D01*
X50950000Y-37628571D01*
X50950000Y-37714285D01*
X50921428Y-37828571D01*
X50892857Y-37885714D01*
X50835714Y-37942857D01*
X50750000Y-37971428D01*
X50607142Y-37971428D01*
X51150000Y-37371428D02*
X51550000Y-37371428D01*
X51292857Y-37971428D01*
%TO.C,R8*%
X67142857Y-37996428D02*
X66800000Y-37996428D01*
X66971428Y-37996428D02*
X66971428Y-37396428D01*
X66914285Y-37482142D01*
X66857142Y-37539285D01*
X66800000Y-37567857D01*
X67514285Y-37396428D02*
X67571428Y-37396428D01*
X67628571Y-37425000D01*
X67657142Y-37453571D01*
X67685714Y-37510714D01*
X67714285Y-37625000D01*
X67714285Y-37767857D01*
X67685714Y-37882142D01*
X67657142Y-37939285D01*
X67628571Y-37967857D01*
X67571428Y-37996428D01*
X67514285Y-37996428D01*
X67457142Y-37967857D01*
X67428571Y-37939285D01*
X67400000Y-37882142D01*
X67371428Y-37767857D01*
X67371428Y-37625000D01*
X67400000Y-37510714D01*
X67428571Y-37453571D01*
X67457142Y-37425000D01*
X67514285Y-37396428D01*
X67971428Y-37996428D02*
X67971428Y-37396428D01*
X68028571Y-37767857D02*
X68200000Y-37996428D01*
X68200000Y-37596428D02*
X67971428Y-37825000D01*
%TO.C,R10*%
X54642857Y-37996428D02*
X54300000Y-37996428D01*
X54471428Y-37996428D02*
X54471428Y-37396428D01*
X54414285Y-37482142D01*
X54357142Y-37539285D01*
X54300000Y-37567857D01*
X55014285Y-37396428D02*
X55071428Y-37396428D01*
X55128571Y-37425000D01*
X55157142Y-37453571D01*
X55185714Y-37510714D01*
X55214285Y-37625000D01*
X55214285Y-37767857D01*
X55185714Y-37882142D01*
X55157142Y-37939285D01*
X55128571Y-37967857D01*
X55071428Y-37996428D01*
X55014285Y-37996428D01*
X54957142Y-37967857D01*
X54928571Y-37939285D01*
X54900000Y-37882142D01*
X54871428Y-37767857D01*
X54871428Y-37625000D01*
X54900000Y-37510714D01*
X54928571Y-37453571D01*
X54957142Y-37425000D01*
X55014285Y-37396428D01*
X55471428Y-37996428D02*
X55471428Y-37396428D01*
X55528571Y-37767857D02*
X55700000Y-37996428D01*
X55700000Y-37596428D02*
X55471428Y-37825000D01*
%TO.C,D4*%
X59807142Y-37971428D02*
X59807142Y-37371428D01*
X59950000Y-37371428D01*
X60035714Y-37400000D01*
X60092857Y-37457142D01*
X60121428Y-37514285D01*
X60150000Y-37628571D01*
X60150000Y-37714285D01*
X60121428Y-37828571D01*
X60092857Y-37885714D01*
X60035714Y-37942857D01*
X59950000Y-37971428D01*
X59807142Y-37971428D01*
X60664285Y-37571428D02*
X60664285Y-37971428D01*
X60521428Y-37342857D02*
X60378571Y-37771428D01*
X60750000Y-37771428D01*
%TO.C,D2*%
X72307142Y-37971428D02*
X72307142Y-37371428D01*
X72450000Y-37371428D01*
X72535714Y-37400000D01*
X72592857Y-37457142D01*
X72621428Y-37514285D01*
X72650000Y-37628571D01*
X72650000Y-37714285D01*
X72621428Y-37828571D01*
X72592857Y-37885714D01*
X72535714Y-37942857D01*
X72450000Y-37971428D01*
X72307142Y-37971428D01*
X72878571Y-37428571D02*
X72907142Y-37400000D01*
X72964285Y-37371428D01*
X73107142Y-37371428D01*
X73164285Y-37400000D01*
X73192857Y-37428571D01*
X73221428Y-37485714D01*
X73221428Y-37542857D01*
X73192857Y-37628571D01*
X72850000Y-37971428D01*
X73221428Y-37971428D01*
%TO.C,D11*%
X25321428Y-37971428D02*
X25321428Y-37371428D01*
X25464285Y-37371428D01*
X25550000Y-37400000D01*
X25607142Y-37457142D01*
X25635714Y-37514285D01*
X25664285Y-37628571D01*
X25664285Y-37714285D01*
X25635714Y-37828571D01*
X25607142Y-37885714D01*
X25550000Y-37942857D01*
X25464285Y-37971428D01*
X25321428Y-37971428D01*
X26235714Y-37971428D02*
X25892857Y-37971428D01*
X26064285Y-37971428D02*
X26064285Y-37371428D01*
X26007142Y-37457142D01*
X25950000Y-37514285D01*
X25892857Y-37542857D01*
X26807142Y-37971428D02*
X26464285Y-37971428D01*
X26635714Y-37971428D02*
X26635714Y-37371428D01*
X26578571Y-37457142D01*
X26521428Y-37514285D01*
X26464285Y-37542857D01*
%TO.C,D12*%
X22021428Y-37971428D02*
X22021428Y-37371428D01*
X22164285Y-37371428D01*
X22250000Y-37400000D01*
X22307142Y-37457142D01*
X22335714Y-37514285D01*
X22364285Y-37628571D01*
X22364285Y-37714285D01*
X22335714Y-37828571D01*
X22307142Y-37885714D01*
X22250000Y-37942857D01*
X22164285Y-37971428D01*
X22021428Y-37971428D01*
X22935714Y-37971428D02*
X22592857Y-37971428D01*
X22764285Y-37971428D02*
X22764285Y-37371428D01*
X22707142Y-37457142D01*
X22650000Y-37514285D01*
X22592857Y-37542857D01*
X23164285Y-37428571D02*
X23192857Y-37400000D01*
X23250000Y-37371428D01*
X23392857Y-37371428D01*
X23450000Y-37400000D01*
X23478571Y-37428571D01*
X23507142Y-37485714D01*
X23507142Y-37542857D01*
X23478571Y-37628571D01*
X23135714Y-37971428D01*
X23507142Y-37971428D01*
%TO.C,D3*%
X63107142Y-37971428D02*
X63107142Y-37371428D01*
X63250000Y-37371428D01*
X63335714Y-37400000D01*
X63392857Y-37457142D01*
X63421428Y-37514285D01*
X63450000Y-37628571D01*
X63450000Y-37714285D01*
X63421428Y-37828571D01*
X63392857Y-37885714D01*
X63335714Y-37942857D01*
X63250000Y-37971428D01*
X63107142Y-37971428D01*
X63650000Y-37371428D02*
X64021428Y-37371428D01*
X63821428Y-37600000D01*
X63907142Y-37600000D01*
X63964285Y-37628571D01*
X63992857Y-37657142D01*
X64021428Y-37714285D01*
X64021428Y-37857142D01*
X63992857Y-37914285D01*
X63964285Y-37942857D01*
X63907142Y-37971428D01*
X63735714Y-37971428D01*
X63678571Y-37942857D01*
X63650000Y-37914285D01*
%TO.C,D1*%
X75607142Y-37971428D02*
X75607142Y-37371428D01*
X75750000Y-37371428D01*
X75835714Y-37400000D01*
X75892857Y-37457142D01*
X75921428Y-37514285D01*
X75950000Y-37628571D01*
X75950000Y-37714285D01*
X75921428Y-37828571D01*
X75892857Y-37885714D01*
X75835714Y-37942857D01*
X75750000Y-37971428D01*
X75607142Y-37971428D01*
X76521428Y-37971428D02*
X76178571Y-37971428D01*
X76350000Y-37971428D02*
X76350000Y-37371428D01*
X76292857Y-37457142D01*
X76235714Y-37514285D01*
X76178571Y-37542857D01*
%TO.C,R15*%
X36071428Y-56907142D02*
X36071428Y-57250000D01*
X36071428Y-57078571D02*
X35471428Y-57078571D01*
X35557142Y-57135714D01*
X35614285Y-57192857D01*
X35642857Y-57250000D01*
X35471428Y-56535714D02*
X35471428Y-56478571D01*
X35500000Y-56421428D01*
X35528571Y-56392857D01*
X35585714Y-56364285D01*
X35700000Y-56335714D01*
X35842857Y-56335714D01*
X35957142Y-56364285D01*
X36014285Y-56392857D01*
X36042857Y-56421428D01*
X36071428Y-56478571D01*
X36071428Y-56535714D01*
X36042857Y-56592857D01*
X36014285Y-56621428D01*
X35957142Y-56650000D01*
X35842857Y-56678571D01*
X35700000Y-56678571D01*
X35585714Y-56650000D01*
X35528571Y-56621428D01*
X35500000Y-56592857D01*
X35471428Y-56535714D01*
X36071428Y-56078571D02*
X35471428Y-56078571D01*
X35842857Y-56021428D02*
X36071428Y-55850000D01*
X35671428Y-55850000D02*
X35900000Y-56078571D01*
%TO.C,R11*%
X117142857Y-37996428D02*
X116800000Y-37996428D01*
X116971428Y-37996428D02*
X116971428Y-37396428D01*
X116914285Y-37482142D01*
X116857142Y-37539285D01*
X116800000Y-37567857D01*
X117514285Y-37396428D02*
X117571428Y-37396428D01*
X117628571Y-37425000D01*
X117657142Y-37453571D01*
X117685714Y-37510714D01*
X117714285Y-37625000D01*
X117714285Y-37767857D01*
X117685714Y-37882142D01*
X117657142Y-37939285D01*
X117628571Y-37967857D01*
X117571428Y-37996428D01*
X117514285Y-37996428D01*
X117457142Y-37967857D01*
X117428571Y-37939285D01*
X117400000Y-37882142D01*
X117371428Y-37767857D01*
X117371428Y-37625000D01*
X117400000Y-37510714D01*
X117428571Y-37453571D01*
X117457142Y-37425000D01*
X117514285Y-37396428D01*
X117971428Y-37996428D02*
X117971428Y-37396428D01*
X118028571Y-37767857D02*
X118200000Y-37996428D01*
X118200000Y-37596428D02*
X117971428Y-37825000D01*
%TO.C,D16*%
X34521428Y-37971428D02*
X34521428Y-37371428D01*
X34664285Y-37371428D01*
X34750000Y-37400000D01*
X34807142Y-37457142D01*
X34835714Y-37514285D01*
X34864285Y-37628571D01*
X34864285Y-37714285D01*
X34835714Y-37828571D01*
X34807142Y-37885714D01*
X34750000Y-37942857D01*
X34664285Y-37971428D01*
X34521428Y-37971428D01*
X35435714Y-37971428D02*
X35092857Y-37971428D01*
X35264285Y-37971428D02*
X35264285Y-37371428D01*
X35207142Y-37457142D01*
X35150000Y-37514285D01*
X35092857Y-37542857D01*
X35950000Y-37371428D02*
X35835714Y-37371428D01*
X35778571Y-37400000D01*
X35750000Y-37428571D01*
X35692857Y-37514285D01*
X35664285Y-37628571D01*
X35664285Y-37857142D01*
X35692857Y-37914285D01*
X35721428Y-37942857D01*
X35778571Y-37971428D01*
X35892857Y-37971428D01*
X35950000Y-37942857D01*
X35978571Y-37914285D01*
X36007142Y-37857142D01*
X36007142Y-37714285D01*
X35978571Y-37657142D01*
X35950000Y-37628571D01*
X35892857Y-37600000D01*
X35778571Y-37600000D01*
X35721428Y-37628571D01*
X35692857Y-37657142D01*
X35664285Y-37714285D01*
%TO.C,R17*%
X23571428Y-56907142D02*
X23571428Y-57250000D01*
X23571428Y-57078571D02*
X22971428Y-57078571D01*
X23057142Y-57135714D01*
X23114285Y-57192857D01*
X23142857Y-57250000D01*
X22971428Y-56535714D02*
X22971428Y-56478571D01*
X23000000Y-56421428D01*
X23028571Y-56392857D01*
X23085714Y-56364285D01*
X23200000Y-56335714D01*
X23342857Y-56335714D01*
X23457142Y-56364285D01*
X23514285Y-56392857D01*
X23542857Y-56421428D01*
X23571428Y-56478571D01*
X23571428Y-56535714D01*
X23542857Y-56592857D01*
X23514285Y-56621428D01*
X23457142Y-56650000D01*
X23342857Y-56678571D01*
X23200000Y-56678571D01*
X23085714Y-56650000D01*
X23028571Y-56621428D01*
X23000000Y-56592857D01*
X22971428Y-56535714D01*
X23571428Y-56078571D02*
X22971428Y-56078571D01*
X23342857Y-56021428D02*
X23571428Y-55850000D01*
X23171428Y-55850000D02*
X23400000Y-56078571D01*
%TO.C,R16*%
X61071428Y-56907142D02*
X61071428Y-57250000D01*
X61071428Y-57078571D02*
X60471428Y-57078571D01*
X60557142Y-57135714D01*
X60614285Y-57192857D01*
X60642857Y-57250000D01*
X60471428Y-56535714D02*
X60471428Y-56478571D01*
X60500000Y-56421428D01*
X60528571Y-56392857D01*
X60585714Y-56364285D01*
X60700000Y-56335714D01*
X60842857Y-56335714D01*
X60957142Y-56364285D01*
X61014285Y-56392857D01*
X61042857Y-56421428D01*
X61071428Y-56478571D01*
X61071428Y-56535714D01*
X61042857Y-56592857D01*
X61014285Y-56621428D01*
X60957142Y-56650000D01*
X60842857Y-56678571D01*
X60700000Y-56678571D01*
X60585714Y-56650000D01*
X60528571Y-56621428D01*
X60500000Y-56592857D01*
X60471428Y-56535714D01*
X61071428Y-56078571D02*
X60471428Y-56078571D01*
X60842857Y-56021428D02*
X61071428Y-55850000D01*
X60671428Y-55850000D02*
X60900000Y-56078571D01*
%TO.C,D5*%
X100607142Y-37971428D02*
X100607142Y-37371428D01*
X100750000Y-37371428D01*
X100835714Y-37400000D01*
X100892857Y-37457142D01*
X100921428Y-37514285D01*
X100950000Y-37628571D01*
X100950000Y-37714285D01*
X100921428Y-37828571D01*
X100892857Y-37885714D01*
X100835714Y-37942857D01*
X100750000Y-37971428D01*
X100607142Y-37971428D01*
X101492857Y-37371428D02*
X101207142Y-37371428D01*
X101178571Y-37657142D01*
X101207142Y-37628571D01*
X101264285Y-37600000D01*
X101407142Y-37600000D01*
X101464285Y-37628571D01*
X101492857Y-37657142D01*
X101521428Y-37714285D01*
X101521428Y-37857142D01*
X101492857Y-37914285D01*
X101464285Y-37942857D01*
X101407142Y-37971428D01*
X101264285Y-37971428D01*
X101207142Y-37942857D01*
X101178571Y-37914285D01*
D11*
%TO.C,J33*%
X21122380Y-79539523D02*
X21836666Y-79539523D01*
X21979523Y-79587142D01*
X22074761Y-79682380D01*
X22122380Y-79825238D01*
X22122380Y-79920476D01*
X21122380Y-79158571D02*
X21122380Y-78539523D01*
X21503333Y-78872857D01*
X21503333Y-78730000D01*
X21550952Y-78634761D01*
X21598571Y-78587142D01*
X21693809Y-78539523D01*
X21931904Y-78539523D01*
X22027142Y-78587142D01*
X22074761Y-78634761D01*
X22122380Y-78730000D01*
X22122380Y-79015714D01*
X22074761Y-79110952D01*
X22027142Y-79158571D01*
X21122380Y-78206190D02*
X21122380Y-77587142D01*
X21503333Y-77920476D01*
X21503333Y-77777619D01*
X21550952Y-77682380D01*
X21598571Y-77634761D01*
X21693809Y-77587142D01*
X21931904Y-77587142D01*
X22027142Y-77634761D01*
X22074761Y-77682380D01*
X22122380Y-77777619D01*
X22122380Y-78063333D01*
X22074761Y-78158571D01*
X22027142Y-78206190D01*
%TO.C,J37*%
X37472380Y-119487023D02*
X38186666Y-119487023D01*
X38329523Y-119534642D01*
X38424761Y-119629880D01*
X38472380Y-119772738D01*
X38472380Y-119867976D01*
X37472380Y-119106071D02*
X37472380Y-118487023D01*
X37853333Y-118820357D01*
X37853333Y-118677500D01*
X37900952Y-118582261D01*
X37948571Y-118534642D01*
X38043809Y-118487023D01*
X38281904Y-118487023D01*
X38377142Y-118534642D01*
X38424761Y-118582261D01*
X38472380Y-118677500D01*
X38472380Y-118963214D01*
X38424761Y-119058452D01*
X38377142Y-119106071D01*
X37472380Y-118153690D02*
X37472380Y-117487023D01*
X38472380Y-117915595D01*
D10*
%TO.C,D15*%
X37821428Y-37971428D02*
X37821428Y-37371428D01*
X37964285Y-37371428D01*
X38050000Y-37400000D01*
X38107142Y-37457142D01*
X38135714Y-37514285D01*
X38164285Y-37628571D01*
X38164285Y-37714285D01*
X38135714Y-37828571D01*
X38107142Y-37885714D01*
X38050000Y-37942857D01*
X37964285Y-37971428D01*
X37821428Y-37971428D01*
X38735714Y-37971428D02*
X38392857Y-37971428D01*
X38564285Y-37971428D02*
X38564285Y-37371428D01*
X38507142Y-37457142D01*
X38450000Y-37514285D01*
X38392857Y-37542857D01*
X39278571Y-37371428D02*
X38992857Y-37371428D01*
X38964285Y-37657142D01*
X38992857Y-37628571D01*
X39050000Y-37600000D01*
X39192857Y-37600000D01*
X39250000Y-37628571D01*
X39278571Y-37657142D01*
X39307142Y-37714285D01*
X39307142Y-37857142D01*
X39278571Y-37914285D01*
X39250000Y-37942857D01*
X39192857Y-37971428D01*
X39050000Y-37971428D01*
X38992857Y-37942857D01*
X38964285Y-37914285D01*
%TO.C,D13*%
X87821428Y-37971428D02*
X87821428Y-37371428D01*
X87964285Y-37371428D01*
X88050000Y-37400000D01*
X88107142Y-37457142D01*
X88135714Y-37514285D01*
X88164285Y-37628571D01*
X88164285Y-37714285D01*
X88135714Y-37828571D01*
X88107142Y-37885714D01*
X88050000Y-37942857D01*
X87964285Y-37971428D01*
X87821428Y-37971428D01*
X88735714Y-37971428D02*
X88392857Y-37971428D01*
X88564285Y-37971428D02*
X88564285Y-37371428D01*
X88507142Y-37457142D01*
X88450000Y-37514285D01*
X88392857Y-37542857D01*
X88935714Y-37371428D02*
X89307142Y-37371428D01*
X89107142Y-37600000D01*
X89192857Y-37600000D01*
X89250000Y-37628571D01*
X89278571Y-37657142D01*
X89307142Y-37714285D01*
X89307142Y-37857142D01*
X89278571Y-37914285D01*
X89250000Y-37942857D01*
X89192857Y-37971428D01*
X89021428Y-37971428D01*
X88964285Y-37942857D01*
X88935714Y-37914285D01*
%TO.C,R7*%
X79642857Y-37996428D02*
X79300000Y-37996428D01*
X79471428Y-37996428D02*
X79471428Y-37396428D01*
X79414285Y-37482142D01*
X79357142Y-37539285D01*
X79300000Y-37567857D01*
X80014285Y-37396428D02*
X80071428Y-37396428D01*
X80128571Y-37425000D01*
X80157142Y-37453571D01*
X80185714Y-37510714D01*
X80214285Y-37625000D01*
X80214285Y-37767857D01*
X80185714Y-37882142D01*
X80157142Y-37939285D01*
X80128571Y-37967857D01*
X80071428Y-37996428D01*
X80014285Y-37996428D01*
X79957142Y-37967857D01*
X79928571Y-37939285D01*
X79900000Y-37882142D01*
X79871428Y-37767857D01*
X79871428Y-37625000D01*
X79900000Y-37510714D01*
X79928571Y-37453571D01*
X79957142Y-37425000D01*
X80014285Y-37396428D01*
X80471428Y-37996428D02*
X80471428Y-37396428D01*
X80528571Y-37767857D02*
X80700000Y-37996428D01*
X80700000Y-37596428D02*
X80471428Y-37825000D01*
%TO.C,U6*%
X28976190Y-57380952D02*
X29380952Y-57380952D01*
X29428571Y-57357142D01*
X29452380Y-57333333D01*
X29476190Y-57285714D01*
X29476190Y-57190476D01*
X29452380Y-57142857D01*
X29428571Y-57119047D01*
X29380952Y-57095238D01*
X28976190Y-57095238D01*
X28976190Y-56642857D02*
X28976190Y-56738095D01*
X29000000Y-56785714D01*
X29023809Y-56809523D01*
X29095238Y-56857142D01*
X29190476Y-56880952D01*
X29380952Y-56880952D01*
X29428571Y-56857142D01*
X29452380Y-56833333D01*
X29476190Y-56785714D01*
X29476190Y-56690476D01*
X29452380Y-56642857D01*
X29428571Y-56619047D01*
X29380952Y-56595238D01*
X29261904Y-56595238D01*
X29214285Y-56619047D01*
X29190476Y-56642857D01*
X29166666Y-56690476D01*
X29166666Y-56785714D01*
X29190476Y-56833333D01*
X29214285Y-56857142D01*
X29261904Y-56880952D01*
%TO.C,D17*%
X95964285Y-69621428D02*
X96107142Y-70221428D01*
X96221428Y-69792857D01*
X96335714Y-70221428D01*
X96478571Y-69621428D01*
X96678571Y-70192857D02*
X96764285Y-70221428D01*
X96907142Y-70221428D01*
X96964285Y-70192857D01*
X96992857Y-70164285D01*
X97021428Y-70107142D01*
X97021428Y-70050000D01*
X96992857Y-69992857D01*
X96964285Y-69964285D01*
X96907142Y-69935714D01*
X96792857Y-69907142D01*
X96735714Y-69878571D01*
X96707142Y-69850000D01*
X96678571Y-69792857D01*
X96678571Y-69735714D01*
X96707142Y-69678571D01*
X96735714Y-69650000D01*
X96792857Y-69621428D01*
X96935714Y-69621428D01*
X97021428Y-69650000D01*
X97250000Y-69678571D02*
X97278571Y-69650000D01*
X97335714Y-69621428D01*
X97478571Y-69621428D01*
X97535714Y-69650000D01*
X97564285Y-69678571D01*
X97592857Y-69735714D01*
X97592857Y-69792857D01*
X97564285Y-69878571D01*
X97221428Y-70221428D01*
X97592857Y-70221428D01*
X97935714Y-69878571D02*
X97878571Y-69850000D01*
X97850000Y-69821428D01*
X97821428Y-69764285D01*
X97821428Y-69735714D01*
X97850000Y-69678571D01*
X97878571Y-69650000D01*
X97935714Y-69621428D01*
X98050000Y-69621428D01*
X98107142Y-69650000D01*
X98135714Y-69678571D01*
X98164285Y-69735714D01*
X98164285Y-69764285D01*
X98135714Y-69821428D01*
X98107142Y-69850000D01*
X98050000Y-69878571D01*
X97935714Y-69878571D01*
X97878571Y-69907142D01*
X97850000Y-69935714D01*
X97821428Y-69992857D01*
X97821428Y-70107142D01*
X97850000Y-70164285D01*
X97878571Y-70192857D01*
X97935714Y-70221428D01*
X98050000Y-70221428D01*
X98107142Y-70192857D01*
X98135714Y-70164285D01*
X98164285Y-70107142D01*
X98164285Y-69992857D01*
X98135714Y-69935714D01*
X98107142Y-69907142D01*
X98050000Y-69878571D01*
X98735714Y-70221428D02*
X98392857Y-70221428D01*
X98564285Y-70221428D02*
X98564285Y-69621428D01*
X98507142Y-69707142D01*
X98450000Y-69764285D01*
X98392857Y-69792857D01*
X98964285Y-69678571D02*
X98992857Y-69650000D01*
X99050000Y-69621428D01*
X99192857Y-69621428D01*
X99250000Y-69650000D01*
X99278571Y-69678571D01*
X99307142Y-69735714D01*
X99307142Y-69792857D01*
X99278571Y-69878571D01*
X98935714Y-70221428D01*
X99307142Y-70221428D01*
X99764285Y-69907142D02*
X99850000Y-69935714D01*
X99878571Y-69964285D01*
X99907142Y-70021428D01*
X99907142Y-70107142D01*
X99878571Y-70164285D01*
X99850000Y-70192857D01*
X99792857Y-70221428D01*
X99564285Y-70221428D01*
X99564285Y-69621428D01*
X99764285Y-69621428D01*
X99821428Y-69650000D01*
X99850000Y-69678571D01*
X99878571Y-69735714D01*
X99878571Y-69792857D01*
X99850000Y-69850000D01*
X99821428Y-69878571D01*
X99764285Y-69907142D01*
X99564285Y-69907142D01*
D11*
X102425714Y-72072379D02*
X101854285Y-72072379D01*
X102140000Y-72072379D02*
X102140000Y-71072379D01*
X102044761Y-71215237D01*
X101949523Y-71310475D01*
X101854285Y-71358094D01*
D10*
%TO.C,D20*%
X95964285Y-54621428D02*
X96107142Y-55221428D01*
X96221428Y-54792857D01*
X96335714Y-55221428D01*
X96478571Y-54621428D01*
X96678571Y-55192857D02*
X96764285Y-55221428D01*
X96907142Y-55221428D01*
X96964285Y-55192857D01*
X96992857Y-55164285D01*
X97021428Y-55107142D01*
X97021428Y-55050000D01*
X96992857Y-54992857D01*
X96964285Y-54964285D01*
X96907142Y-54935714D01*
X96792857Y-54907142D01*
X96735714Y-54878571D01*
X96707142Y-54850000D01*
X96678571Y-54792857D01*
X96678571Y-54735714D01*
X96707142Y-54678571D01*
X96735714Y-54650000D01*
X96792857Y-54621428D01*
X96935714Y-54621428D01*
X97021428Y-54650000D01*
X97250000Y-54678571D02*
X97278571Y-54650000D01*
X97335714Y-54621428D01*
X97478571Y-54621428D01*
X97535714Y-54650000D01*
X97564285Y-54678571D01*
X97592857Y-54735714D01*
X97592857Y-54792857D01*
X97564285Y-54878571D01*
X97221428Y-55221428D01*
X97592857Y-55221428D01*
X97935714Y-54878571D02*
X97878571Y-54850000D01*
X97850000Y-54821428D01*
X97821428Y-54764285D01*
X97821428Y-54735714D01*
X97850000Y-54678571D01*
X97878571Y-54650000D01*
X97935714Y-54621428D01*
X98050000Y-54621428D01*
X98107142Y-54650000D01*
X98135714Y-54678571D01*
X98164285Y-54735714D01*
X98164285Y-54764285D01*
X98135714Y-54821428D01*
X98107142Y-54850000D01*
X98050000Y-54878571D01*
X97935714Y-54878571D01*
X97878571Y-54907142D01*
X97850000Y-54935714D01*
X97821428Y-54992857D01*
X97821428Y-55107142D01*
X97850000Y-55164285D01*
X97878571Y-55192857D01*
X97935714Y-55221428D01*
X98050000Y-55221428D01*
X98107142Y-55192857D01*
X98135714Y-55164285D01*
X98164285Y-55107142D01*
X98164285Y-54992857D01*
X98135714Y-54935714D01*
X98107142Y-54907142D01*
X98050000Y-54878571D01*
X98735714Y-55221428D02*
X98392857Y-55221428D01*
X98564285Y-55221428D02*
X98564285Y-54621428D01*
X98507142Y-54707142D01*
X98450000Y-54764285D01*
X98392857Y-54792857D01*
X98964285Y-54678571D02*
X98992857Y-54650000D01*
X99050000Y-54621428D01*
X99192857Y-54621428D01*
X99250000Y-54650000D01*
X99278571Y-54678571D01*
X99307142Y-54735714D01*
X99307142Y-54792857D01*
X99278571Y-54878571D01*
X98935714Y-55221428D01*
X99307142Y-55221428D01*
X99764285Y-54907142D02*
X99850000Y-54935714D01*
X99878571Y-54964285D01*
X99907142Y-55021428D01*
X99907142Y-55107142D01*
X99878571Y-55164285D01*
X99850000Y-55192857D01*
X99792857Y-55221428D01*
X99564285Y-55221428D01*
X99564285Y-54621428D01*
X99764285Y-54621428D01*
X99821428Y-54650000D01*
X99850000Y-54678571D01*
X99878571Y-54735714D01*
X99878571Y-54792857D01*
X99850000Y-54850000D01*
X99821428Y-54878571D01*
X99764285Y-54907142D01*
X99564285Y-54907142D01*
D11*
X102425714Y-57072379D02*
X101854285Y-57072379D01*
X102140000Y-57072379D02*
X102140000Y-56072379D01*
X102044761Y-56215237D01*
X101949523Y-56310475D01*
X101854285Y-56358094D01*
D10*
%TO.C,D6*%
X97307142Y-37971428D02*
X97307142Y-37371428D01*
X97450000Y-37371428D01*
X97535714Y-37400000D01*
X97592857Y-37457142D01*
X97621428Y-37514285D01*
X97650000Y-37628571D01*
X97650000Y-37714285D01*
X97621428Y-37828571D01*
X97592857Y-37885714D01*
X97535714Y-37942857D01*
X97450000Y-37971428D01*
X97307142Y-37971428D01*
X98164285Y-37371428D02*
X98050000Y-37371428D01*
X97992857Y-37400000D01*
X97964285Y-37428571D01*
X97907142Y-37514285D01*
X97878571Y-37628571D01*
X97878571Y-37857142D01*
X97907142Y-37914285D01*
X97935714Y-37942857D01*
X97992857Y-37971428D01*
X98107142Y-37971428D01*
X98164285Y-37942857D01*
X98192857Y-37914285D01*
X98221428Y-37857142D01*
X98221428Y-37714285D01*
X98192857Y-37657142D01*
X98164285Y-37628571D01*
X98107142Y-37600000D01*
X97992857Y-37600000D01*
X97935714Y-37628571D01*
X97907142Y-37657142D01*
X97878571Y-37714285D01*
%TO.C,D18*%
X73964285Y-54621428D02*
X74107142Y-55221428D01*
X74221428Y-54792857D01*
X74335714Y-55221428D01*
X74478571Y-54621428D01*
X74678571Y-55192857D02*
X74764285Y-55221428D01*
X74907142Y-55221428D01*
X74964285Y-55192857D01*
X74992857Y-55164285D01*
X75021428Y-55107142D01*
X75021428Y-55050000D01*
X74992857Y-54992857D01*
X74964285Y-54964285D01*
X74907142Y-54935714D01*
X74792857Y-54907142D01*
X74735714Y-54878571D01*
X74707142Y-54850000D01*
X74678571Y-54792857D01*
X74678571Y-54735714D01*
X74707142Y-54678571D01*
X74735714Y-54650000D01*
X74792857Y-54621428D01*
X74935714Y-54621428D01*
X75021428Y-54650000D01*
X75250000Y-54678571D02*
X75278571Y-54650000D01*
X75335714Y-54621428D01*
X75478571Y-54621428D01*
X75535714Y-54650000D01*
X75564285Y-54678571D01*
X75592857Y-54735714D01*
X75592857Y-54792857D01*
X75564285Y-54878571D01*
X75221428Y-55221428D01*
X75592857Y-55221428D01*
X75935714Y-54878571D02*
X75878571Y-54850000D01*
X75850000Y-54821428D01*
X75821428Y-54764285D01*
X75821428Y-54735714D01*
X75850000Y-54678571D01*
X75878571Y-54650000D01*
X75935714Y-54621428D01*
X76050000Y-54621428D01*
X76107142Y-54650000D01*
X76135714Y-54678571D01*
X76164285Y-54735714D01*
X76164285Y-54764285D01*
X76135714Y-54821428D01*
X76107142Y-54850000D01*
X76050000Y-54878571D01*
X75935714Y-54878571D01*
X75878571Y-54907142D01*
X75850000Y-54935714D01*
X75821428Y-54992857D01*
X75821428Y-55107142D01*
X75850000Y-55164285D01*
X75878571Y-55192857D01*
X75935714Y-55221428D01*
X76050000Y-55221428D01*
X76107142Y-55192857D01*
X76135714Y-55164285D01*
X76164285Y-55107142D01*
X76164285Y-54992857D01*
X76135714Y-54935714D01*
X76107142Y-54907142D01*
X76050000Y-54878571D01*
X76735714Y-55221428D02*
X76392857Y-55221428D01*
X76564285Y-55221428D02*
X76564285Y-54621428D01*
X76507142Y-54707142D01*
X76450000Y-54764285D01*
X76392857Y-54792857D01*
X76964285Y-54678571D02*
X76992857Y-54650000D01*
X77050000Y-54621428D01*
X77192857Y-54621428D01*
X77250000Y-54650000D01*
X77278571Y-54678571D01*
X77307142Y-54735714D01*
X77307142Y-54792857D01*
X77278571Y-54878571D01*
X76935714Y-55221428D01*
X77307142Y-55221428D01*
X77764285Y-54907142D02*
X77850000Y-54935714D01*
X77878571Y-54964285D01*
X77907142Y-55021428D01*
X77907142Y-55107142D01*
X77878571Y-55164285D01*
X77850000Y-55192857D01*
X77792857Y-55221428D01*
X77564285Y-55221428D01*
X77564285Y-54621428D01*
X77764285Y-54621428D01*
X77821428Y-54650000D01*
X77850000Y-54678571D01*
X77878571Y-54735714D01*
X77878571Y-54792857D01*
X77850000Y-54850000D01*
X77821428Y-54878571D01*
X77764285Y-54907142D01*
X77564285Y-54907142D01*
D11*
X80425714Y-57072379D02*
X79854285Y-57072379D01*
X80140000Y-57072379D02*
X80140000Y-56072379D01*
X80044761Y-56215237D01*
X79949523Y-56310475D01*
X79854285Y-56358094D01*
D10*
%TO.C,D8*%
X47307142Y-37971428D02*
X47307142Y-37371428D01*
X47450000Y-37371428D01*
X47535714Y-37400000D01*
X47592857Y-37457142D01*
X47621428Y-37514285D01*
X47650000Y-37628571D01*
X47650000Y-37714285D01*
X47621428Y-37828571D01*
X47592857Y-37885714D01*
X47535714Y-37942857D01*
X47450000Y-37971428D01*
X47307142Y-37971428D01*
X47992857Y-37628571D02*
X47935714Y-37600000D01*
X47907142Y-37571428D01*
X47878571Y-37514285D01*
X47878571Y-37485714D01*
X47907142Y-37428571D01*
X47935714Y-37400000D01*
X47992857Y-37371428D01*
X48107142Y-37371428D01*
X48164285Y-37400000D01*
X48192857Y-37428571D01*
X48221428Y-37485714D01*
X48221428Y-37514285D01*
X48192857Y-37571428D01*
X48164285Y-37600000D01*
X48107142Y-37628571D01*
X47992857Y-37628571D01*
X47935714Y-37657142D01*
X47907142Y-37685714D01*
X47878571Y-37742857D01*
X47878571Y-37857142D01*
X47907142Y-37914285D01*
X47935714Y-37942857D01*
X47992857Y-37971428D01*
X48107142Y-37971428D01*
X48164285Y-37942857D01*
X48192857Y-37914285D01*
X48221428Y-37857142D01*
X48221428Y-37742857D01*
X48192857Y-37685714D01*
X48164285Y-37657142D01*
X48107142Y-37628571D01*
D12*
%TO.C,D14*%
X86295000Y-39325000D02*
X86295000Y-35265000D01*
X86295000Y-35265000D02*
X84025000Y-35265000D01*
X84025000Y-35265000D02*
X84025000Y-39325000D01*
%TO.C,R18*%
X49027063Y-57450000D02*
X47572935Y-57450000D01*
X49027063Y-55630000D02*
X47572935Y-55630000D01*
%TO.C,U7*%
X55000000Y-55380000D02*
X53100000Y-55380000D01*
X53600000Y-57700000D02*
X55000000Y-57700000D01*
%TO.C,J28*%
X53099999Y-64840000D02*
G75*
G03*
X53099999Y-64840000I-1800000J0D01*
G01*
X52529999Y-72490000D02*
X51669999Y-72490000D01*
X46799999Y-69340000D02*
X50579999Y-69340000D01*
X52099999Y-58840000D02*
X55799999Y-58840000D01*
X52529999Y-72490000D02*
X52529999Y-71690000D01*
X55799999Y-69340000D02*
X55799999Y-58840000D01*
X46799999Y-69340000D02*
X46799999Y-58840000D01*
X52019999Y-69340000D02*
X55799999Y-69340000D01*
X46799999Y-58840000D02*
X50499999Y-58840000D01*
%TO.C,kibuzzard-629F76EE*%
G36*
X24770523Y-39225993D02*
G01*
X24587643Y-39225993D01*
X24987693Y-37991553D01*
X25167716Y-37991553D01*
X24770523Y-39225993D01*
G37*
G36*
X27628023Y-39225993D02*
G01*
X27445143Y-39225993D01*
X27845193Y-37991553D01*
X28025216Y-37991553D01*
X27628023Y-39225993D01*
G37*
G36*
X30344584Y-41008447D02*
G01*
X30164406Y-41008447D01*
X30558544Y-39792250D01*
X30735906Y-39792250D01*
X30344584Y-41008447D01*
G37*
G36*
X21898771Y-41008447D02*
G01*
X21718593Y-41008447D01*
X22112731Y-39792250D01*
X22290093Y-39792250D01*
X21898771Y-41008447D01*
G37*
G36*
X25470611Y-38785938D02*
G01*
X25430606Y-38990249D01*
X25247726Y-38990249D01*
X25272929Y-38887522D01*
X25298246Y-38788510D01*
X25323678Y-38693212D01*
X25338463Y-38640206D01*
X25503472Y-38640206D01*
X25676351Y-38640206D01*
X25659206Y-38548766D01*
X25639917Y-38460898D01*
X25617057Y-38372315D01*
X25590626Y-38277303D01*
X25564194Y-38372315D01*
X25541334Y-38460898D01*
X25521331Y-38548766D01*
X25503472Y-38640206D01*
X25338463Y-38640206D01*
X25349224Y-38601629D01*
X25374884Y-38513761D01*
X25406763Y-38407632D01*
X25438107Y-38304271D01*
X25468914Y-38203678D01*
X25499186Y-38105853D01*
X25690638Y-38105853D01*
X25722026Y-38204482D01*
X25753325Y-38306057D01*
X25784534Y-38410579D01*
X25815654Y-38518048D01*
X25840371Y-38606659D01*
X25864803Y-38698184D01*
X25888949Y-38792625D01*
X25912809Y-38889980D01*
X25936383Y-38990249D01*
X25747788Y-38990249D01*
X25706354Y-38785938D01*
X25470611Y-38785938D01*
G37*
G36*
X28328111Y-38785938D02*
G01*
X28288106Y-38990249D01*
X28105226Y-38990249D01*
X28130429Y-38887522D01*
X28155746Y-38788510D01*
X28181178Y-38693212D01*
X28195963Y-38640206D01*
X28360972Y-38640206D01*
X28533851Y-38640206D01*
X28516706Y-38548766D01*
X28497418Y-38460898D01*
X28474558Y-38372315D01*
X28448126Y-38277303D01*
X28421694Y-38372315D01*
X28398834Y-38460898D01*
X28378831Y-38548766D01*
X28360972Y-38640206D01*
X28195963Y-38640206D01*
X28206724Y-38601629D01*
X28232384Y-38513761D01*
X28264263Y-38407632D01*
X28295607Y-38304271D01*
X28326414Y-38203678D01*
X28356686Y-38105853D01*
X28548138Y-38105853D01*
X28579526Y-38204482D01*
X28610825Y-38306057D01*
X28642034Y-38410579D01*
X28673154Y-38518048D01*
X28697871Y-38606659D01*
X28722303Y-38698184D01*
X28746449Y-38792625D01*
X28770309Y-38889980D01*
X28793883Y-38990249D01*
X28605288Y-38990249D01*
X28563854Y-38785938D01*
X28328111Y-38785938D01*
G37*
G36*
X21462252Y-38093709D02*
G01*
X21532976Y-38111568D01*
X21582267Y-38132999D01*
X21611557Y-38150144D01*
X21565837Y-38290162D01*
X21488684Y-38254443D01*
X21394387Y-38238727D01*
X21288659Y-38261587D01*
X21217936Y-38325166D01*
X21177931Y-38422321D01*
X21168823Y-38481793D01*
X21165787Y-38547337D01*
X21171343Y-38643778D01*
X21188012Y-38721644D01*
X21215793Y-38780938D01*
X21277587Y-38837195D01*
X21362954Y-38855947D01*
X21397244Y-38854518D01*
X21431534Y-38850232D01*
X21431534Y-38527334D01*
X21607271Y-38527334D01*
X21607271Y-38968818D01*
X21509401Y-38994536D01*
X21435999Y-39005251D01*
X21348667Y-39008823D01*
X21269907Y-39001501D01*
X21199362Y-38979534D01*
X21137748Y-38943101D01*
X21085777Y-38892380D01*
X21043986Y-38827372D01*
X21012911Y-38748076D01*
X20993622Y-38654672D01*
X20987193Y-38547337D01*
X20994694Y-38441074D01*
X21017197Y-38348026D01*
X21052558Y-38268552D01*
X21098636Y-38203008D01*
X21154714Y-38151752D01*
X21220079Y-38115140D01*
X21292588Y-38093173D01*
X21370098Y-38085851D01*
X21462252Y-38093709D01*
G37*
G36*
X31463503Y-38093709D02*
G01*
X31534226Y-38111568D01*
X31583518Y-38132999D01*
X31612807Y-38150144D01*
X31567087Y-38290162D01*
X31489934Y-38254443D01*
X31395637Y-38238727D01*
X31289909Y-38261587D01*
X31219186Y-38325166D01*
X31179181Y-38422321D01*
X31170073Y-38481793D01*
X31167037Y-38547337D01*
X31172593Y-38643778D01*
X31189262Y-38721644D01*
X31217043Y-38780938D01*
X31278837Y-38837195D01*
X31364204Y-38855947D01*
X31398494Y-38854518D01*
X31432784Y-38850232D01*
X31432784Y-38527334D01*
X31608521Y-38527334D01*
X31608521Y-38968818D01*
X31510651Y-38994536D01*
X31437249Y-39005251D01*
X31349917Y-39008823D01*
X31271157Y-39001501D01*
X31200613Y-38979534D01*
X31138998Y-38943101D01*
X31087027Y-38892380D01*
X31045236Y-38827372D01*
X31014161Y-38748076D01*
X30994873Y-38654672D01*
X30988443Y-38547337D01*
X30995944Y-38441074D01*
X31018447Y-38348026D01*
X31053808Y-38268552D01*
X31099886Y-38203008D01*
X31155964Y-38151752D01*
X31221329Y-38115140D01*
X31293838Y-38093173D01*
X31371348Y-38085851D01*
X31463503Y-38093709D01*
G37*
G36*
X31034325Y-40574895D02*
G01*
X30994911Y-40776187D01*
X30814734Y-40776187D01*
X30839565Y-40674978D01*
X30864508Y-40577429D01*
X30889564Y-40483540D01*
X30904131Y-40431316D01*
X31066701Y-40431316D01*
X31237025Y-40431316D01*
X31220133Y-40341228D01*
X31201130Y-40254658D01*
X31178608Y-40167385D01*
X31152566Y-40073777D01*
X31126525Y-40167385D01*
X31104003Y-40254658D01*
X31084296Y-40341228D01*
X31066701Y-40431316D01*
X30904131Y-40431316D01*
X30914732Y-40393310D01*
X30940013Y-40306741D01*
X30971421Y-40202180D01*
X31002301Y-40100346D01*
X31032653Y-40001240D01*
X31062478Y-39904861D01*
X31251101Y-39904861D01*
X31282025Y-40002031D01*
X31312861Y-40102106D01*
X31343609Y-40205083D01*
X31374269Y-40310963D01*
X31398621Y-40398265D01*
X31422692Y-40488438D01*
X31446481Y-40581483D01*
X31469988Y-40677399D01*
X31493214Y-40776187D01*
X31307406Y-40776187D01*
X31266585Y-40574895D01*
X31034325Y-40574895D01*
G37*
G36*
X22588512Y-40574895D02*
G01*
X22549098Y-40776187D01*
X22368921Y-40776187D01*
X22393752Y-40674978D01*
X22418695Y-40577429D01*
X22443751Y-40483540D01*
X22458318Y-40431316D01*
X22620888Y-40431316D01*
X22791212Y-40431316D01*
X22774320Y-40341228D01*
X22755317Y-40254658D01*
X22732795Y-40167385D01*
X22706754Y-40073777D01*
X22680712Y-40167385D01*
X22658190Y-40254658D01*
X22638483Y-40341228D01*
X22620888Y-40431316D01*
X22458318Y-40431316D01*
X22468919Y-40393310D01*
X22494201Y-40306741D01*
X22525608Y-40202180D01*
X22556488Y-40100346D01*
X22586841Y-40001240D01*
X22616665Y-39904861D01*
X22805288Y-39904861D01*
X22836212Y-40002031D01*
X22867048Y-40102106D01*
X22897796Y-40205083D01*
X22928456Y-40310963D01*
X22952808Y-40398265D01*
X22976879Y-40488438D01*
X23000668Y-40581483D01*
X23024175Y-40677399D01*
X23047401Y-40776187D01*
X22861593Y-40776187D01*
X22820772Y-40574895D01*
X22588512Y-40574895D01*
G37*
G36*
X29970280Y-38090494D02*
G01*
X30036181Y-38104424D01*
X30138337Y-38145858D01*
X30086902Y-38281589D01*
X30007606Y-38247299D01*
X29906879Y-38233012D01*
X29829092Y-38244283D01*
X29782419Y-38278097D01*
X29766862Y-38334453D01*
X29781149Y-38379459D01*
X29817583Y-38413749D01*
X29867589Y-38440181D01*
X29922596Y-38461612D01*
X30009035Y-38496616D01*
X30091903Y-38548051D01*
X30154053Y-38628061D01*
X30172270Y-38682175D01*
X30178342Y-38748791D01*
X30158161Y-38858983D01*
X30097618Y-38940958D01*
X30034514Y-38978661D01*
X29952838Y-39001283D01*
X29852587Y-39008823D01*
X29753646Y-39002930D01*
X29676851Y-38985249D01*
X29578267Y-38941672D01*
X29629702Y-38798797D01*
X29721856Y-38841659D01*
X29781328Y-38856661D01*
X29852587Y-38861662D01*
X29926168Y-38852375D01*
X29972602Y-38826658D01*
X29996176Y-38789510D01*
X30002606Y-38747362D01*
X29986889Y-38698784D01*
X29946884Y-38660923D01*
X29892592Y-38630919D01*
X29832584Y-38605916D01*
X29749717Y-38573054D01*
X29671850Y-38525906D01*
X29613986Y-38455183D01*
X29591126Y-38350169D01*
X29611307Y-38239441D01*
X29671850Y-38155859D01*
X29732413Y-38116966D01*
X29806470Y-38093629D01*
X29894021Y-38085851D01*
X29970280Y-38090494D01*
G37*
G36*
X23975737Y-39977882D02*
G01*
X23990517Y-40061812D01*
X24008289Y-40152604D01*
X24027819Y-40246212D01*
X24048934Y-40340524D01*
X24071456Y-40433428D01*
X24094506Y-40520877D01*
X24117204Y-40598825D01*
X24139726Y-40521933D01*
X24162249Y-40434835D01*
X24184067Y-40341931D01*
X24204478Y-40247620D01*
X24223481Y-40153836D01*
X24241076Y-40062516D01*
X24256560Y-39978058D01*
X24269229Y-39904861D01*
X24450814Y-39904861D01*
X24431987Y-39994245D01*
X24409289Y-40093484D01*
X24382896Y-40200288D01*
X24352983Y-40312371D01*
X24331165Y-40389322D01*
X24307939Y-40467211D01*
X24283305Y-40546039D01*
X24257655Y-40624475D01*
X24231379Y-40701191D01*
X24204478Y-40776187D01*
X24025708Y-40776187D01*
X23990869Y-40672726D01*
X23953919Y-40556596D01*
X23929050Y-40475031D01*
X23905121Y-40393623D01*
X23882129Y-40312371D01*
X23850105Y-40193954D01*
X23821601Y-40082223D01*
X23798375Y-39983688D01*
X23782187Y-39904861D01*
X23965180Y-39904861D01*
X23975737Y-39977882D01*
G37*
G36*
X28198643Y-39977882D02*
G01*
X28213424Y-40061812D01*
X28231195Y-40152604D01*
X28250726Y-40246212D01*
X28271840Y-40340524D01*
X28294363Y-40433428D01*
X28317413Y-40520877D01*
X28340111Y-40598825D01*
X28362633Y-40521933D01*
X28385155Y-40434835D01*
X28406973Y-40341931D01*
X28427384Y-40247620D01*
X28446387Y-40153836D01*
X28463983Y-40062516D01*
X28479467Y-39978058D01*
X28492135Y-39904861D01*
X28673720Y-39904861D01*
X28654893Y-39994245D01*
X28632195Y-40093484D01*
X28605802Y-40200288D01*
X28575890Y-40312371D01*
X28554071Y-40389322D01*
X28530845Y-40467211D01*
X28506212Y-40546039D01*
X28480561Y-40624475D01*
X28454286Y-40701191D01*
X28427384Y-40776187D01*
X28248614Y-40776187D01*
X28213775Y-40672726D01*
X28176825Y-40556596D01*
X28151957Y-40475031D01*
X28128027Y-40393623D01*
X28105036Y-40312371D01*
X28073012Y-40193954D01*
X28044507Y-40082223D01*
X28021281Y-39983688D01*
X28005093Y-39904861D01*
X28188086Y-39904861D01*
X28198643Y-39977882D01*
G37*
G36*
X22749378Y-38102281D02*
G01*
X22825280Y-38121569D01*
X22891895Y-38154609D01*
X22947438Y-38202294D01*
X22991908Y-38264802D01*
X23025305Y-38342311D01*
X23046200Y-38436073D01*
X23053166Y-38547337D01*
X23045486Y-38661101D01*
X23022447Y-38756649D01*
X22985836Y-38835051D01*
X22937437Y-38897381D01*
X22877965Y-38944351D01*
X22808135Y-38976676D01*
X22729375Y-38995429D01*
X22643114Y-39001679D01*
X22550960Y-38996679D01*
X22454519Y-38980248D01*
X22454519Y-38847374D01*
X22630256Y-38847374D01*
X22645972Y-38848803D01*
X22661688Y-38848803D01*
X22762415Y-38825943D01*
X22828137Y-38763078D01*
X22863856Y-38668066D01*
X22871893Y-38610381D01*
X22874572Y-38547337D01*
X22865999Y-38435894D01*
X22835996Y-38340168D01*
X22777417Y-38273731D01*
X22681691Y-38248728D01*
X22655973Y-38249443D01*
X22630256Y-38253014D01*
X22630256Y-38847374D01*
X22454519Y-38847374D01*
X22454519Y-38117283D01*
X22567391Y-38100138D01*
X22665974Y-38095852D01*
X22749378Y-38102281D01*
G37*
G36*
X27879814Y-40048439D02*
G01*
X27579988Y-40048439D01*
X27572949Y-40142751D01*
X27565911Y-40222986D01*
X27672422Y-40237375D01*
X27759226Y-40265528D01*
X27826324Y-40307444D01*
X27874027Y-40362811D01*
X27902649Y-40431316D01*
X27912190Y-40512959D01*
X27891075Y-40624866D01*
X27826324Y-40714251D01*
X27777408Y-40748034D01*
X27717936Y-40773372D01*
X27647906Y-40789208D01*
X27567319Y-40794486D01*
X27498345Y-40790263D01*
X27430778Y-40779706D01*
X27372361Y-40764926D01*
X27332244Y-40749442D01*
X27367435Y-40605863D01*
X27446262Y-40634016D01*
X27500104Y-40643517D01*
X27565911Y-40646684D01*
X27649666Y-40635423D01*
X27701748Y-40606567D01*
X27727789Y-40566449D01*
X27734827Y-40519997D01*
X27722863Y-40453135D01*
X27675003Y-40401052D01*
X27572949Y-40367269D01*
X27496585Y-40358295D01*
X27399810Y-40355304D01*
X27412479Y-40238294D01*
X27422332Y-40123748D01*
X27429722Y-40012369D01*
X27435001Y-39904861D01*
X27879814Y-39904861D01*
X27879814Y-40048439D01*
G37*
G36*
X24971326Y-39925350D02*
G01*
X25040613Y-39963277D01*
X25091444Y-40018410D01*
X25121943Y-40092780D01*
X25132109Y-40186388D01*
X25121865Y-40280934D01*
X25091132Y-40356242D01*
X25039909Y-40412313D01*
X24969919Y-40451023D01*
X24882880Y-40474249D01*
X24778793Y-40481991D01*
X24716857Y-40481991D01*
X24716857Y-40776187D01*
X24543718Y-40776187D01*
X24543718Y-40331374D01*
X24716857Y-40331374D01*
X24787239Y-40331374D01*
X24860084Y-40323104D01*
X24912518Y-40298295D01*
X24944190Y-40253426D01*
X24954747Y-40184980D01*
X24944366Y-40120053D01*
X24913222Y-40077296D01*
X24864835Y-40053542D01*
X24802723Y-40045624D01*
X24759790Y-40046328D01*
X24716857Y-40049847D01*
X24716857Y-40331374D01*
X24543718Y-40331374D01*
X24543718Y-39916122D01*
X24600727Y-39906268D01*
X24664775Y-39899934D01*
X24728118Y-39896415D01*
X24783016Y-39895007D01*
X24885460Y-39902593D01*
X24971326Y-39925350D01*
G37*
G36*
X25675144Y-39925350D02*
G01*
X25744431Y-39963277D01*
X25795262Y-40018410D01*
X25825761Y-40092780D01*
X25835927Y-40186388D01*
X25825683Y-40280934D01*
X25794949Y-40356242D01*
X25743727Y-40412313D01*
X25673736Y-40451023D01*
X25586698Y-40474249D01*
X25482611Y-40481991D01*
X25420675Y-40481991D01*
X25420675Y-40776187D01*
X25247536Y-40776187D01*
X25247536Y-40331374D01*
X25420675Y-40331374D01*
X25491057Y-40331374D01*
X25563902Y-40323104D01*
X25616336Y-40298295D01*
X25648008Y-40253426D01*
X25658565Y-40184980D01*
X25648184Y-40120053D01*
X25617040Y-40077296D01*
X25568652Y-40053542D01*
X25506541Y-40045624D01*
X25463608Y-40046328D01*
X25420675Y-40049847D01*
X25420675Y-40331374D01*
X25247536Y-40331374D01*
X25247536Y-39916122D01*
X25304545Y-39906268D01*
X25368592Y-39899934D01*
X25431936Y-39896415D01*
X25486834Y-39895007D01*
X25589278Y-39902593D01*
X25675144Y-39925350D01*
G37*
G36*
X21910166Y-38171397D02*
G01*
X21950171Y-38242299D01*
X21989640Y-38315701D01*
X22028037Y-38388746D01*
X22064471Y-38460540D01*
X22098046Y-38530192D01*
X22127871Y-38594486D01*
X22153053Y-38650207D01*
X22153053Y-38105853D01*
X22311644Y-38105853D01*
X22311644Y-38990249D01*
X22170198Y-38990249D01*
X22129002Y-38892221D01*
X22085426Y-38794352D01*
X22039467Y-38696641D01*
X21991128Y-38598931D01*
X21940407Y-38501061D01*
X21887306Y-38403033D01*
X21887306Y-38990249D01*
X21728714Y-38990249D01*
X21728714Y-38105853D01*
X21870161Y-38105853D01*
X21910166Y-38171397D01*
G37*
G36*
X24053291Y-38171397D02*
G01*
X24093296Y-38242299D01*
X24132765Y-38315701D01*
X24171162Y-38388746D01*
X24207596Y-38460540D01*
X24241171Y-38530192D01*
X24270996Y-38594486D01*
X24296178Y-38650207D01*
X24296178Y-38105853D01*
X24454769Y-38105853D01*
X24454769Y-38990249D01*
X24313323Y-38990249D01*
X24272127Y-38892221D01*
X24228551Y-38794352D01*
X24182592Y-38696641D01*
X24134253Y-38598931D01*
X24083532Y-38501061D01*
X24030431Y-38403033D01*
X24030431Y-38990249D01*
X23871839Y-38990249D01*
X23871839Y-38105853D01*
X24013286Y-38105853D01*
X24053291Y-38171397D01*
G37*
G36*
X26910791Y-38171397D02*
G01*
X26950796Y-38242299D01*
X26990265Y-38315701D01*
X27028663Y-38388746D01*
X27065096Y-38460540D01*
X27098671Y-38530192D01*
X27128496Y-38594486D01*
X27153678Y-38650207D01*
X27153678Y-38105853D01*
X27312269Y-38105853D01*
X27312269Y-38990249D01*
X27170823Y-38990249D01*
X27129628Y-38892221D01*
X27086051Y-38794352D01*
X27040093Y-38696641D01*
X26991753Y-38598931D01*
X26941033Y-38501061D01*
X26887931Y-38403033D01*
X26887931Y-38990249D01*
X26729339Y-38990249D01*
X26729339Y-38105853D01*
X26870786Y-38105853D01*
X26910791Y-38171397D01*
G37*
G36*
X30874143Y-38251586D02*
G01*
X30682691Y-38251586D01*
X30682691Y-38844517D01*
X30874143Y-38844517D01*
X30874143Y-38990249D01*
X30312644Y-38990249D01*
X30312644Y-38844517D01*
X30505526Y-38844517D01*
X30505526Y-38251586D01*
X30312644Y-38251586D01*
X30312644Y-38105853D01*
X30874143Y-38105853D01*
X30874143Y-38251586D01*
G37*
G36*
X21192138Y-39969436D02*
G01*
X21231552Y-40039290D01*
X21270438Y-40111607D01*
X21308268Y-40183572D01*
X21344162Y-40254306D01*
X21377242Y-40322928D01*
X21406626Y-40386272D01*
X21431436Y-40441170D01*
X21431436Y-39904861D01*
X21587683Y-39904861D01*
X21587683Y-40776187D01*
X21448327Y-40776187D01*
X21407741Y-40679608D01*
X21364808Y-40583184D01*
X21319529Y-40486918D01*
X21271904Y-40390651D01*
X21221933Y-40294228D01*
X21169616Y-40197649D01*
X21169616Y-40776187D01*
X21013368Y-40776187D01*
X21013368Y-39904861D01*
X21152724Y-39904861D01*
X21192138Y-39969436D01*
G37*
G36*
X29637951Y-39969436D02*
G01*
X29677364Y-40039290D01*
X29716250Y-40111607D01*
X29754081Y-40183572D01*
X29789975Y-40254306D01*
X29823055Y-40322928D01*
X29852439Y-40386272D01*
X29877249Y-40441170D01*
X29877249Y-39904861D01*
X30033496Y-39904861D01*
X30033496Y-40776187D01*
X29894140Y-40776187D01*
X29853553Y-40679608D01*
X29810621Y-40583184D01*
X29765342Y-40486918D01*
X29717717Y-40390651D01*
X29667746Y-40294228D01*
X29615428Y-40197649D01*
X29615428Y-40776187D01*
X29459181Y-40776187D01*
X29459181Y-39904861D01*
X29598537Y-39904861D01*
X29637951Y-39969436D01*
G37*
G36*
X27005672Y-40335597D02*
G01*
X27226671Y-40335597D01*
X27226671Y-40477768D01*
X27005672Y-40477768D01*
X27005672Y-40722697D01*
X26856463Y-40722697D01*
X26856463Y-40477768D01*
X26635464Y-40477768D01*
X26635464Y-40335597D01*
X26856463Y-40335597D01*
X26856463Y-40090668D01*
X27005672Y-40090668D01*
X27005672Y-40335597D01*
G37*
%TO.C,kibuzzard-629F7671*%
G36*
X24130081Y-37220969D02*
G01*
X24208662Y-37240812D01*
X24263431Y-37264625D01*
X24295975Y-37283675D01*
X24245175Y-37439250D01*
X24159450Y-37399562D01*
X24054675Y-37382100D01*
X23937200Y-37407500D01*
X23858619Y-37478144D01*
X23814169Y-37586094D01*
X23804048Y-37652173D01*
X23800675Y-37725000D01*
X23806849Y-37832156D01*
X23825369Y-37918675D01*
X23856237Y-37984556D01*
X23924897Y-38047064D01*
X24019750Y-38067900D01*
X24057850Y-38066313D01*
X24095950Y-38061550D01*
X24095950Y-37702775D01*
X24291212Y-37702775D01*
X24291212Y-38193313D01*
X24182469Y-38221888D01*
X24100911Y-38233794D01*
X24003875Y-38237763D01*
X23916364Y-38229627D01*
X23837981Y-38205219D01*
X23769520Y-38164738D01*
X23711775Y-38108381D01*
X23665341Y-38036150D01*
X23630812Y-37948044D01*
X23609381Y-37844261D01*
X23602237Y-37725000D01*
X23610572Y-37606930D01*
X23635575Y-37503544D01*
X23674866Y-37415239D01*
X23726062Y-37342412D01*
X23788372Y-37285461D01*
X23861000Y-37244781D01*
X23941566Y-37220373D01*
X24027687Y-37212237D01*
X24130081Y-37220969D01*
G37*
G36*
X25560220Y-37230494D02*
G01*
X25644556Y-37251925D01*
X25718573Y-37288636D01*
X25780288Y-37341619D01*
X25829698Y-37411072D01*
X25866806Y-37497194D01*
X25890023Y-37601373D01*
X25897763Y-37725000D01*
X25889230Y-37851405D01*
X25863631Y-37957569D01*
X25822952Y-38044683D01*
X25769175Y-38113938D01*
X25703095Y-38166127D01*
X25625506Y-38202044D01*
X25537995Y-38222880D01*
X25442150Y-38229825D01*
X25339756Y-38224269D01*
X25232600Y-38206013D01*
X25232600Y-38058375D01*
X25427863Y-38058375D01*
X25445325Y-38059963D01*
X25462788Y-38059963D01*
X25574706Y-38034563D01*
X25647731Y-37964713D01*
X25687419Y-37859144D01*
X25696348Y-37795048D01*
X25699325Y-37725000D01*
X25689800Y-37601175D01*
X25656463Y-37494812D01*
X25591375Y-37420994D01*
X25485013Y-37393212D01*
X25456438Y-37394006D01*
X25427863Y-37397975D01*
X25427863Y-38058375D01*
X25232600Y-38058375D01*
X25232600Y-37247162D01*
X25358013Y-37228112D01*
X25467550Y-37223350D01*
X25560220Y-37230494D01*
G37*
G36*
X24627762Y-37307289D02*
G01*
X24672212Y-37386069D01*
X24716067Y-37467627D01*
X24758731Y-37548787D01*
X24799213Y-37628559D01*
X24836519Y-37705950D01*
X24869658Y-37777388D01*
X24897638Y-37839300D01*
X24897638Y-37234462D01*
X25073850Y-37234462D01*
X25073850Y-38217125D01*
X24916688Y-38217125D01*
X24870915Y-38108205D01*
X24822496Y-37999461D01*
X24771431Y-37890894D01*
X24717721Y-37782326D01*
X24661365Y-37673583D01*
X24602362Y-37564662D01*
X24602362Y-38217125D01*
X24426150Y-38217125D01*
X24426150Y-37234462D01*
X24583312Y-37234462D01*
X24627762Y-37307289D01*
G37*
%TO.C,kibuzzard-629F7599*%
G36*
X57403138Y-114534732D02*
G01*
X119436023Y-114534732D01*
X119436023Y-119665268D01*
X55863977Y-119665268D01*
X57142193Y-115404550D01*
X57915768Y-115404550D01*
X57926483Y-115768286D01*
X57939580Y-116145119D01*
X57955654Y-116527309D01*
X57975299Y-116907119D01*
X57998516Y-117283356D01*
X58025305Y-117654831D01*
X58056262Y-118013805D01*
X58091980Y-118352538D01*
X58577755Y-118352538D01*
X58677768Y-118039403D01*
X58787305Y-117700075D01*
X58899224Y-117360747D01*
X59006380Y-117047612D01*
X59111155Y-117369677D01*
X59215930Y-117707219D01*
X59320705Y-118041189D01*
X59425480Y-118352538D01*
X59911255Y-118352538D01*
X59942807Y-118014400D01*
X59970787Y-117657213D01*
X59995194Y-117287523D01*
X60016030Y-116911881D01*
X60030699Y-116599938D01*
X60358930Y-116599938D01*
X60978055Y-116599938D01*
X60978055Y-117423850D01*
X60987580Y-117644116D01*
X61016155Y-117838188D01*
X61147124Y-118145369D01*
X61394774Y-118338250D01*
X61568010Y-118388256D01*
X61778155Y-118404925D01*
X62071049Y-118373969D01*
X62411568Y-118257288D01*
X62335368Y-117785800D01*
X62078193Y-117873906D01*
X61882930Y-117895338D01*
X61637662Y-117797706D01*
X61563843Y-117500050D01*
X61563843Y-117161913D01*
X62725893Y-117161913D01*
X62751028Y-117465125D01*
X62826434Y-117720713D01*
X62952112Y-117928675D01*
X63126472Y-118082133D01*
X63347928Y-118174208D01*
X63616480Y-118204900D01*
X63837937Y-118181088D01*
X64064155Y-118109650D01*
X64064155Y-118200138D01*
X64040343Y-118378731D01*
X63959380Y-118523988D01*
X63802218Y-118621619D01*
X63549805Y-118657338D01*
X63168805Y-118612094D01*
X62878293Y-118514463D01*
X62768755Y-119009763D01*
X63137849Y-119109775D01*
X63334897Y-119141922D01*
X63540280Y-119152638D01*
X63895087Y-119123533D01*
X64178455Y-119036221D01*
X64390387Y-118890700D01*
X64537230Y-118684325D01*
X64625337Y-118414450D01*
X64654705Y-118081075D01*
X64654705Y-117161913D01*
X65107143Y-117161913D01*
X65132278Y-117465125D01*
X65207684Y-117720713D01*
X65333362Y-117928675D01*
X65507722Y-118082133D01*
X65729178Y-118174208D01*
X65997730Y-118204900D01*
X66219187Y-118181088D01*
X66445405Y-118109650D01*
X66445405Y-118200138D01*
X66421593Y-118378731D01*
X66340630Y-118523988D01*
X66183468Y-118621619D01*
X65931055Y-118657338D01*
X65550055Y-118612094D01*
X65259543Y-118514463D01*
X65150005Y-119009763D01*
X65519099Y-119109775D01*
X65716147Y-119141922D01*
X65921530Y-119152638D01*
X66095709Y-119138350D01*
X91443768Y-119138350D01*
X92029555Y-119138350D01*
X92029555Y-118295388D01*
X92264108Y-118377541D01*
X92491518Y-118404925D01*
X92697496Y-118383494D01*
X92877280Y-118319200D01*
X93153505Y-118078694D01*
X93249946Y-117908434D01*
X93320193Y-117707219D01*
X93363055Y-117480405D01*
X93369906Y-117361938D01*
X93805968Y-117361938D01*
X93815493Y-117581013D01*
X93844068Y-117781038D01*
X93984562Y-118112031D01*
X94263168Y-118328725D01*
X94464383Y-118385875D01*
X94715605Y-118404925D01*
X94976948Y-118394209D01*
X95218049Y-118362063D01*
X95265541Y-118352538D01*
X96206268Y-118352538D01*
X96792055Y-118352538D01*
X96792055Y-116595175D01*
X96927787Y-116580887D01*
X97058755Y-116576125D01*
X97349268Y-116714237D01*
X97402846Y-116896403D01*
X97420705Y-117166675D01*
X97420705Y-118352538D01*
X98006493Y-118352538D01*
X98006493Y-117233350D01*
X98497030Y-117233350D01*
X98515485Y-117472666D01*
X98570849Y-117695313D01*
X98665504Y-117895338D01*
X98801830Y-118066788D01*
X98981019Y-118207281D01*
X99204262Y-118314438D01*
X99473938Y-118382303D01*
X99792430Y-118404925D01*
X100015077Y-118397186D01*
X100206768Y-118373969D01*
X100288596Y-118352538D01*
X100968768Y-118352538D01*
X101554555Y-118352538D01*
X101554555Y-116628512D01*
X101680762Y-116595175D01*
X101840305Y-116576125D01*
X102111768Y-116714237D01*
X102165346Y-116896403D01*
X102183205Y-117166675D01*
X102183205Y-118352538D01*
X102768993Y-118352538D01*
X105731268Y-118352538D01*
X106317055Y-118352538D01*
X106317055Y-116595175D01*
X106452787Y-116580887D01*
X106583755Y-116576125D01*
X106874268Y-116714237D01*
X106927846Y-116896403D01*
X106945705Y-117166675D01*
X106945705Y-118352538D01*
X107531493Y-118352538D01*
X107531493Y-117666738D01*
X108022030Y-117666738D01*
X108088705Y-118012019D01*
X108279205Y-118240619D01*
X108576862Y-118366825D01*
X108965005Y-118404925D01*
X109263852Y-118395400D01*
X109531743Y-118366825D01*
X109613383Y-118352538D01*
X110512818Y-118352538D01*
X112270180Y-118352538D01*
X112270180Y-117866763D01*
X111212905Y-117866763D01*
X111334944Y-117687573D01*
X111472462Y-117492906D01*
X111617718Y-117294667D01*
X111762974Y-117104763D01*
X111902873Y-116927955D01*
X112032055Y-116769006D01*
X112174428Y-116599938D01*
X112746430Y-116599938D01*
X113365555Y-116599938D01*
X113365555Y-117423850D01*
X113375080Y-117644116D01*
X113403655Y-117838188D01*
X113534624Y-118145369D01*
X113782274Y-118338250D01*
X113955510Y-118388256D01*
X114165655Y-118404925D01*
X114458549Y-118373969D01*
X114799068Y-118257288D01*
X114792910Y-118219188D01*
X115213405Y-118219188D01*
X115542018Y-118338250D01*
X115768237Y-118388256D01*
X116037318Y-118404925D01*
X116300446Y-118391828D01*
X116518330Y-118352538D01*
X116835037Y-118209663D01*
X116993416Y-118014400D01*
X118132818Y-118014400D01*
X118254262Y-118304913D01*
X118528105Y-118409688D01*
X118801949Y-118304913D01*
X118923393Y-118014400D01*
X118801949Y-117728650D01*
X118528105Y-117623875D01*
X118254262Y-117728650D01*
X118132818Y-118014400D01*
X116993416Y-118014400D01*
X117008868Y-117995350D01*
X117061255Y-117733413D01*
X116989818Y-117435756D01*
X116806462Y-117235731D01*
X116556430Y-117104763D01*
X116289730Y-117009512D01*
X116120662Y-116949981D01*
X115982549Y-116885687D01*
X115887299Y-116811869D01*
X115851580Y-116719000D01*
X115930162Y-116602319D01*
X116232580Y-116547550D01*
X116618343Y-116602319D01*
X116870755Y-116680900D01*
X116961243Y-116185600D01*
X118189968Y-116185600D01*
X118197112Y-116492781D01*
X118218543Y-116752337D01*
X118249499Y-117002369D01*
X118289980Y-117280975D01*
X118775755Y-117280975D01*
X118811474Y-117004750D01*
X118840049Y-116754719D01*
X118859099Y-116492781D01*
X118866243Y-116185600D01*
X118866243Y-115404550D01*
X118189968Y-115404550D01*
X118189968Y-116185600D01*
X116961243Y-116185600D01*
X116635012Y-116090350D01*
X116439154Y-116065347D01*
X116227818Y-116057012D01*
X115993265Y-116070705D01*
X115794430Y-116111781D01*
X115496774Y-116264181D01*
X115325324Y-116488019D01*
X115270555Y-116757100D01*
X115341993Y-117049994D01*
X115522968Y-117242875D01*
X115765855Y-117369081D01*
X116027793Y-117457188D01*
X116201624Y-117514338D01*
X116349262Y-117573869D01*
X116449274Y-117647688D01*
X116484993Y-117752463D01*
X116370693Y-117878669D01*
X116042080Y-117909625D01*
X115658699Y-117852475D01*
X115303893Y-117728650D01*
X115213405Y-118219188D01*
X114792910Y-118219188D01*
X114722868Y-117785800D01*
X114465693Y-117873906D01*
X114270430Y-117895338D01*
X114025162Y-117797706D01*
X113951343Y-117500050D01*
X113951343Y-116114162D01*
X112746430Y-116114162D01*
X112746430Y-116599938D01*
X112174428Y-116599938D01*
X112222555Y-116542787D01*
X112222555Y-116114162D01*
X110560443Y-116114162D01*
X110560443Y-116599938D01*
X111484368Y-116599938D01*
X111260530Y-116899975D01*
X111135515Y-117070830D01*
X111008118Y-117250019D01*
X110879530Y-117435161D01*
X110750943Y-117623875D01*
X110627118Y-117811994D01*
X110512818Y-117995350D01*
X110512818Y-118352538D01*
X109613383Y-118352538D01*
X109912743Y-118300150D01*
X109912743Y-116966650D01*
X109865118Y-116588031D01*
X109707955Y-116302281D01*
X109415062Y-116121306D01*
X109208488Y-116073086D01*
X108955480Y-116057012D01*
X108744740Y-116064752D01*
X108541143Y-116087969D01*
X108231580Y-116157025D01*
X108312543Y-116628512D01*
X108562574Y-116571362D01*
X108884043Y-116547550D01*
X109103118Y-116575530D01*
X109245993Y-116659469D01*
X109350768Y-116938075D01*
X109350768Y-117009512D01*
X109161458Y-116980937D01*
X108945955Y-116971412D01*
X108598293Y-117007131D01*
X108303018Y-117123813D01*
X108098230Y-117338125D01*
X108022030Y-117666738D01*
X107531493Y-117666738D01*
X107531493Y-117090475D01*
X107520777Y-116871995D01*
X107488630Y-116673756D01*
X107343374Y-116349906D01*
X107064768Y-116140356D01*
X106865933Y-116084992D01*
X106621855Y-116066537D01*
X106360513Y-116076062D01*
X106119412Y-116104637D01*
X105906885Y-116143928D01*
X105731268Y-116185600D01*
X105731268Y-118352538D01*
X102768993Y-118352538D01*
X102768993Y-117090475D01*
X102758277Y-116871995D01*
X102726130Y-116673756D01*
X102583255Y-116349906D01*
X102316555Y-116140356D01*
X102129627Y-116084992D01*
X101902218Y-116066537D01*
X101726005Y-116087969D01*
X101554555Y-116133212D01*
X101554555Y-115471225D01*
X113189343Y-115471225D01*
X113296499Y-115742687D01*
X113556055Y-115842700D01*
X113817993Y-115742687D01*
X113927530Y-115471225D01*
X113817993Y-115195000D01*
X113556055Y-115094988D01*
X113296499Y-115195000D01*
X113189343Y-115471225D01*
X101554555Y-115471225D01*
X101554555Y-115047362D01*
X100968768Y-115147375D01*
X100968768Y-118352538D01*
X100288596Y-118352538D01*
X100506805Y-118295388D01*
X100421080Y-117814375D01*
X100147237Y-117876288D01*
X99859105Y-117895338D01*
X99501323Y-117851284D01*
X99266174Y-117719125D01*
X99135801Y-117509575D01*
X99092343Y-117233350D01*
X99130443Y-116966650D01*
X99254268Y-116754719D01*
X99480487Y-116616606D01*
X99830530Y-116566600D01*
X100128187Y-116592794D01*
X100340118Y-116652325D01*
X100468705Y-116180837D01*
X100140093Y-116085588D01*
X99778143Y-116057012D01*
X99467985Y-116080230D01*
X99204262Y-116149881D01*
X98984591Y-116259419D01*
X98806593Y-116402294D01*
X98669671Y-116575530D01*
X98573230Y-116776150D01*
X98516080Y-116997606D01*
X98497030Y-117233350D01*
X98006493Y-117233350D01*
X98006493Y-117090475D01*
X97995777Y-116871995D01*
X97963630Y-116673756D01*
X97818374Y-116349906D01*
X97539768Y-116140356D01*
X97340933Y-116084992D01*
X97096855Y-116066537D01*
X96835513Y-116076062D01*
X96594412Y-116104637D01*
X96381885Y-116143928D01*
X96206268Y-116185600D01*
X96206268Y-118352538D01*
X95265541Y-118352538D01*
X95431766Y-118319200D01*
X95610955Y-118276338D01*
X95610955Y-116114162D01*
X95020405Y-116114162D01*
X95020405Y-117871525D01*
X94753705Y-117895338D01*
X94465574Y-117745319D01*
X94410210Y-117555414D01*
X94391755Y-117285738D01*
X94391755Y-116114162D01*
X93805968Y-116114162D01*
X93805968Y-117361938D01*
X93369906Y-117361938D01*
X93377343Y-117233350D01*
X93346651Y-116899446D01*
X93254576Y-116615283D01*
X93101118Y-116380862D01*
X92889980Y-116206237D01*
X92624868Y-116101462D01*
X92305780Y-116066537D01*
X92075394Y-116074872D01*
X91841437Y-116099875D01*
X91624148Y-116137975D01*
X91443768Y-116185600D01*
X91443768Y-119138350D01*
X66095709Y-119138350D01*
X66276337Y-119123533D01*
X66559705Y-119036221D01*
X66771637Y-118890700D01*
X66907184Y-118700200D01*
X86981305Y-118700200D01*
X87057505Y-119081200D01*
X87303965Y-119030003D01*
X87509943Y-118943088D01*
X87678416Y-118828788D01*
X87812362Y-118695438D01*
X87981430Y-118385875D01*
X88033818Y-118052500D01*
X88005838Y-117847713D01*
X87921899Y-117690550D01*
X87609955Y-117557200D01*
X87302774Y-117676263D01*
X87181330Y-117981063D01*
X87281343Y-118257288D01*
X87562330Y-118400163D01*
X87462318Y-118543038D01*
X87321824Y-118624000D01*
X87155137Y-118666863D01*
X86981305Y-118700200D01*
X66907184Y-118700200D01*
X66918480Y-118684325D01*
X67006587Y-118414450D01*
X67035955Y-118081075D01*
X67035955Y-116185600D01*
X66757084Y-116119454D01*
X66491972Y-116079767D01*
X66240618Y-116066537D01*
X65915709Y-116096700D01*
X65639484Y-116187187D01*
X65411943Y-116338000D01*
X65242609Y-116550196D01*
X65141009Y-116824833D01*
X65107143Y-117161913D01*
X64654705Y-117161913D01*
X64654705Y-116185600D01*
X64375834Y-116119454D01*
X64110722Y-116079767D01*
X63859368Y-116066537D01*
X63534459Y-116096700D01*
X63258234Y-116187187D01*
X63030693Y-116338000D01*
X62861359Y-116550196D01*
X62759759Y-116824833D01*
X62725893Y-117161913D01*
X61563843Y-117161913D01*
X61563843Y-116114162D01*
X60358930Y-116114162D01*
X60358930Y-116599938D01*
X60030699Y-116599938D01*
X60033890Y-116532072D01*
X60049368Y-116149881D01*
X60063655Y-115771858D01*
X60075349Y-115471225D01*
X60801843Y-115471225D01*
X60908999Y-115742687D01*
X61168555Y-115842700D01*
X61430493Y-115742687D01*
X61540030Y-115471225D01*
X61430493Y-115195000D01*
X61168555Y-115094988D01*
X60908999Y-115195000D01*
X60801843Y-115471225D01*
X60075349Y-115471225D01*
X60077943Y-115404550D01*
X59535018Y-115404550D01*
X59536208Y-115690895D01*
X59539780Y-115987956D01*
X59544543Y-116288589D01*
X59549305Y-116585650D01*
X59554068Y-116877948D01*
X59558830Y-117164294D01*
X59562402Y-117438733D01*
X59563593Y-117695313D01*
X59456437Y-117314313D01*
X59356424Y-116966650D01*
X59273080Y-116671375D01*
X59215930Y-116447537D01*
X58787305Y-116447537D01*
X58720630Y-116680900D01*
X58627762Y-117004750D01*
X58522987Y-117361938D01*
X58425355Y-117695313D01*
X58426546Y-117438733D01*
X58430118Y-117164294D01*
X58434880Y-116877353D01*
X58439643Y-116583269D01*
X58444405Y-116285017D01*
X58449168Y-115985575D01*
X58453930Y-115690300D01*
X58458693Y-115404550D01*
X57915768Y-115404550D01*
X57142193Y-115404550D01*
X57240776Y-115075938D01*
X67502680Y-115075938D01*
X67502680Y-115561712D01*
X68121805Y-115561712D01*
X68121805Y-117461950D01*
X68168240Y-117868548D01*
X68307543Y-118164419D01*
X68548049Y-118344798D01*
X68898093Y-118404925D01*
X69162412Y-118385875D01*
X69360055Y-118340631D01*
X69491024Y-118290625D01*
X69555318Y-118257288D01*
X69479118Y-117785800D01*
X69321955Y-117847713D01*
X69026680Y-117895338D01*
X68798080Y-117814375D01*
X68707593Y-117504813D01*
X68707593Y-117252400D01*
X69860118Y-117252400D01*
X69881549Y-117520291D01*
X69945843Y-117752463D01*
X70050022Y-117949511D01*
X70191112Y-118112031D01*
X70367324Y-118239428D01*
X70576874Y-118331106D01*
X70817976Y-118386470D01*
X71088843Y-118404925D01*
X71474605Y-118369206D01*
X71535871Y-118352538D01*
X74775018Y-118352538D01*
X75365568Y-118352538D01*
X75365568Y-117295263D01*
X75563212Y-117511956D01*
X75775143Y-117788181D01*
X75972787Y-118083456D01*
X76122805Y-118352538D01*
X76794318Y-118352538D01*
X77156268Y-118352538D01*
X77742055Y-118352538D01*
X77742055Y-116595175D01*
X77877787Y-116580887D01*
X78008755Y-116576125D01*
X78299268Y-116714237D01*
X78352846Y-116896403D01*
X78370705Y-117166675D01*
X78370705Y-118352538D01*
X78956493Y-118352538D01*
X78956493Y-117228588D01*
X79375593Y-117228588D01*
X79394643Y-117482786D01*
X79451793Y-117711981D01*
X79544066Y-117913792D01*
X79668487Y-118085838D01*
X79822077Y-118225141D01*
X80001862Y-118328725D01*
X80206054Y-118393019D01*
X80432868Y-118414450D01*
X80659682Y-118393019D01*
X80863874Y-118328725D01*
X80938021Y-118285863D01*
X81914005Y-118285863D01*
X82094980Y-118333488D01*
X82314055Y-118371588D01*
X82549799Y-118396591D01*
X82780780Y-118404925D01*
X83023668Y-118384089D01*
X83237980Y-118321581D01*
X83422527Y-118220973D01*
X83424556Y-118219188D01*
X84257155Y-118219188D01*
X84585768Y-118338250D01*
X84811987Y-118388256D01*
X85081068Y-118404925D01*
X85344196Y-118391828D01*
X85562080Y-118352538D01*
X85878787Y-118209663D01*
X86052618Y-117995350D01*
X86105005Y-117733413D01*
X86033568Y-117435756D01*
X85850212Y-117235731D01*
X85600180Y-117104763D01*
X85333480Y-117009512D01*
X85164412Y-116949981D01*
X85026299Y-116885687D01*
X84931049Y-116811869D01*
X84895330Y-116719000D01*
X84973912Y-116602319D01*
X85276330Y-116547550D01*
X85662093Y-116602319D01*
X85914505Y-116680900D01*
X86004993Y-116185600D01*
X85678762Y-116090350D01*
X85482904Y-116065347D01*
X85271568Y-116057012D01*
X85037015Y-116070705D01*
X84838180Y-116111781D01*
X84540524Y-116264181D01*
X84369074Y-116488019D01*
X84314305Y-116757100D01*
X84385743Y-117049994D01*
X84566718Y-117242875D01*
X84809605Y-117369081D01*
X85071543Y-117457188D01*
X85245374Y-117514338D01*
X85393012Y-117573869D01*
X85493024Y-117647688D01*
X85528743Y-117752463D01*
X85414443Y-117878669D01*
X85085830Y-117909625D01*
X84702449Y-117852475D01*
X84347643Y-117728650D01*
X84257155Y-118219188D01*
X83424556Y-118219188D01*
X83576118Y-118085838D01*
X83697562Y-117917364D01*
X83785668Y-117716744D01*
X83839246Y-117487548D01*
X83857105Y-117233350D01*
X83842818Y-116983319D01*
X83799955Y-116757100D01*
X83729113Y-116557670D01*
X83630887Y-116388006D01*
X83352280Y-116149881D01*
X83172496Y-116087373D01*
X82966518Y-116066537D01*
X82737918Y-116087969D01*
X82499793Y-116166550D01*
X82499793Y-115047362D01*
X81914005Y-115147375D01*
X81914005Y-118285863D01*
X80938021Y-118285863D01*
X81043063Y-118225141D01*
X81194868Y-118085838D01*
X81317502Y-117913792D01*
X81409180Y-117711981D01*
X81466330Y-117482786D01*
X81485380Y-117228588D01*
X81466330Y-116977961D01*
X81409180Y-116749956D01*
X81316907Y-116548741D01*
X81192487Y-116378481D01*
X81038896Y-116241559D01*
X80859112Y-116140356D01*
X80656110Y-116077848D01*
X80432868Y-116057012D01*
X80212602Y-116077848D01*
X80009005Y-116140356D01*
X79827435Y-116241559D01*
X79673249Y-116378481D01*
X79548233Y-116548741D01*
X79454174Y-116749956D01*
X79395238Y-116977961D01*
X79375593Y-117228588D01*
X78956493Y-117228588D01*
X78956493Y-117090475D01*
X78945777Y-116871995D01*
X78913630Y-116673756D01*
X78768374Y-116349906D01*
X78489768Y-116140356D01*
X78290933Y-116084992D01*
X78046855Y-116066537D01*
X77785513Y-116076062D01*
X77544412Y-116104637D01*
X77331885Y-116143928D01*
X77156268Y-116185600D01*
X77156268Y-118352538D01*
X76794318Y-118352538D01*
X76615724Y-118047738D01*
X76498447Y-117876288D01*
X76370455Y-117704838D01*
X76235915Y-117536364D01*
X76098993Y-117373844D01*
X75841818Y-117100000D01*
X76053749Y-116871400D01*
X76287112Y-116614225D01*
X76513330Y-116352287D01*
X76708593Y-116114162D01*
X76003743Y-116114162D01*
X75870393Y-116326094D01*
X75710849Y-116557075D01*
X75539399Y-116788056D01*
X75365568Y-116999987D01*
X75365568Y-115047362D01*
X74775018Y-115147375D01*
X74775018Y-118352538D01*
X71535871Y-118352538D01*
X71798455Y-118281100D01*
X71717493Y-117781038D01*
X71448412Y-117857238D01*
X71112655Y-117895338D01*
X70853099Y-117863786D01*
X70645930Y-117769131D01*
X70510199Y-117619708D01*
X70464955Y-117423850D01*
X71917518Y-117423850D01*
X71924662Y-117323838D01*
X71927043Y-117204775D01*
X71898468Y-116860023D01*
X71812743Y-116575067D01*
X71669868Y-116349906D01*
X71471959Y-116187187D01*
X71221134Y-116089556D01*
X70917393Y-116057012D01*
X70719749Y-116076062D01*
X70526868Y-116133212D01*
X70347083Y-116227867D01*
X70188730Y-116359431D01*
X70055380Y-116527905D01*
X69950605Y-116733287D01*
X69882740Y-116974984D01*
X69860118Y-117252400D01*
X68707593Y-117252400D01*
X68707593Y-115075938D01*
X67502680Y-115075938D01*
X57240776Y-115075938D01*
X57403138Y-114534732D01*
G37*
G36*
X80638251Y-116612439D02*
G01*
X80778149Y-116749956D01*
X80858516Y-116962483D01*
X80885305Y-117233350D01*
X80856135Y-117504813D01*
X80768624Y-117719125D01*
X80623963Y-117858428D01*
X80423343Y-117904863D01*
X80217960Y-117858428D01*
X80078062Y-117719125D01*
X79997694Y-117504813D01*
X79970905Y-117233350D01*
X80000076Y-116962483D01*
X80087587Y-116749956D01*
X80232247Y-116612439D01*
X80432868Y-116566600D01*
X80638251Y-116612439D01*
G37*
G36*
X83030216Y-116613034D02*
G01*
X83159399Y-116738050D01*
X83236194Y-116941647D01*
X83261793Y-117219063D01*
X83228455Y-117536364D01*
X83128443Y-117745319D01*
X82971280Y-117861405D01*
X82766493Y-117900100D01*
X82640287Y-117895338D01*
X82499793Y-117876288D01*
X82499793Y-116661850D01*
X82659337Y-116597556D01*
X82847455Y-116571362D01*
X83030216Y-116613034D01*
G37*
G36*
X92512949Y-116614820D02*
G01*
X92662968Y-116759481D01*
X92752265Y-116979152D01*
X92782030Y-117252400D01*
X92757027Y-117526839D01*
X92682018Y-117731031D01*
X92554621Y-117857833D01*
X92372455Y-117900100D01*
X92181955Y-117876288D01*
X92029555Y-117814375D01*
X92029555Y-116585650D01*
X92158143Y-116573744D01*
X92301018Y-116566600D01*
X92512949Y-116614820D01*
G37*
G36*
X63945093Y-116547550D02*
G01*
X64064155Y-116566600D01*
X64064155Y-117642925D01*
X63914137Y-117704838D01*
X63735543Y-117728650D01*
X63421218Y-117583394D01*
X63346208Y-117405395D01*
X63321205Y-117161913D01*
X63378355Y-116817954D01*
X63549805Y-116611579D01*
X63835555Y-116542787D01*
X63945093Y-116547550D01*
G37*
G36*
X66326343Y-116547550D02*
G01*
X66445405Y-116566600D01*
X66445405Y-117642925D01*
X66295387Y-117704838D01*
X66116793Y-117728650D01*
X65802468Y-117583394D01*
X65727458Y-117405395D01*
X65702455Y-117161913D01*
X65759605Y-116817954D01*
X65931055Y-116611579D01*
X66216805Y-116542787D01*
X66326343Y-116547550D01*
G37*
G36*
X71126943Y-116588031D02*
G01*
X71260293Y-116695187D01*
X71336493Y-116845206D01*
X71360305Y-117019037D01*
X70464955Y-117019037D01*
X70505437Y-116842825D01*
X70591162Y-116690425D01*
X70729274Y-116585650D01*
X70926918Y-116547550D01*
X71126943Y-116588031D01*
G37*
G36*
X109212655Y-117388131D02*
G01*
X109350768Y-117404800D01*
X109350768Y-117919150D01*
X109193605Y-117931056D01*
X109007868Y-117933438D01*
X108712593Y-117869144D01*
X108598293Y-117652450D01*
X108636393Y-117514338D01*
X108738787Y-117433375D01*
X108888805Y-117392894D01*
X109065018Y-117380988D01*
X109212655Y-117388131D01*
G37*
%TO.C,RV3*%
X55890000Y-106512500D02*
X55360000Y-106512500D01*
X51810000Y-97982500D02*
X51810000Y-94922500D01*
X61550000Y-97982500D02*
X61550000Y-94922500D01*
X52990000Y-106512500D02*
X51810000Y-106512500D01*
X51800000Y-106512500D02*
X51800000Y-101792500D01*
X58340000Y-106512500D02*
X57510000Y-106512500D01*
X61550000Y-94922500D02*
X51810000Y-94922500D01*
X61550000Y-106512500D02*
X61550000Y-101792500D01*
X61550000Y-106512500D02*
X60060000Y-106512500D01*
%TO.C,D23*%
X59430000Y-96742500D02*
X59430000Y-104042500D01*
X53930000Y-104042500D02*
X55080000Y-104042500D01*
X53930000Y-96742500D02*
X53930000Y-104042500D01*
%TO.C,J4*%
X59180000Y-82317500D02*
X55400000Y-82317500D01*
X53450000Y-79167500D02*
X53450000Y-79967500D01*
X53960000Y-82317500D02*
X50180000Y-82317500D01*
X53880000Y-92817500D02*
X50180000Y-92817500D01*
X59180000Y-82317500D02*
X59180000Y-92817500D01*
X53450000Y-79167500D02*
X54310000Y-79167500D01*
X59180000Y-92817500D02*
X55480000Y-92817500D01*
X50180000Y-82317500D02*
X50180000Y-92817500D01*
X56480000Y-86817500D02*
G75*
G03*
X56480000Y-86817500I-1800000J0D01*
G01*
%TO.C,D24*%
X67930000Y-104042500D02*
X69080000Y-104042500D01*
X67930000Y-96742500D02*
X67930000Y-104042500D01*
X73430000Y-96742500D02*
X73430000Y-104042500D01*
%TO.C,R5*%
X61520000Y-92119564D02*
X61520000Y-90665436D01*
X63340000Y-92119564D02*
X63340000Y-90665436D01*
%TO.C,U2*%
X71680000Y-88832500D02*
X68230000Y-88832500D01*
X71680000Y-93952500D02*
X73630000Y-93952500D01*
X71680000Y-93952500D02*
X69730000Y-93952500D01*
X71680000Y-88832500D02*
X73630000Y-88832500D01*
%TO.C,R6*%
X64657064Y-85482500D02*
X63202936Y-85482500D01*
X64657064Y-87302500D02*
X63202936Y-87302500D01*
%TO.C,C2*%
X70718748Y-87302500D02*
X72141252Y-87302500D01*
X70718748Y-85482500D02*
X72141252Y-85482500D01*
%TO.C,RV4*%
X75550000Y-97982500D02*
X75550000Y-94922500D01*
X69890000Y-106512500D02*
X69360000Y-106512500D01*
X75550000Y-94922500D02*
X65810000Y-94922500D01*
X66990000Y-106512500D02*
X65810000Y-106512500D01*
X65810000Y-97982500D02*
X65810000Y-94922500D01*
X65800000Y-106512500D02*
X65800000Y-101792500D01*
X72340000Y-106512500D02*
X71510000Y-106512500D01*
X75550000Y-106512500D02*
X75550000Y-101792500D01*
X75550000Y-106512500D02*
X74060000Y-106512500D01*
%TO.C,R4*%
X65020000Y-90715436D02*
X65020000Y-92169564D01*
X66840000Y-90715436D02*
X66840000Y-92169564D01*
%TO.C,D22*%
X98429999Y-103790000D02*
X99579999Y-103790000D01*
X103929999Y-96490000D02*
X103929999Y-103790000D01*
X98429999Y-96490000D02*
X98429999Y-103790000D01*
%TO.C,J2*%
X89680000Y-82064999D02*
X89680000Y-92564999D01*
X83950000Y-78914999D02*
X83950000Y-79714999D01*
X83950000Y-78914999D02*
X84810000Y-78914999D01*
X84460000Y-82064999D02*
X80680000Y-82064999D01*
X80680000Y-82064999D02*
X80680000Y-92564999D01*
X89680000Y-82064999D02*
X85900000Y-82064999D01*
X84380000Y-92564999D02*
X80680000Y-92564999D01*
X89680000Y-92564999D02*
X85980000Y-92564999D01*
X86980000Y-86564999D02*
G75*
G03*
X86980000Y-86564999I-1800000J0D01*
G01*
%TO.C,C1*%
X101218748Y-87050000D02*
X102641252Y-87050000D01*
X101218748Y-85230000D02*
X102641252Y-85230000D01*
%TO.C,U1*%
X102179999Y-93700000D02*
X100229999Y-93700000D01*
X102179999Y-88580000D02*
X98729999Y-88580000D01*
X102179999Y-93700000D02*
X104129999Y-93700000D01*
X102179999Y-88580000D02*
X104129999Y-88580000D01*
%TO.C,RV2*%
X100389999Y-106260000D02*
X99859999Y-106260000D01*
X96309999Y-97730000D02*
X96309999Y-94670000D01*
X97489999Y-106260000D02*
X96309999Y-106260000D01*
X102839999Y-106260000D02*
X102009999Y-106260000D01*
X106049999Y-97730000D02*
X106049999Y-94670000D01*
X106049999Y-106260000D02*
X104559999Y-106260000D01*
X96299999Y-106260000D02*
X96299999Y-101540000D01*
X106049999Y-106260000D02*
X106049999Y-101540000D01*
X106049999Y-94670000D02*
X96309999Y-94670000D01*
%TO.C,R2*%
X93840000Y-91867064D02*
X93840000Y-90412936D01*
X92020000Y-91867064D02*
X92020000Y-90412936D01*
%TO.C,D21*%
X89930000Y-96490000D02*
X89930000Y-103790000D01*
X84430000Y-103790000D02*
X85580000Y-103790000D01*
X84430000Y-96490000D02*
X84430000Y-103790000D01*
%TO.C,R3*%
X95157064Y-85230000D02*
X93702936Y-85230000D01*
X95157064Y-87050000D02*
X93702936Y-87050000D01*
%TO.C,RV1*%
X86390000Y-106260000D02*
X85860000Y-106260000D01*
X88840000Y-106260000D02*
X88010000Y-106260000D01*
X83490000Y-106260000D02*
X82310000Y-106260000D01*
X92050000Y-106260000D02*
X92050000Y-101540000D01*
X82310000Y-97730000D02*
X82310000Y-94670000D01*
X82300000Y-106260000D02*
X82300000Y-101540000D01*
X92050000Y-94670000D02*
X82310000Y-94670000D01*
X92050000Y-106260000D02*
X90560000Y-106260000D01*
X92050000Y-97730000D02*
X92050000Y-94670000D01*
%TO.C,R1*%
X97339999Y-90462936D02*
X97339999Y-91917064D01*
X95519999Y-90462936D02*
X95519999Y-91917064D01*
%TO.C,U3*%
X21260000Y-109285000D02*
X46660000Y-109285000D01*
X46660000Y-109285000D02*
X46660000Y-83885000D01*
X46660000Y-83885000D02*
X21260000Y-83885000D01*
X21260000Y-83885000D02*
X21260000Y-109285000D01*
%TO.C,R12*%
X29090000Y-36997936D02*
X29090000Y-38452064D01*
X30910000Y-36997936D02*
X30910000Y-38452064D01*
%TO.C,R14*%
X43410000Y-36997936D02*
X43410000Y-38452064D01*
X41590000Y-36997936D02*
X41590000Y-38452064D01*
%TO.C,U5*%
X67500000Y-55380000D02*
X65600000Y-55380000D01*
X66100000Y-57700000D02*
X67500000Y-57700000D01*
%TO.C,J20*%
X37780000Y-23925000D02*
X34000000Y-23925000D01*
X37700000Y-34425000D02*
X34000000Y-34425000D01*
X37270000Y-20775000D02*
X38130000Y-20775000D01*
X34000000Y-23925000D02*
X34000000Y-34425000D01*
X43000000Y-23925000D02*
X43000000Y-34425000D01*
X37270000Y-20775000D02*
X37270000Y-21575000D01*
X43000000Y-23925000D02*
X39220000Y-23925000D01*
X43000000Y-34425000D02*
X39300000Y-34425000D01*
X40300000Y-28425000D02*
G75*
G03*
X40300000Y-28425000I-1800000J0D01*
G01*
%TO.C,D10*%
X109025000Y-35265000D02*
X109025000Y-39325000D01*
X111295000Y-35265000D02*
X109025000Y-35265000D01*
X111295000Y-39325000D02*
X111295000Y-35265000D01*
%TO.C,D9*%
X112365000Y-40185000D02*
X114635000Y-40185000D01*
X112365000Y-36125000D02*
X112365000Y-40185000D01*
X114635000Y-40185000D02*
X114635000Y-36125000D01*
%TO.C,R9*%
X104090000Y-36997936D02*
X104090000Y-38452064D01*
X105910000Y-36997936D02*
X105910000Y-38452064D01*
%TO.C,U4*%
X42500000Y-55380000D02*
X40600000Y-55380000D01*
X41100000Y-57700000D02*
X42500000Y-57700000D01*
%TO.C,D19*%
X79640000Y-67270000D02*
X72340000Y-67270000D01*
X72340000Y-67270000D02*
X72340000Y-68420000D01*
X79640000Y-72770000D02*
X72340000Y-72770000D01*
%TO.C,J26*%
X21799999Y-69340000D02*
X21799999Y-58840000D01*
X30799999Y-69340000D02*
X30799999Y-58840000D01*
X21799999Y-58840000D02*
X25499999Y-58840000D01*
X27019999Y-69340000D02*
X30799999Y-69340000D01*
X21799999Y-69340000D02*
X25579999Y-69340000D01*
X27099999Y-58840000D02*
X30799999Y-58840000D01*
X27529999Y-72490000D02*
X27529999Y-71690000D01*
X27529999Y-72490000D02*
X26669999Y-72490000D01*
X28099999Y-64840000D02*
G75*
G03*
X28099999Y-64840000I-1800000J0D01*
G01*
%TO.C,J11*%
X55500000Y-34425000D02*
X51800000Y-34425000D01*
X50280000Y-23925000D02*
X46500000Y-23925000D01*
X49770000Y-20775000D02*
X49770000Y-21575000D01*
X50200000Y-34425000D02*
X46500000Y-34425000D01*
X46500000Y-23925000D02*
X46500000Y-34425000D01*
X55500000Y-23925000D02*
X51720000Y-23925000D01*
X49770000Y-20775000D02*
X50630000Y-20775000D01*
X55500000Y-23925000D02*
X55500000Y-34425000D01*
X52800000Y-28425000D02*
G75*
G03*
X52800000Y-28425000I-1800000J0D01*
G01*
%TO.C,RV8*%
X104110000Y-59900000D02*
X99390000Y-59900000D01*
X92520000Y-50150000D02*
X92520000Y-59890000D01*
X104110000Y-53360000D02*
X104110000Y-54190000D01*
X104110000Y-55810000D02*
X104110000Y-56340000D01*
X104110000Y-50150000D02*
X99390000Y-50150000D01*
X95580000Y-59890000D02*
X92520000Y-59890000D01*
X104110000Y-50150000D02*
X104110000Y-51640000D01*
X95580000Y-50150000D02*
X92520000Y-50150000D01*
X104110000Y-58710000D02*
X104110000Y-59890000D01*
%TO.C,R13*%
X93410000Y-36997936D02*
X93410000Y-38452064D01*
X91590000Y-36997936D02*
X91590000Y-38452064D01*
%TO.C,J17*%
X93000000Y-23925000D02*
X89220000Y-23925000D01*
X87270000Y-20775000D02*
X88130000Y-20775000D01*
X93000000Y-34425000D02*
X89300000Y-34425000D01*
X87780000Y-23925000D02*
X84000000Y-23925000D01*
X87270000Y-20775000D02*
X87270000Y-21575000D01*
X84000000Y-23925000D02*
X84000000Y-34425000D01*
X93000000Y-23925000D02*
X93000000Y-34425000D01*
X87700000Y-34425000D02*
X84000000Y-34425000D01*
X90300000Y-28425000D02*
G75*
G03*
X90300000Y-28425000I-1800000J0D01*
G01*
%TO.C,J7*%
X62780000Y-23925000D02*
X59000000Y-23925000D01*
X62700000Y-34425000D02*
X59000000Y-34425000D01*
X68000000Y-34425000D02*
X64300000Y-34425000D01*
X68000000Y-23925000D02*
X64220000Y-23925000D01*
X62270000Y-20775000D02*
X62270000Y-21575000D01*
X68000000Y-23925000D02*
X68000000Y-34425000D01*
X62270000Y-20775000D02*
X63130000Y-20775000D01*
X59000000Y-23925000D02*
X59000000Y-34425000D01*
X65300000Y-28425000D02*
G75*
G03*
X65300000Y-28425000I-1800000J0D01*
G01*
%TO.C,D7*%
X49865000Y-36125000D02*
X49865000Y-40185000D01*
X49865000Y-40185000D02*
X52135000Y-40185000D01*
X52135000Y-40185000D02*
X52135000Y-36125000D01*
%TO.C,R8*%
X66590000Y-36997936D02*
X66590000Y-38452064D01*
X68410000Y-36997936D02*
X68410000Y-38452064D01*
%TO.C,R10*%
X54090000Y-36997936D02*
X54090000Y-38452064D01*
X55910000Y-36997936D02*
X55910000Y-38452064D01*
%TO.C,D4*%
X59025000Y-35265000D02*
X59025000Y-39325000D01*
X61295000Y-39325000D02*
X61295000Y-35265000D01*
X61295000Y-35265000D02*
X59025000Y-35265000D01*
%TO.C,D2*%
X73795000Y-35265000D02*
X71525000Y-35265000D01*
X71525000Y-35265000D02*
X71525000Y-39325000D01*
X73795000Y-39325000D02*
X73795000Y-35265000D01*
%TO.C,D11*%
X27135000Y-40185000D02*
X27135000Y-36125000D01*
X24865000Y-36125000D02*
X24865000Y-40185000D01*
X24865000Y-40185000D02*
X27135000Y-40185000D01*
%TO.C,RV5*%
X92520000Y-65150000D02*
X92520000Y-74890000D01*
X104110000Y-70810000D02*
X104110000Y-71340000D01*
X104110000Y-68360000D02*
X104110000Y-69190000D01*
X104110000Y-73710000D02*
X104110000Y-74890000D01*
X104110000Y-65150000D02*
X104110000Y-66640000D01*
X104110000Y-65150000D02*
X99390000Y-65150000D01*
X104110000Y-74900000D02*
X99390000Y-74900000D01*
X95580000Y-74890000D02*
X92520000Y-74890000D01*
X95580000Y-65150000D02*
X92520000Y-65150000D01*
%TO.C,D12*%
X23795000Y-35265000D02*
X21525000Y-35265000D01*
X21525000Y-35265000D02*
X21525000Y-39325000D01*
X23795000Y-39325000D02*
X23795000Y-35265000D01*
%TO.C,D3*%
X62365000Y-40185000D02*
X64635000Y-40185000D01*
X64635000Y-40185000D02*
X64635000Y-36125000D01*
X62365000Y-36125000D02*
X62365000Y-40185000D01*
%TO.C,RV6*%
X70520000Y-50150000D02*
X70520000Y-59890000D01*
X82110000Y-50150000D02*
X77390000Y-50150000D01*
X82110000Y-53360000D02*
X82110000Y-54190000D01*
X82110000Y-55810000D02*
X82110000Y-56340000D01*
X73580000Y-59890000D02*
X70520000Y-59890000D01*
X82110000Y-50150000D02*
X82110000Y-51640000D01*
X82110000Y-58710000D02*
X82110000Y-59890000D01*
X82110000Y-59900000D02*
X77390000Y-59900000D01*
X73580000Y-50150000D02*
X70520000Y-50150000D01*
%TO.C,RV7*%
X82110000Y-65150000D02*
X77390000Y-65150000D01*
X82110000Y-74900000D02*
X77390000Y-74900000D01*
X82110000Y-68360000D02*
X82110000Y-69190000D01*
X82110000Y-65150000D02*
X82110000Y-66640000D01*
X73580000Y-74890000D02*
X70520000Y-74890000D01*
X82110000Y-73710000D02*
X82110000Y-74890000D01*
X70520000Y-65150000D02*
X70520000Y-74890000D01*
X82110000Y-70810000D02*
X82110000Y-71340000D01*
X73580000Y-65150000D02*
X70520000Y-65150000D01*
%TO.C,D1*%
X74865000Y-36125000D02*
X74865000Y-40185000D01*
X77135000Y-40185000D02*
X77135000Y-36125000D01*
X74865000Y-40185000D02*
X77135000Y-40185000D01*
%TO.C,J5*%
X75280000Y-23925000D02*
X71500000Y-23925000D01*
X75200000Y-34425000D02*
X71500000Y-34425000D01*
X80500000Y-23925000D02*
X76720000Y-23925000D01*
X71500000Y-23925000D02*
X71500000Y-34425000D01*
X74770000Y-20775000D02*
X74770000Y-21575000D01*
X80500000Y-34425000D02*
X76800000Y-34425000D01*
X80500000Y-23925000D02*
X80500000Y-34425000D01*
X74770000Y-20775000D02*
X75630000Y-20775000D01*
X77800000Y-28425000D02*
G75*
G03*
X77800000Y-28425000I-1800000J0D01*
G01*
%TO.C,J13*%
X118000000Y-23925000D02*
X114220000Y-23925000D01*
X112700000Y-34425000D02*
X109000000Y-34425000D01*
X112270000Y-20775000D02*
X113130000Y-20775000D01*
X118000000Y-34425000D02*
X114300000Y-34425000D01*
X112780000Y-23925000D02*
X109000000Y-23925000D01*
X118000000Y-23925000D02*
X118000000Y-34425000D01*
X112270000Y-20775000D02*
X112270000Y-21575000D01*
X109000000Y-23925000D02*
X109000000Y-34425000D01*
X115300000Y-28425000D02*
G75*
G03*
X115300000Y-28425000I-1800000J0D01*
G01*
%TO.C,R15*%
X36527063Y-57450000D02*
X35072935Y-57450000D01*
X36527063Y-55630000D02*
X35072935Y-55630000D01*
%TO.C,R11*%
X116590000Y-36997936D02*
X116590000Y-38452064D01*
X118410000Y-36997936D02*
X118410000Y-38452064D01*
%TO.C,D16*%
X36295000Y-39325000D02*
X36295000Y-35265000D01*
X36295000Y-35265000D02*
X34025000Y-35265000D01*
X34025000Y-35265000D02*
X34025000Y-39325000D01*
%TO.C,J22*%
X34299999Y-69340000D02*
X34299999Y-58840000D01*
X43299999Y-69340000D02*
X43299999Y-58840000D01*
X34299999Y-69340000D02*
X38079999Y-69340000D01*
X39599999Y-58840000D02*
X43299999Y-58840000D01*
X40029999Y-72490000D02*
X40029999Y-71690000D01*
X34299999Y-58840000D02*
X37999999Y-58840000D01*
X39519999Y-69340000D02*
X43299999Y-69340000D01*
X40029999Y-72490000D02*
X39169999Y-72490000D01*
X40599999Y-64840000D02*
G75*
G03*
X40599999Y-64840000I-1800000J0D01*
G01*
%TO.C,R17*%
X24027063Y-57450000D02*
X22572935Y-57450000D01*
X24027063Y-55630000D02*
X22572935Y-55630000D01*
%TO.C,R16*%
X61527063Y-57450000D02*
X60072935Y-57450000D01*
X61527063Y-55630000D02*
X60072935Y-55630000D01*
%TO.C,D5*%
X99865000Y-36125000D02*
X99865000Y-40185000D01*
X99865000Y-40185000D02*
X102135000Y-40185000D01*
X102135000Y-40185000D02*
X102135000Y-36125000D01*
%TO.C,J33*%
X24000000Y-81330000D02*
X22670000Y-81330000D01*
X22670000Y-76130000D02*
X43110000Y-76130000D01*
X25270000Y-81330000D02*
X43110000Y-81330000D01*
X25270000Y-81330000D02*
X25270000Y-78730000D01*
X22670000Y-78730000D02*
X22670000Y-76130000D01*
X43110000Y-81330000D02*
X43110000Y-76130000D01*
X25270000Y-78730000D02*
X22670000Y-78730000D01*
X22670000Y-81330000D02*
X22670000Y-80000000D01*
%TO.C,J37*%
X35160000Y-127037500D02*
X22840000Y-127037500D01*
X22840000Y-110317500D02*
X22840000Y-114577500D01*
X22840000Y-127037500D02*
X22840000Y-118677500D01*
X35160000Y-118677500D02*
X35160000Y-127037500D01*
X30750000Y-109597500D02*
X29750000Y-109597500D01*
X29750000Y-109597500D02*
X30250000Y-110097500D01*
X35160000Y-110317500D02*
X22840000Y-110317500D01*
X35160000Y-114577500D02*
X35160000Y-110317500D01*
X30250000Y-110097500D02*
X30750000Y-109597500D01*
%TO.C,D15*%
X37365000Y-36125000D02*
X37365000Y-40185000D01*
X39635000Y-40185000D02*
X39635000Y-36125000D01*
X37365000Y-40185000D02*
X39635000Y-40185000D01*
%TO.C,J24*%
X65029999Y-72490000D02*
X64169999Y-72490000D01*
X59299999Y-58840000D02*
X62999999Y-58840000D01*
X59299999Y-69340000D02*
X59299999Y-58840000D01*
X68299999Y-69340000D02*
X68299999Y-58840000D01*
X64599999Y-58840000D02*
X68299999Y-58840000D01*
X59299999Y-69340000D02*
X63079999Y-69340000D01*
X65029999Y-72490000D02*
X65029999Y-71690000D01*
X64519999Y-69340000D02*
X68299999Y-69340000D01*
X65599999Y-64840000D02*
G75*
G03*
X65599999Y-64840000I-1800000J0D01*
G01*
%TO.C,D13*%
X89635000Y-40185000D02*
X89635000Y-36125000D01*
X87365000Y-40185000D02*
X89635000Y-40185000D01*
X87365000Y-36125000D02*
X87365000Y-40185000D01*
%TO.C,R7*%
X80910000Y-36997936D02*
X80910000Y-38452064D01*
X79090000Y-36997936D02*
X79090000Y-38452064D01*
%TO.C,U6*%
X28600000Y-57700000D02*
X30000000Y-57700000D01*
X30000000Y-55380000D02*
X28100000Y-55380000D01*
%TO.C,D17*%
X94340000Y-67270000D02*
X94340000Y-68420000D01*
X101640000Y-67270000D02*
X94340000Y-67270000D01*
X101640000Y-72770000D02*
X94340000Y-72770000D01*
%TO.C,J15*%
X21500000Y-23925000D02*
X21500000Y-34425000D01*
X25280000Y-23925000D02*
X21500000Y-23925000D01*
X30500000Y-34425000D02*
X26800000Y-34425000D01*
X24770000Y-20775000D02*
X25630000Y-20775000D01*
X30500000Y-23925000D02*
X26720000Y-23925000D01*
X30500000Y-23925000D02*
X30500000Y-34425000D01*
X25200000Y-34425000D02*
X21500000Y-34425000D01*
X24770000Y-20775000D02*
X24770000Y-21575000D01*
X27800000Y-28425000D02*
G75*
G03*
X27800000Y-28425000I-1800000J0D01*
G01*
%TO.C,J9*%
X100200000Y-34425000D02*
X96500000Y-34425000D01*
X99770000Y-20775000D02*
X99770000Y-21575000D01*
X105500000Y-23925000D02*
X105500000Y-34425000D01*
X105500000Y-23925000D02*
X101720000Y-23925000D01*
X100280000Y-23925000D02*
X96500000Y-23925000D01*
X99770000Y-20775000D02*
X100630000Y-20775000D01*
X105500000Y-34425000D02*
X101800000Y-34425000D01*
X96500000Y-23925000D02*
X96500000Y-34425000D01*
X102800000Y-28425000D02*
G75*
G03*
X102800000Y-28425000I-1800000J0D01*
G01*
%TO.C,D20*%
X101640000Y-52270000D02*
X94340000Y-52270000D01*
X101640000Y-57770000D02*
X94340000Y-57770000D01*
X94340000Y-52270000D02*
X94340000Y-53420000D01*
%TO.C,D6*%
X96525000Y-35265000D02*
X96525000Y-39325000D01*
X98795000Y-35265000D02*
X96525000Y-35265000D01*
X98795000Y-39325000D02*
X98795000Y-35265000D01*
%TO.C,D18*%
X79640000Y-52270000D02*
X72340000Y-52270000D01*
X79640000Y-57770000D02*
X72340000Y-57770000D01*
X72340000Y-52270000D02*
X72340000Y-53420000D01*
%TO.C,D8*%
X48795000Y-35265000D02*
X46525000Y-35265000D01*
X48795000Y-39325000D02*
X48795000Y-35265000D01*
X46525000Y-35265000D02*
X46525000Y-39325000D01*
%TD*%
M02*
