M48
; DRILL file {KiCad (6.0.4)} date Fri Jun  3 20:27:33 2022
; FORMAT={-:-/ absolute / inch / decimal}
; #@! TF.CreationDate,2022-06-03T20:27:33+02:00
; #@! TF.GenerationSoftware,Kicad,Pcbnew,(6.0.4)
; #@! TF.FileFunction,Plated,1,4,PTH
FMAT,2
INCH
; #@! TA.AperFunction,Plated,PTH,ViaDrill
T1C0.0157
; #@! TA.AperFunction,Plated,PTH,ComponentDrill
T2C0.0362
; #@! TA.AperFunction,Plated,PTH,ComponentDrill
T3C0.0394
; #@! TA.AperFunction,Plated,PTH,ComponentDrill
T4C0.0480
; #@! TA.AperFunction,Plated,PTH,ComponentDrill
T5C0.0512
; #@! TA.AperFunction,Plated,PTH,ComponentDrill
T6C0.0559
; #@! TA.AperFunction,Plated,PTH,ComponentDrill
T7C0.0563
; #@! TA.AperFunction,Plated,PTH,ComponentDrill
T8C0.0709
; #@! TA.AperFunction,Plated,PTH,ComponentDrill
T9C0.0917
%
G90
G05
T1
X0.9252Y-2.9132
X0.9252Y-2.9132
X0.9449Y-1.8699
X0.9449Y-1.8699
X0.9646Y-2.9132
X0.9646Y-2.9132
X0.9843Y-1.8699
X0.9843Y-1.8699
X1.0039Y-2.9132
X1.0039Y-2.9132
X1.0236Y-1.8699
X1.0236Y-1.8699
X1.0433Y-2.9132
X1.0433Y-2.9132
X1.063Y-1.8699
X1.063Y-1.8699
X1.1142Y-2.3047
X1.1535Y-2.1866
X1.2795Y-0.9053
X1.2795Y-0.9053
X1.2795Y-0.9447
X1.2795Y-0.9447
X1.2795Y-0.9841
X1.2795Y-0.9841
X1.2795Y-1.0234
X1.2795Y-1.0234
X1.2795Y-2.0274
X1.2795Y-2.0274
X1.2795Y-2.0667
X1.2795Y-2.0667
X1.2795Y-2.1061
X1.2795Y-2.1061
X1.2795Y-2.1455
X1.2795Y-2.1455
X1.3189Y-2.0274
X1.437Y-1.8699
X1.437Y-1.8699
X1.4764Y-1.8699
X1.4764Y-1.8699
X1.4764Y-2.9132
X1.4764Y-2.9132
X1.5157Y-1.8699
X1.5157Y-1.8699
X1.5157Y-2.9132
X1.5157Y-2.9132
X1.5551Y-1.8699
X1.5551Y-1.8699
X1.5551Y-2.9132
X1.5551Y-2.9132
X1.5945Y-2.9132
X1.5945Y-2.9132
X1.6063Y-2.3047
X1.6457Y-2.1866
X1.7717Y-0.9053
X1.7717Y-0.9053
X1.7717Y-0.9447
X1.7717Y-0.9447
X1.7717Y-0.9841
X1.7717Y-0.9841
X1.7717Y-1.0234
X1.7717Y-1.0234
X1.7717Y-2.0274
X1.7717Y-2.0274
X1.7717Y-2.0667
X1.7717Y-2.0667
X1.7717Y-2.1061
X1.7717Y-2.1061
X1.7717Y-2.1455
X1.7717Y-2.1455
X1.811Y-2.0274
X1.9094Y-3.2675
X1.9094Y-3.2675
X1.9094Y-3.3069
X1.9094Y-3.3069
X1.9094Y-3.3463
X1.9094Y-3.3463
X1.9094Y-3.3856
X1.9094Y-3.3856
X1.9094Y-4.5274
X1.9094Y-4.5274
X1.9094Y-4.5667
X1.9094Y-4.5667
X1.9094Y-4.6061
X1.9094Y-4.6061
X1.9094Y-4.6455
X1.9094Y-4.6455
X1.9291Y-1.8699
X1.9291Y-1.8699
X1.9685Y-1.8699
X1.9685Y-1.8699
X1.9685Y-2.9132
X1.9685Y-2.9132
X2.0079Y-1.8699
X2.0079Y-1.8699
X2.0079Y-2.9132
X2.0079Y-2.9132
X2.0472Y-1.8699
X2.0472Y-1.8699
X2.0472Y-2.9132
X2.0472Y-2.9132
X2.0866Y-2.9132
X2.0866Y-2.9132
X2.0984Y-2.3047
X2.1378Y-2.1866
X2.1654Y-3.051
X2.1654Y-3.051
X2.2047Y-3.051
X2.2047Y-3.051
X2.2441Y-3.051
X2.2441Y-3.051
X2.2638Y-0.9053
X2.2638Y-0.9053
X2.2638Y-0.9447
X2.2638Y-0.9447
X2.2638Y-0.9841
X2.2638Y-0.9841
X2.2638Y-1.0234
X2.2638Y-1.0234
X2.2638Y-2.0274
X2.2638Y-2.0274
X2.2638Y-2.0667
X2.2638Y-2.0667
X2.2638Y-2.1061
X2.2638Y-2.1061
X2.2638Y-2.1455
X2.2638Y-2.1455
X2.2835Y-3.051
X2.2835Y-3.051
X2.3004Y-3.982
X2.3046Y-2.0242
X2.3791Y-3.667
X2.4016Y-2.9132
X2.4016Y-2.9132
X2.4016Y-4.3108
X2.4016Y-4.3108
X2.4213Y-1.8699
X2.4213Y-1.8699
X2.4409Y-2.9132
X2.4409Y-2.9132
X2.4409Y-4.3108
X2.4409Y-4.3108
X2.4606Y-1.8699
X2.4606Y-1.8699
X2.4803Y-2.9132
X2.4803Y-2.9132
X2.4803Y-4.3108
X2.4803Y-4.3108
X2.5Y-1.8699
X2.5Y-1.8699
X2.5197Y-2.9132
X2.5197Y-2.9132
X2.5197Y-4.3108
X2.5197Y-4.3108
X2.5394Y-1.8699
X2.5394Y-1.8699
X2.5906Y-2.3047
X2.6299Y-2.1866
X2.6646Y-3.5588
X2.7236Y-3.795
X2.7531Y-3.4603
X2.7559Y-0.9053
X2.7559Y-0.9053
X2.7559Y-0.9447
X2.7559Y-0.9447
X2.7559Y-0.9841
X2.7559Y-0.9841
X2.7559Y-1.0234
X2.7559Y-1.0234
X2.7559Y-2.0274
X2.7559Y-2.0274
X2.7559Y-2.0667
X2.7559Y-2.0667
X2.7559Y-2.1061
X2.7559Y-2.1061
X2.7559Y-2.1455
X2.7559Y-2.1455
X2.7827Y-3.6769
X2.7953Y-3.9171
X2.8343Y-2.1071
X2.8343Y-2.6976
X2.8346Y-3.051
X2.8346Y-3.051
X2.8516Y-3.5784
X2.8713Y-3.4603
X2.874Y-1.9093
X2.874Y-3.051
X2.874Y-3.051
X2.9134Y-1.8699
X2.9134Y-1.8699
X2.9134Y-3.051
X2.9134Y-3.051
X2.9528Y-1.8699
X2.9528Y-1.8699
X2.9528Y-3.051
X2.9528Y-3.051
X2.9921Y-1.8699
X2.9921Y-1.8699
X3.0315Y-1.8699
X3.0315Y-1.8699
X3.1075Y-3.2085
X3.1075Y-3.2085
X3.1075Y-3.2478
X3.1075Y-3.2478
X3.1075Y-3.2872
X3.1075Y-3.2872
X3.1075Y-3.3266
X3.1075Y-3.3266
X3.1075Y-4.051
X3.1075Y-4.051
X3.1075Y-4.0904
X3.1075Y-4.0904
X3.1075Y-4.1297
X3.1075Y-4.1297
X3.1075Y-4.1691
X3.1075Y-4.1691
X3.1102Y-2.4604
X3.1102Y-2.4604
X3.1496Y-2.4604
X3.1496Y-2.4604
X3.189Y-2.4604
X3.189Y-2.4604
X3.2283Y-2.4604
X3.2283Y-2.4604
X3.248Y-0.9053
X3.248Y-0.9053
X3.248Y-0.9447
X3.248Y-0.9447
X3.248Y-0.9841
X3.248Y-0.9841
X3.248Y-1.0234
X3.248Y-1.0234
X3.3661Y-1.8699
X3.3661Y-1.8699
X3.4055Y-1.8699
X3.4055Y-1.8699
X3.4449Y-1.8699
X3.4449Y-1.8699
X3.4843Y-1.8699
X3.4843Y-1.8699
X3.5012Y-3.972
X3.5799Y-3.6571
X3.622Y-1.988
X3.622Y-1.988
X3.622Y-2.0274
X3.622Y-2.0274
X3.622Y-2.0667
X3.622Y-2.0667
X3.622Y-2.1061
X3.622Y-2.1061
X3.622Y-2.5785
X3.622Y-2.5785
X3.622Y-2.6179
X3.622Y-2.6179
X3.622Y-2.6573
X3.622Y-2.6573
X3.622Y-2.6967
X3.622Y-2.6967
X3.6417Y-4.3108
X3.6417Y-4.3108
X3.6614Y-2.1455
X3.6713Y-1.9093
X3.6811Y-4.3108
X3.6811Y-4.3108
X3.7004Y-2.1071
X3.7004Y-2.6976
X3.7205Y-4.3108
X3.7205Y-4.3108
X3.7402Y-0.9053
X3.7402Y-0.9053
X3.7402Y-0.9447
X3.7402Y-0.9447
X3.7402Y-0.9841
X3.7402Y-0.9841
X3.7402Y-1.0234
X3.7402Y-1.0234
X3.7598Y-2.4604
X3.7598Y-2.4604
X3.7598Y-4.3108
X3.7598Y-4.3108
X3.7992Y-2.4604
X3.7992Y-2.4604
X3.8386Y-2.4604
X3.8386Y-2.4604
X3.8654Y-3.5488
X3.878Y-2.4604
X3.878Y-2.4604
X3.8976Y-1.8699
X3.8976Y-1.8699
X3.9244Y-3.785
X3.937Y-1.8699
X3.937Y-1.8699
X3.937Y-3.051
X3.937Y-3.051
X3.9539Y-3.4504
X3.9764Y-1.8699
X3.9764Y-1.8699
X3.9764Y-3.051
X3.9764Y-3.051
X3.9835Y-3.6669
X4.0027Y-3.8974
X4.0157Y-1.8699
X4.0157Y-1.8699
X4.0157Y-3.051
X4.0157Y-3.051
X4.0524Y-3.5685
X4.0551Y-3.051
X4.0551Y-3.051
X4.072Y-3.4504
X4.2323Y-0.9053
X4.2323Y-0.9053
X4.2323Y-0.9447
X4.2323Y-0.9447
X4.2323Y-0.9841
X4.2323Y-0.9841
X4.2323Y-1.0234
X4.2323Y-1.0234
X4.311Y-3.3856
X4.311Y-3.3856
X4.311Y-3.425
X4.311Y-3.425
X4.311Y-3.4644
X4.311Y-3.4644
X4.311Y-3.5037
X4.311Y-3.5037
X4.4882Y-2.0667
X4.4882Y-2.0667
X4.4882Y-2.1061
X4.4882Y-2.1061
X4.4882Y-2.1455
X4.4882Y-2.1455
X4.4882Y-2.1848
X4.4882Y-2.1848
X4.4882Y-2.677
X4.4882Y-2.677
X4.4882Y-2.7163
X4.4882Y-2.7163
X4.4882Y-2.7557
X4.4882Y-2.7557
X4.4882Y-2.7951
X4.4882Y-2.7951
X4.5472Y-1.8699
X4.5472Y-1.8699
X4.5866Y-1.8699
X4.5866Y-1.8699
X4.626Y-1.8699
X4.626Y-1.8699
T2
X1.0925Y-4.4062
X1.0925Y-4.4849
X1.1909Y-4.4062
X1.1909Y-4.4849
T3
X0.8732Y-1.6717
X0.8732Y-1.7717
X0.8858Y-1.9685
X0.8858Y-2.0685
X0.9449Y-3.0496
X0.9449Y-3.1496
X0.9732Y-1.6717
X0.9732Y-1.7717
X0.9858Y-1.9685
X0.9858Y-2.0685
X1.0449Y-3.0496
X1.0449Y-3.1496
X1.0732Y-1.6717
X1.0732Y-1.7717
X1.0858Y-1.9685
X1.0858Y-2.0685
X1.1449Y-3.0496
X1.1449Y-3.1496
X1.1732Y-1.6717
X1.1732Y-1.7717
X1.1858Y-1.9685
X1.1858Y-2.0685
X1.2449Y-3.0496
X1.2449Y-3.1496
X1.3449Y-3.0496
X1.3449Y-3.1496
X1.3654Y-1.6717
X1.3654Y-1.7717
X1.378Y-1.9685
X1.378Y-2.0685
X1.4449Y-3.0496
X1.4449Y-3.1496
X1.4654Y-1.6717
X1.4654Y-1.7717
X1.478Y-1.9685
X1.478Y-2.0685
X1.5449Y-3.0496
X1.5449Y-3.1496
X1.5654Y-1.6717
X1.5654Y-1.7717
X1.578Y-1.9685
X1.578Y-2.0685
X1.6449Y-3.0496
X1.6449Y-3.1496
X1.6654Y-1.6717
X1.6654Y-1.7717
X1.678Y-1.9685
X1.678Y-2.0685
X1.8575Y-1.6717
X1.8575Y-1.7717
X1.8701Y-1.9685
X1.8701Y-2.0685
X1.9575Y-1.6717
X1.9575Y-1.7717
X1.9701Y-1.9685
X1.9701Y-2.0685
X2.0575Y-1.6717
X2.0575Y-1.7717
X2.0701Y-1.9685
X2.0701Y-2.0685
X2.1331Y-4.2281
X2.1575Y-1.6717
X2.1575Y-1.7717
X2.1701Y-1.9685
X2.1701Y-2.0685
X2.2315Y-4.2281
X2.3299Y-4.2281
X2.3496Y-1.6717
X2.3496Y-1.7717
X2.3622Y-1.9685
X2.3622Y-2.0685
X2.4496Y-1.6717
X2.4496Y-1.7717
X2.4622Y-1.9685
X2.4622Y-2.0685
X2.5496Y-1.6717
X2.5496Y-1.7717
X2.5543Y-3.1542
X2.5543Y-3.2542
X2.5622Y-1.9685
X2.5622Y-2.0685
X2.6496Y-1.6717
X2.6496Y-1.7717
X2.6543Y-3.1542
X2.6543Y-3.2542
X2.6622Y-1.9685
X2.6622Y-2.0685
X2.6843Y-4.2281
X2.7543Y-3.1542
X2.7543Y-3.2542
X2.7827Y-4.2281
X2.8417Y-1.6717
X2.8417Y-1.7717
X2.8543Y-3.1542
X2.8543Y-3.2542
X2.8811Y-4.2281
X2.9417Y-1.6717
X2.9417Y-1.7717
X3.0417Y-1.6717
X3.0417Y-1.7717
X3.1417Y-1.6717
X3.1417Y-1.7717
X3.2673Y-2.0677
X3.2673Y-2.1661
X3.2673Y-2.2646
X3.2673Y-2.6583
X3.2673Y-2.7567
X3.2673Y-2.8551
X3.3339Y-1.6717
X3.3339Y-1.7717
X3.3339Y-4.2181
X3.4039Y-2.0079
X3.4039Y-2.1079
X3.4039Y-2.2079
X3.4039Y-2.3079
X3.4039Y-2.5984
X3.4039Y-2.6984
X3.4039Y-2.7984
X3.4039Y-2.8984
X3.4323Y-4.2181
X3.4339Y-1.6717
X3.4339Y-1.7717
X3.5039Y-2.0079
X3.5039Y-2.1079
X3.5039Y-2.2079
X3.5039Y-2.3079
X3.5039Y-2.5984
X3.5039Y-2.6984
X3.5039Y-2.7984
X3.5039Y-2.8984
X3.5307Y-4.2181
X3.5339Y-1.6717
X3.5339Y-1.7717
X3.6339Y-1.6717
X3.6339Y-1.7717
X3.7551Y-3.1443
X3.7551Y-3.2443
X3.826Y-1.6717
X3.826Y-1.7717
X3.8551Y-3.1443
X3.8551Y-3.2443
X3.885Y-4.2181
X3.926Y-1.6717
X3.926Y-1.7717
X3.9551Y-3.1443
X3.9551Y-3.2443
X3.9835Y-4.2181
X4.026Y-1.6717
X4.026Y-1.7717
X4.0551Y-3.1443
X4.0551Y-3.2443
X4.0819Y-4.2181
X4.126Y-1.6717
X4.126Y-1.7717
X4.1335Y-2.0677
X4.1335Y-2.1661
X4.1335Y-2.2646
X4.1335Y-2.6583
X4.1335Y-2.7567
X4.1335Y-2.8551
X4.2701Y-2.0079
X4.2701Y-2.1079
X4.2701Y-2.2079
X4.2701Y-2.3079
X4.2701Y-2.5984
X4.2701Y-2.6984
X4.2701Y-2.7984
X4.2701Y-2.8984
X4.3181Y-1.6717
X4.3181Y-1.7717
X4.3701Y-2.0079
X4.3701Y-2.1079
X4.3701Y-2.2079
X4.3701Y-2.3079
X4.3701Y-2.5984
X4.3701Y-2.6984
X4.3701Y-2.7984
X4.3701Y-2.8984
X4.4181Y-1.6717
X4.4181Y-1.7717
X4.5181Y-1.6717
X4.5181Y-1.7717
X4.6181Y-1.6717
X4.6181Y-1.7717
T4
X1.0236Y-0.864
X1.0354Y-2.8079
X1.5157Y-0.864
X1.5276Y-2.8079
X2.0079Y-0.864
X2.0197Y-2.8079
X2.1528Y-3.1629
X2.5Y-0.864
X2.5118Y-2.8079
X2.9921Y-0.864
X3.3535Y-3.153
X3.4843Y-0.864
X3.9764Y-0.864
X4.4685Y-0.864
T5
X0.9386Y-3.399
X0.9386Y-4.199
X1.2386Y-4.199
X1.3386Y-3.399
X1.4386Y-4.199
X1.7386Y-3.399
T6
X1.0236Y-0.986
X1.0354Y-2.6858
X1.5157Y-0.986
X1.5276Y-2.6858
X2.0079Y-0.986
X2.0197Y-2.6858
X2.1528Y-3.2849
X2.5Y-0.986
X2.5118Y-2.6858
X2.9921Y-0.986
X3.3535Y-3.275
X3.4843Y-0.986
X3.9764Y-0.986
X4.4685Y-0.986
T7
X1.0236Y-1.3128
X1.0354Y-2.3591
X1.5157Y-1.3128
X1.5276Y-2.3591
X2.0079Y-1.3128
X2.0197Y-2.3591
X2.1528Y-3.6117
X2.5Y-1.3128
X2.5118Y-2.3591
X2.9921Y-1.3128
X3.3535Y-3.6018
X3.4843Y-1.3128
X3.9764Y-1.3128
X4.4685Y-1.3128
T8
X2.0425Y-3.9328
X2.4205Y-3.9328
X2.5937Y-3.9328
X2.9717Y-3.9328
X2.972Y-1.9772
X2.972Y-2.3551
X2.972Y-2.5677
X2.972Y-2.9457
X3.2433Y-3.9228
X3.6213Y-3.9228
X3.7945Y-3.9228
X3.8382Y-1.9772
X3.8382Y-2.3551
X3.8382Y-2.5677
X3.8382Y-2.9457
X4.1724Y-3.9228
T9
X0.9047Y-4.5916
X1.3787Y-4.5916
T0
M30
