%TF.GenerationSoftware,KiCad,Pcbnew,(6.0.4)*%
%TF.CreationDate,2022-06-07T22:17:41+02:00*%
%TF.ProjectId,vestmannaeyjar,76657374-6d61-46e6-9e61-65796a61722e,rev?*%
%TF.SameCoordinates,Original*%
%TF.FileFunction,Soldermask,Top*%
%TF.FilePolarity,Negative*%
%FSLAX46Y46*%
G04 Gerber Fmt 4.6, Leading zero omitted, Abs format (unit mm)*
G04 Created by KiCad (PCBNEW (6.0.4)) date 2022-06-07 22:17:41*
%MOMM*%
%LPD*%
G01*
G04 APERTURE LIST*
G04 Aperture macros list*
%AMRoundRect*
0 Rectangle with rounded corners*
0 $1 Rounding radius*
0 $2 $3 $4 $5 $6 $7 $8 $9 X,Y pos of 4 corners*
0 Add a 4 corners polygon primitive as box body*
4,1,4,$2,$3,$4,$5,$6,$7,$8,$9,$2,$3,0*
0 Add four circle primitives for the rounded corners*
1,1,$1+$1,$2,$3*
1,1,$1+$1,$4,$5*
1,1,$1+$1,$6,$7*
1,1,$1+$1,$8,$9*
0 Add four rect primitives between the rounded corners*
20,1,$1+$1,$2,$3,$4,$5,0*
20,1,$1+$1,$4,$5,$6,$7,0*
20,1,$1+$1,$6,$7,$8,$9,0*
20,1,$1+$1,$8,$9,$2,$3,0*%
G04 Aperture macros list end*
%ADD10RoundRect,0.250001X-0.624999X0.462499X-0.624999X-0.462499X0.624999X-0.462499X0.624999X0.462499X0*%
%ADD11RoundRect,0.250000X0.400000X0.625000X-0.400000X0.625000X-0.400000X-0.625000X0.400000X-0.625000X0*%
%ADD12R,1.500000X0.400000*%
%ADD13C,2.130000*%
%ADD14R,1.930000X1.830000*%
%ADD15O,1.700000X1.700000*%
%ADD16R,1.700000X1.700000*%
%ADD17C,3.240000*%
%ADD18R,1.800000X1.800000*%
%ADD19C,1.800000*%
%ADD20R,1.000000X1.500000*%
%ADD21RoundRect,0.250000X0.625000X-0.400000X0.625000X0.400000X-0.625000X0.400000X-0.625000X-0.400000X0*%
%ADD22RoundRect,0.150000X-0.825000X-0.150000X0.825000X-0.150000X0.825000X0.150000X-0.825000X0.150000X0*%
%ADD23RoundRect,0.250000X-0.412500X-0.650000X0.412500X-0.650000X0.412500X0.650000X-0.412500X0.650000X0*%
%ADD24RoundRect,0.250000X-0.625000X0.400000X-0.625000X-0.400000X0.625000X-0.400000X0.625000X0.400000X0*%
%ADD25R,2.500000X2.500000*%
%ADD26C,2.500000*%
%ADD27RoundRect,0.250001X0.624999X-0.462499X0.624999X0.462499X-0.624999X0.462499X-0.624999X-0.462499X0*%
%ADD28R,1.500000X1.000000*%
%ADD29C,1.700000*%
%ADD30C,3.500000*%
G04 APERTURE END LIST*
D10*
%TO.C,D14*%
X85160000Y-36237500D03*
X85160000Y-39212500D03*
%TD*%
D11*
%TO.C,R18*%
X46749999Y-56540000D03*
X49849999Y-56540000D03*
%TD*%
D12*
%TO.C,U7*%
X55630000Y-55890000D03*
X55630000Y-57190000D03*
X52970000Y-57190000D03*
X52970000Y-56540000D03*
X52970000Y-55890000D03*
%TD*%
D13*
%TO.C,J28*%
X51299999Y-68220000D03*
X51299999Y-59920000D03*
D14*
X51299999Y-71320000D03*
%TD*%
D15*
%TO.C,J27*%
X55120000Y-52540000D03*
X55120000Y-50000000D03*
X52580000Y-52540000D03*
X52580000Y-50000000D03*
X50040000Y-52540000D03*
X50040000Y-50000000D03*
X47500000Y-52540000D03*
D16*
X47500000Y-50000000D03*
%TD*%
D17*
%TO.C,RV3*%
X51880000Y-99892500D03*
X61480000Y-99892500D03*
D18*
X54180000Y-107392500D03*
D19*
X56680000Y-107392500D03*
X59180000Y-107392500D03*
%TD*%
D20*
%TO.C,D23*%
X58280000Y-97942500D03*
X55080000Y-97942500D03*
X55080000Y-102842500D03*
X58280000Y-102842500D03*
%TD*%
D14*
%TO.C,J4*%
X54680000Y-80337500D03*
D13*
X54680000Y-91737500D03*
X54680000Y-83437500D03*
%TD*%
D20*
%TO.C,D24*%
X72280000Y-97942500D03*
X69080000Y-97942500D03*
X69080000Y-102842500D03*
X72280000Y-102842500D03*
%TD*%
D16*
%TO.C,J3*%
X64880000Y-80117500D03*
D15*
X64880000Y-82657500D03*
X67420000Y-80117500D03*
X67420000Y-82657500D03*
X69960000Y-80117500D03*
X69960000Y-82657500D03*
X72500000Y-80117500D03*
X72500000Y-82657500D03*
%TD*%
D21*
%TO.C,R5*%
X62430000Y-89842500D03*
X62430000Y-92942500D03*
%TD*%
D22*
%TO.C,U2*%
X69205000Y-89487500D03*
X69205000Y-90757500D03*
X69205000Y-92027500D03*
X69205000Y-93297500D03*
X74155000Y-93297500D03*
X74155000Y-92027500D03*
X74155000Y-90757500D03*
X74155000Y-89487500D03*
%TD*%
D11*
%TO.C,R6*%
X65480000Y-86392500D03*
X62380000Y-86392500D03*
%TD*%
D23*
%TO.C,C2*%
X72992500Y-86392500D03*
X69867500Y-86392500D03*
%TD*%
D17*
%TO.C,RV4*%
X65880000Y-99892500D03*
X75480000Y-99892500D03*
D18*
X68180000Y-107392500D03*
D19*
X70680000Y-107392500D03*
X73180000Y-107392500D03*
%TD*%
D24*
%TO.C,R4*%
X65930000Y-89892500D03*
X65930000Y-92992500D03*
%TD*%
D20*
%TO.C,D22*%
X102779999Y-97690000D03*
X99579999Y-97690000D03*
X99579999Y-102590000D03*
X102779999Y-102590000D03*
%TD*%
D14*
%TO.C,J2*%
X85180000Y-80084999D03*
D13*
X85180000Y-91484999D03*
X85180000Y-83184999D03*
%TD*%
D23*
%TO.C,C1*%
X100367500Y-86140000D03*
X103492500Y-86140000D03*
%TD*%
D16*
%TO.C,J1*%
X95380000Y-79865000D03*
D15*
X95380000Y-82405000D03*
X97920000Y-79865000D03*
X97920000Y-82405000D03*
X100460000Y-79865000D03*
X100460000Y-82405000D03*
X103000000Y-79865000D03*
X103000000Y-82405000D03*
%TD*%
D22*
%TO.C,U1*%
X99704999Y-89235000D03*
X99704999Y-90505000D03*
X99704999Y-91775000D03*
X99704999Y-93045000D03*
X104654999Y-93045000D03*
X104654999Y-91775000D03*
X104654999Y-90505000D03*
X104654999Y-89235000D03*
%TD*%
D17*
%TO.C,RV2*%
X96379999Y-99640000D03*
X105979999Y-99640000D03*
D18*
X98679999Y-107140000D03*
D19*
X101179999Y-107140000D03*
X103679999Y-107140000D03*
%TD*%
D21*
%TO.C,R2*%
X92930000Y-92690000D03*
X92930000Y-89590000D03*
%TD*%
D20*
%TO.C,D21*%
X88780000Y-97690000D03*
X85580000Y-97690000D03*
X85580000Y-102590000D03*
X88780000Y-102590000D03*
%TD*%
D11*
%TO.C,R3*%
X95980000Y-86140000D03*
X92880000Y-86140000D03*
%TD*%
D17*
%TO.C,RV1*%
X82380000Y-99640000D03*
X91980000Y-99640000D03*
D18*
X84680000Y-107140000D03*
D19*
X87180000Y-107140000D03*
X89680000Y-107140000D03*
%TD*%
D24*
%TO.C,R1*%
X96429999Y-89640000D03*
X96429999Y-92740000D03*
%TD*%
D25*
%TO.C,U3*%
X36500000Y-106745000D03*
D26*
X31420000Y-106745000D03*
X44120000Y-86425000D03*
X33960000Y-86425000D03*
X23800000Y-86425000D03*
X23800000Y-106745000D03*
%TD*%
D24*
%TO.C,R12*%
X30000000Y-36175000D03*
X30000000Y-39275000D03*
%TD*%
%TO.C,R14*%
X42500000Y-36175000D03*
X42500000Y-39275000D03*
%TD*%
D12*
%TO.C,U5*%
X65470000Y-55890000D03*
X65470000Y-56540000D03*
X65470000Y-57190000D03*
X68130000Y-57190000D03*
X68130000Y-55890000D03*
%TD*%
D14*
%TO.C,J20*%
X38500000Y-21945000D03*
D13*
X38500000Y-33345000D03*
X38500000Y-25045000D03*
%TD*%
D10*
%TO.C,D10*%
X110160000Y-36237500D03*
X110160000Y-39212500D03*
%TD*%
D27*
%TO.C,D9*%
X113500000Y-39212500D03*
X113500000Y-36237500D03*
%TD*%
D24*
%TO.C,R9*%
X105000000Y-36175000D03*
X105000000Y-39275000D03*
%TD*%
D12*
%TO.C,U4*%
X40470000Y-55890000D03*
X40470000Y-56540000D03*
X40470000Y-57190000D03*
X43130000Y-57190000D03*
X43130000Y-55890000D03*
%TD*%
D28*
%TO.C,D19*%
X78440000Y-71620000D03*
X78440000Y-68420000D03*
X73540000Y-68420000D03*
X73540000Y-71620000D03*
%TD*%
D14*
%TO.C,J26*%
X26299999Y-71320000D03*
D13*
X26299999Y-59920000D03*
X26299999Y-68220000D03*
%TD*%
D14*
%TO.C,J11*%
X51000000Y-21945000D03*
D13*
X51000000Y-33345000D03*
X51000000Y-25045000D03*
%TD*%
D17*
%TO.C,RV8*%
X97490000Y-59820000D03*
X97490000Y-50220000D03*
D18*
X104990000Y-57520000D03*
D19*
X104990000Y-55020000D03*
X104990000Y-52520000D03*
%TD*%
D24*
%TO.C,R13*%
X92500000Y-36175000D03*
X92500000Y-39275000D03*
%TD*%
D14*
%TO.C,J17*%
X88500000Y-21945000D03*
D13*
X88500000Y-33345000D03*
X88500000Y-25045000D03*
%TD*%
D14*
%TO.C,J7*%
X63500000Y-21945000D03*
D13*
X63500000Y-33345000D03*
X63500000Y-25045000D03*
%TD*%
D27*
%TO.C,D7*%
X51000000Y-39212500D03*
X51000000Y-36237500D03*
%TD*%
D24*
%TO.C,R8*%
X67500000Y-36175000D03*
X67500000Y-39275000D03*
%TD*%
%TO.C,R10*%
X55000000Y-36175000D03*
X55000000Y-39275000D03*
%TD*%
D10*
%TO.C,D4*%
X60160000Y-36237500D03*
X60160000Y-39212500D03*
%TD*%
%TO.C,D2*%
X72660000Y-36237500D03*
X72660000Y-39212500D03*
%TD*%
D27*
%TO.C,D11*%
X26000000Y-39212500D03*
X26000000Y-36237500D03*
%TD*%
D17*
%TO.C,RV5*%
X97490000Y-65220000D03*
X97490000Y-74820000D03*
D18*
X104990000Y-72520000D03*
D19*
X104990000Y-70020000D03*
X104990000Y-67520000D03*
%TD*%
D10*
%TO.C,D12*%
X22660000Y-36237500D03*
X22660000Y-39212500D03*
%TD*%
D27*
%TO.C,D3*%
X63500000Y-39212500D03*
X63500000Y-36237500D03*
%TD*%
D17*
%TO.C,RV6*%
X75490000Y-50220000D03*
X75490000Y-59820000D03*
D18*
X82990000Y-57520000D03*
D19*
X82990000Y-55020000D03*
X82990000Y-52520000D03*
%TD*%
D17*
%TO.C,RV7*%
X75490000Y-65220000D03*
X75490000Y-74820000D03*
D18*
X82990000Y-72520000D03*
D19*
X82990000Y-70020000D03*
X82990000Y-67520000D03*
%TD*%
D27*
%TO.C,D1*%
X76000000Y-39212500D03*
X76000000Y-36237500D03*
%TD*%
D14*
%TO.C,J5*%
X76000000Y-21945000D03*
D13*
X76000000Y-33345000D03*
X76000000Y-25045000D03*
%TD*%
D14*
%TO.C,J13*%
X113500000Y-21945000D03*
D13*
X113500000Y-33345000D03*
X113500000Y-25045000D03*
%TD*%
D11*
%TO.C,R15*%
X37349999Y-56540000D03*
X34249999Y-56540000D03*
%TD*%
D24*
%TO.C,R11*%
X117500000Y-36175000D03*
X117500000Y-39275000D03*
%TD*%
D10*
%TO.C,D16*%
X35160000Y-36237500D03*
X35160000Y-39212500D03*
%TD*%
D14*
%TO.C,J22*%
X38799999Y-71320000D03*
D13*
X38799999Y-59920000D03*
X38799999Y-68220000D03*
%TD*%
D11*
%TO.C,R17*%
X24849999Y-56540000D03*
X21749999Y-56540000D03*
%TD*%
%TO.C,R16*%
X62349999Y-56540000D03*
X59249999Y-56540000D03*
%TD*%
D27*
%TO.C,D5*%
X101000000Y-39212500D03*
X101000000Y-36237500D03*
%TD*%
D16*
%TO.C,J33*%
X24000000Y-80000000D03*
D15*
X24000000Y-77460000D03*
X26540000Y-80000000D03*
X26540000Y-77460000D03*
X29080000Y-80000000D03*
X29080000Y-77460000D03*
X31620000Y-80000000D03*
X31620000Y-77460000D03*
X34160000Y-80000000D03*
X34160000Y-77460000D03*
X36700000Y-80000000D03*
X36700000Y-77460000D03*
X39240000Y-80000000D03*
X39240000Y-77460000D03*
X41780000Y-80000000D03*
X41780000Y-77460000D03*
%TD*%
D16*
%TO.C,J37*%
X30250000Y-111917500D03*
D29*
X27750000Y-111917500D03*
X27750000Y-113917500D03*
X30250000Y-113917500D03*
D30*
X35020000Y-116627500D03*
X22980000Y-116627500D03*
%TD*%
D27*
%TO.C,D15*%
X38500000Y-39212500D03*
X38500000Y-36237500D03*
%TD*%
D14*
%TO.C,J24*%
X63799999Y-71320000D03*
D13*
X63799999Y-59920000D03*
X63799999Y-68220000D03*
%TD*%
D27*
%TO.C,D13*%
X88500000Y-39212500D03*
X88500000Y-36237500D03*
%TD*%
D24*
%TO.C,R7*%
X80000000Y-36175000D03*
X80000000Y-39275000D03*
%TD*%
D12*
%TO.C,U6*%
X27970000Y-55890000D03*
X27970000Y-56540000D03*
X27970000Y-57190000D03*
X30630000Y-57190000D03*
X30630000Y-55890000D03*
%TD*%
D28*
%TO.C,D17*%
X100440000Y-71620000D03*
X100440000Y-68420000D03*
X95540000Y-68420000D03*
X95540000Y-71620000D03*
%TD*%
D14*
%TO.C,J15*%
X26000000Y-21945000D03*
D13*
X26000000Y-33345000D03*
X26000000Y-25045000D03*
%TD*%
D14*
%TO.C,J9*%
X101000000Y-21945000D03*
D13*
X101000000Y-33345000D03*
X101000000Y-25045000D03*
%TD*%
D28*
%TO.C,D20*%
X100440000Y-56620000D03*
X100440000Y-53420000D03*
X95540000Y-53420000D03*
X95540000Y-56620000D03*
%TD*%
D10*
%TO.C,D6*%
X97660000Y-36237500D03*
X97660000Y-39212500D03*
%TD*%
D28*
%TO.C,D18*%
X73540000Y-56620000D03*
X73540000Y-53420000D03*
X78440000Y-53420000D03*
X78440000Y-56620000D03*
%TD*%
D10*
%TO.C,D8*%
X47660000Y-36237500D03*
X47660000Y-39212500D03*
%TD*%
D16*
%TO.C,J31*%
X89000000Y-66000000D03*
D15*
X86460000Y-66000000D03*
X89000000Y-68540000D03*
X86460000Y-68540000D03*
X89000000Y-71080000D03*
X86460000Y-71080000D03*
X89000000Y-73620000D03*
X86460000Y-73620000D03*
%TD*%
D16*
%TO.C,J14*%
X117300000Y-45000000D03*
D15*
X117300000Y-42460000D03*
X114760000Y-45000000D03*
X114760000Y-42460000D03*
X112220000Y-45000000D03*
X112220000Y-42460000D03*
X109680000Y-45000000D03*
X109680000Y-42460000D03*
%TD*%
D16*
%TO.C,J25*%
X22500000Y-50000000D03*
D15*
X22500000Y-52540000D03*
X25040000Y-50000000D03*
X25040000Y-52540000D03*
X27580000Y-50000000D03*
X27580000Y-52540000D03*
X30120000Y-50000000D03*
X30120000Y-52540000D03*
%TD*%
D16*
%TO.C,J16*%
X29800000Y-45000000D03*
D15*
X29800000Y-42460000D03*
X27260000Y-45000000D03*
X27260000Y-42460000D03*
X24720000Y-45000000D03*
X24720000Y-42460000D03*
X22180000Y-45000000D03*
X22180000Y-42460000D03*
%TD*%
D16*
%TO.C,J18*%
X35000000Y-50000000D03*
D15*
X35000000Y-52540000D03*
X37540000Y-50000000D03*
X37540000Y-52540000D03*
X40080000Y-50000000D03*
X40080000Y-52540000D03*
X42620000Y-50000000D03*
X42620000Y-52540000D03*
%TD*%
D16*
%TO.C,J12*%
X54800000Y-45000000D03*
D15*
X54800000Y-42460000D03*
X52260000Y-45000000D03*
X52260000Y-42460000D03*
X49720000Y-45000000D03*
X49720000Y-42460000D03*
X47180000Y-45000000D03*
X47180000Y-42460000D03*
%TD*%
D16*
%TO.C,J19*%
X92300000Y-45000000D03*
D15*
X92300000Y-42460000D03*
X89760000Y-45000000D03*
X89760000Y-42460000D03*
X87220000Y-45000000D03*
X87220000Y-42460000D03*
X84680000Y-45000000D03*
X84680000Y-42460000D03*
%TD*%
D16*
%TO.C,J30*%
X89000000Y-51000000D03*
D15*
X86460000Y-51000000D03*
X89000000Y-53540000D03*
X86460000Y-53540000D03*
X89000000Y-56080000D03*
X86460000Y-56080000D03*
X89000000Y-58620000D03*
X86460000Y-58620000D03*
%TD*%
D16*
%TO.C,J6*%
X79800000Y-45000000D03*
D15*
X79800000Y-42460000D03*
X77260000Y-45000000D03*
X77260000Y-42460000D03*
X74720000Y-45000000D03*
X74720000Y-42460000D03*
X72180000Y-45000000D03*
X72180000Y-42460000D03*
%TD*%
D16*
%TO.C,J10*%
X104800000Y-45000000D03*
D15*
X104800000Y-42460000D03*
X102260000Y-45000000D03*
X102260000Y-42460000D03*
X99720000Y-45000000D03*
X99720000Y-42460000D03*
X97180000Y-45000000D03*
X97180000Y-42460000D03*
%TD*%
D16*
%TO.C,J32*%
X111000000Y-51000000D03*
D15*
X108460000Y-51000000D03*
X111000000Y-53540000D03*
X108460000Y-53540000D03*
X111000000Y-56080000D03*
X108460000Y-56080000D03*
X111000000Y-58620000D03*
X108460000Y-58620000D03*
%TD*%
D16*
%TO.C,J21*%
X42300000Y-45000000D03*
D15*
X42300000Y-42460000D03*
X39760000Y-45000000D03*
X39760000Y-42460000D03*
X37220000Y-45000000D03*
X37220000Y-42460000D03*
X34680000Y-45000000D03*
X34680000Y-42460000D03*
%TD*%
D16*
%TO.C,J23*%
X60000000Y-50000000D03*
D15*
X60000000Y-52540000D03*
X62540000Y-50000000D03*
X62540000Y-52540000D03*
X65080000Y-50000000D03*
X65080000Y-52540000D03*
X67620000Y-50000000D03*
X67620000Y-52540000D03*
%TD*%
D16*
%TO.C,J29*%
X111000000Y-66000000D03*
D15*
X108460000Y-66000000D03*
X111000000Y-68540000D03*
X108460000Y-68540000D03*
X111000000Y-71080000D03*
X108460000Y-71080000D03*
X111000000Y-73620000D03*
X108460000Y-73620000D03*
%TD*%
D16*
%TO.C,J8*%
X67300000Y-45000000D03*
D15*
X67300000Y-42460000D03*
X64760000Y-45000000D03*
X64760000Y-42460000D03*
X62220000Y-45000000D03*
X62220000Y-42460000D03*
X59680000Y-45000000D03*
X59680000Y-42460000D03*
%TD*%
M02*
